<svg version="1.1" viewBox="0.0 0.0 200.0 200.0" width="200" height="200" fill="none" stroke="none" stroke-linecap="square" stroke-miterlimit="10" xmlns:xlink="http://www.w3.org/1999/xlink" xmlns="http://www.w3.org/2000/svg"><clipPath id="p.0"><path d="m0 0l200.0 0l0 200.0l-200.0 0l0 -200.0z" clip-rule="nonzero"/></clipPath><g clip-path="url(#p.0)"><path fill="#000000" fill-opacity="0.0" d="m0 0l200.0 0l0 200.0l-200.0 0z" fill-rule="evenodd"/><path fill="#cccccc" d="m-0.020997375 100.031494l0 0c0 -55.24587 44.757423 -100.031494 99.968506 -100.031494l0 0c26.51329 0 51.940674 10.539002 70.6884 29.298548c18.747742 18.759542 29.280106 44.20295 29.280106 70.73295l0 0c0 55.245865 -44.75743 100.031494 -99.968506 100.031494l0 0c-55.211082 0 -99.968506 -44.78563 -99.968506 -100.031494z" fill-rule="evenodd"/><path fill="#b7b7b7" d="m8.167979 100.0l0 0c0 -50.688435 41.09109 -91.779526 91.77953 -91.779526l0 0c24.341438 0 47.68593 9.669601 64.89792 26.881601c17.212006 17.212002 26.881607 40.55648 26.881607 64.89793l0 0c0 50.68843 -41.091095 91.779526 -91.779526 91.779526l0 0c-50.68844 0 -91.77953 -41.091095 -91.77953 -91.779526z" fill-rule="evenodd"/><path fill="#000000" fill-opacity="0.0" d="m39.212597 32.367455l15.412075 13.249344l0.39894867 19.559052l3.9475098 3.9580078" fill-rule="evenodd"/><path stroke="#999999" stroke-width="1.0" stroke-linejoin="round" stroke-linecap="butt" d="m39.212597 32.367455l15.412075 13.249344l0.39894867 19.559052l3.9475098 3.9580078" fill-rule="evenodd"/><path fill="#000000" fill-opacity="0.0" d="m46.299213 26.005249l15.412071 13.249344l0.39895248 19.559055l3.9475021 3.958004" fill-rule="evenodd"/><path stroke="#999999" stroke-width="1.0" stroke-linejoin="round" stroke-linecap="butt" d="m46.299213 26.005249l15.412071 13.249344l0.39895248 19.559055l3.9475021 3.958004" fill-rule="evenodd"/><path fill="#000000" fill-opacity="0.0" d="m66.05774 62.608925l6.719162 -2.9632568l3.7559052 13.042" fill-rule="evenodd"/><path stroke="#999999" stroke-width="1.0" stroke-linejoin="round" stroke-linecap="butt" d="m66.05774 62.608925l6.719162 -2.9632568l3.7559052 13.042" fill-rule="evenodd"/><path fill="#000000" fill-opacity="0.0" d="m9.367455 107.47244l5.729658 -4.745407l9.288713 8.104988l13.24147 -12.847771l5.5354347 12.451439l10.078739 -1.186348" fill-rule="evenodd"/><path stroke="#999999" stroke-width="1.0" stroke-linejoin="round" stroke-linecap="butt" d="m9.367455 107.47244l5.729658 -4.745407l9.288713 8.104988l13.24147 -12.847771l5.5354347 12.451439l10.078739 -1.186348" fill-rule="evenodd"/><path fill="#000000" fill-opacity="0.0" d="m69.64304 183.95276l-12.251968 -14.031494l15.811028 -3.9527588l-6.91864 -9.288712l25.493439 3.9527588l11.464569 7.5118103l4.149605 -18.183731" fill-rule="evenodd"/><path stroke="#999999" stroke-width="1.0" stroke-linejoin="round" stroke-linecap="butt" d="m69.64304 183.95276l-12.251968 -14.031494l15.811028 -3.9527588l-6.91864 -9.288712l25.493439 3.9527588l11.464569 7.5118103l4.149605 -18.183731" fill-rule="evenodd"/><path fill="#000000" fill-opacity="0.0" d="m159.17061 167.3517l6.9160004 -10.275589l-9.091858 -7.9055023l22.530182 -10.868774l-22.330704 -17.590546l13.041992 -9.089241l-7.1128693 -6.719162l2.7664185 -4.545929" fill-rule="evenodd"/><path stroke="#999999" stroke-width="1.0" stroke-linejoin="round" stroke-linecap="butt" d="m159.17061 167.3517l6.9160004 -10.275589l-9.091858 -7.9055023l22.530182 -10.868774l-22.330704 -17.590546l13.041992 -9.089241l-7.1128693 -6.719162l2.7664185 -4.545929" fill-rule="evenodd"/><path fill="#000000" fill-opacity="0.0" d="m178.14174 56.089237l-13.438324 0.7900276l-0.3963318 3.5564308l-8.102356 2.1732292" fill-rule="evenodd"/><path stroke="#999999" stroke-width="1.0" stroke-linejoin="round" stroke-linecap="butt" d="m178.14174 56.089237l-13.438324 0.7900276l-0.3963318 3.5564308l-8.102356 2.1732292" fill-rule="evenodd"/></g></svg>