<svg version="1.1" xmlns="http://www.w3.org/2000/svg" xmlns:xlink="http://www.w3.org/1999/xlink" width="45.30141" height="46.35103" viewBox="0,0,45.30141,46.35103"><g transform="translate(-217.31736,-156.39474)"><g data-paper-data="{&quot;isPaintingLayer&quot;:true}" fill-rule="nonzero" stroke-linejoin="miter" stroke-miterlimit="10" stroke-dasharray="" stroke-dashoffset="0" style="mix-blend-getMode: normal"><path d="M223.20483,179.95558c-0.43478,4.79367 2.26479,10.82668 2.26479,10.82668l-0.55483,5.45476c0,0 -7.35394,-7.28741 -6.53356,-16.33266c0.82038,-9.04525 10.02653,-17.92078 10.02653,-17.92078l-0.51884,4.82352c0,0 -4.15401,7.30406 -4.68408,13.14849z" fill="#ffffff" stroke="#b9b9b9" stroke-width="2" stroke-linecap="butt"/><path d="M224.55905,201.73164l5.96255,-44.32042l20.58042,0.38468l4.80851,43.55106z" fill="#ffffff" stroke="#b9b9b9" stroke-width="2" stroke-linecap="butt"/><path d="M252.11109,166.61475l-0.51884,-4.82352c0,0 9.20614,8.87552 10.02652,17.92077c0.82038,9.04525 -6.53355,16.33266 -6.53355,16.33266l-0.55483,-5.45476c0,0 2.69956,-6.03301 2.26478,-10.82668c-0.53008,-5.84443 -4.68408,-13.14849 -4.68408,-13.14849z" data-paper-data="{&quot;index&quot;:null}" fill="#ffffff" stroke="#b9b9b9" stroke-width="2" stroke-linecap="butt"/><path d="M227.0119,199.55201l5.28571,-41c0,0 0.43856,17.7954 3.57143,26.85715c3.13287,9.06175 11.85715,14 11.85715,14z" fill="#ededed" stroke="#ededed" stroke-width="2" stroke-linecap="butt"/><path d="M231.875,165.48138c0,0 2.46523,-2.41653 8.51747,-2.5117c6.41071,-0.1008 7.73253,1.82988 7.73253,1.82988" fill="none" stroke="#b9b9b9" stroke-width="2" stroke-linecap="round"/><path d="M248.14148,165.55186c-0.39291,0.08309 0,1.33776 0,1.33776h0.68799c0,0 -0.37133,-1.40473 -0.68799,-1.33776z" fill="none" stroke="#b9b9b9" stroke-width="2" stroke-linecap="round"/><path d="M230.17063,192.36153l1.22222,-5.66667c0,0 1.45316,-2.31326 9.22222,-2.33334c7.71971,-0.01995 8.88889,2.33334 8.88889,2.33334l1.22223,6" fill="none" stroke="#b9b9b9" stroke-width="2" stroke-linecap="round"/><path d="M228.05951,197.25042l24.11112,-0.11111" fill="none" stroke="#b9b9b9" stroke-width="2" stroke-linecap="round"/><path d="M248.1043,166.10695c-0.27242,-0.63816 0.30769,-1.03846 0.30769,-1.03846c0,0 0.66142,0.10973 0.73077,0.84616c0.07236,0.76834 0.20999,1.11897 -0.11539,1.19231c-0.26994,0.06084 -0.61148,-0.27008 -0.92308,-1z" fill="#cacaca" stroke="none" stroke-width="0" stroke-linecap="butt"/></g></g></svg>