<svg version="1.1" xmlns="http://www.w3.org/2000/svg" xmlns:xlink="http://www.w3.org/1999/xlink" width="45.86202" height="46.35103" viewBox="0,0,45.86202,46.35103"><g transform="translate(-217.4007,-156.82331)"><g data-paper-data="{&quot;isPaintingLayer&quot;:true}" fill-rule="nonzero" stroke-linejoin="miter" stroke-miterlimit="10" stroke-dasharray="" stroke-dashoffset="0" style="mix-blend-getMode: normal"><path d="M223.28816,180.38415c-0.43478,4.79367 2.26479,10.82668 2.26479,10.82668l-0.55483,5.45476c0,0 -7.35394,-7.28741 -6.53356,-16.33266c0.82038,-9.04525 10.02653,-17.92078 10.02653,-17.92078l-0.51884,4.82352c0,0 -4.15401,7.30406 -4.68408,13.14849z" fill="#ffffff" stroke="#b9b9b9" stroke-width="2" stroke-linecap="butt"/><path d="M224.64238,202.16021l5.96255,-44.32042l20.58042,0.38468l4.80851,43.55106z" fill="#ffffff" stroke="#b9b9b9" stroke-width="2" stroke-linecap="butt"/><path d="M252.75503,167.12666l-0.51884,-4.82352c0,0 9.20614,8.87552 10.02652,17.92077c0.82038,9.04525 -6.53355,16.33266 -6.53355,16.33266l-0.55483,-5.45476c0,0 2.69956,-6.03301 2.26478,-10.82668c-0.53008,-5.84443 -4.68408,-13.14849 -4.68408,-13.14849z" data-paper-data="{&quot;index&quot;:null}" fill="#ffffff" stroke="#b9b9b9" stroke-width="2" stroke-linecap="butt"/><path d="M227.09523,199.98058l5.28571,-41c0,0 0.43856,17.7954 3.57143,26.85715c3.13287,9.06175 11.85715,14 11.85715,14z" fill="#ededed" stroke="#ededed" stroke-width="2" stroke-linecap="butt"/><path d="M231.95833,165.90995c0,0 2.46523,-2.41653 8.51747,-2.5117c6.41071,-0.1008 7.73253,1.82988 7.73253,1.82988" fill="none" stroke="#b9b9b9" stroke-width="2" stroke-linecap="round"/><path d="M248.9128,167.31819h-0.68799c0,0 -0.39291,-1.25467 0,-1.33776c0.31666,-0.06697 0.68799,1.33776 0.68799,1.33776z" fill="none" stroke="#b9b9b9" stroke-width="2" stroke-linecap="round"/><path d="M229.30012,192.80549l1.35486,-6.71281c0,0 1.61086,-2.74032 10.22305,-2.76411c8.55748,-0.02364 9.85354,2.76411 9.85354,2.76411l1.35487,7.10768" fill="none" stroke="#b9b9b9" stroke-width="2" stroke-linecap="round"/><path d="M228.54284,198.87899l24.11112,-0.11111" fill="none" stroke="#b9b9b9" stroke-width="2" stroke-linecap="round"/><path d="M248.18763,166.53552c-0.27242,-0.63816 0.30769,-1.03846 0.30769,-1.03846c0,0 0.66142,0.10973 0.73077,0.84616c0.07236,0.76834 0.20999,1.11897 -0.11539,1.19231c-0.26994,0.06084 -0.61148,-0.27008 -0.92308,-1z" fill="#cacaca" stroke="none" stroke-width="0" stroke-linecap="butt"/><path d="M233.5625,188.5625c0,0 2.61374,-1.30583 7.12338,-1.43694c4.78008,-0.13897 7.25162,1.31194 7.25162,1.31194" fill="none" stroke="#b9b9b9" stroke-width="1.5" stroke-linecap="round"/><path d="M248.63694,190.11819h-0.68799c0,0 -0.39291,-1.25467 0,-1.33776c0.31666,-0.06697 0.68799,1.33776 0.68799,1.33776z" fill="none" stroke="#b9b9b9" stroke-width="2" stroke-linecap="round"/><path d="M247.91177,189.33552c-0.27242,-0.63816 0.30769,-1.03846 0.30769,-1.03846c0,0 0.66142,0.10973 0.73077,0.84616c0.07236,0.76834 0.20999,1.11897 -0.11539,1.19231c-0.26994,0.06084 -0.61148,-0.27008 -0.92308,-1z" fill="#cacaca" stroke="none" stroke-width="0" stroke-linecap="butt"/><path d="M234.30909,178.68182v-8.07025h11.83636v8.07025z" fill="#ffffff" stroke="#b9b9b9" stroke-width="1.5" stroke-linecap="butt"/><path d="M235.08333,176.33333v-1.55556h10.33333v1.55556z" fill="#ededed" stroke="none" stroke-width="0" stroke-linecap="butt"/><path d="M234.59091,174.55195l11.09091,-0.09091" fill="none" stroke="#b9b9b9" stroke-width="1.5" stroke-linecap="round"/><path d="M241.41666,172.8373c0,0.50626 -0.43527,0.91666 -0.97222,0.91666c-0.53695,0 -0.97223,-0.4104 -0.97223,-0.91666c0,-0.50626 0.43528,-0.91667 0.97223,-0.91667c0.53695,0 0.97222,0.41041 0.97222,0.91667z" fill="#ededed" stroke="none" stroke-width="0" stroke-linecap="butt"/><path d="M241.41667,172.55952c0,0.50626 -0.43528,0.91667 -0.97222,0.91667c-0.53694,0 -0.97222,-0.41041 -0.97222,-0.91667c0,-0.50626 0.43528,-0.91667 0.97222,-0.91667c0.53694,0 0.97222,0.41041 0.97222,0.91667z" fill="#b9b9b9" stroke="none" stroke-width="0" stroke-linecap="butt"/></g></g></svg>