<svg version="1.1" xmlns="http://www.w3.org/2000/svg" xmlns:xlink="http://www.w3.org/1999/xlink" width="47.71768" height="46.35103" viewBox="0,0,47.71768,46.35103"><g transform="translate(-216.90788,-156.82332)"><g data-paper-data="{&quot;isPaintingLayer&quot;:true}" fill-rule="nonzero" stroke-linejoin="miter" stroke-miterlimit="10" stroke-dasharray="" stroke-dashoffset="0" style="mix-blend-getMode: normal"><path d="M223.28816,180.38416c-0.43478,4.79367 2.26479,10.82668 2.26479,10.82668l-0.55483,5.45476c0,0 -7.35394,-7.28741 -6.53356,-16.33266c0.82038,-9.04525 10.02653,-17.92078 10.02653,-17.92078l-0.51884,4.82352c0,0 -4.15401,7.30406 -4.68408,13.14849z" fill="#ffffff" stroke="#b9b9b9" stroke-width="2" stroke-linecap="butt"/><path d="M224.64238,202.16022l5.96255,-44.32042l20.58042,0.38468l4.80851,43.55106z" fill="#ffffff" stroke="#b9b9b9" stroke-width="2" stroke-linecap="butt"/><path d="M252.75503,167.12667l-0.51884,-4.82352c0,0 9.20614,8.87552 10.02652,17.92077c0.82038,9.04525 -6.53355,16.33266 -6.53355,16.33266l-0.55483,-5.45476c0,0 2.69956,-6.03301 2.26478,-10.82668c-0.53008,-5.84443 -4.68408,-13.14849 -4.68408,-13.14849z" data-paper-data="{&quot;index&quot;:null}" fill="#ffffff" stroke="#b9b9b9" stroke-width="2" stroke-linecap="butt"/><path d="M227.09523,199.98059l5.28571,-41c0,0 0.43856,17.7954 3.57143,26.85715c3.13287,9.06175 11.85715,14 11.85715,14z" fill="#ededed" stroke="#ededed" stroke-width="2" stroke-linecap="butt"/><path d="M231.95833,165.90996c0,0 2.46523,-2.41653 8.51747,-2.5117c6.41071,-0.1008 7.73253,1.82988 7.73253,1.82988" fill="none" stroke="#b9b9b9" stroke-width="2" stroke-linecap="round"/><path d="M248.9128,167.3182h-0.68799c0,0 -0.39291,-1.25467 0,-1.33776c0.31666,-0.06697 0.68799,1.33776 0.68799,1.33776z" fill="none" stroke="#b9b9b9" stroke-width="2" stroke-linecap="round"/><path d="M229.30012,192.8055l1.35486,-6.71281c0,0 1.61086,-2.74032 10.22305,-2.76411c8.55748,-0.02364 9.85354,2.76411 9.85354,2.76411l1.35487,7.10768" fill="none" stroke="#b9b9b9" stroke-width="2" stroke-linecap="round"/><path d="M252.65396,198.76789l-24.11112,0.11111" fill="none" stroke="#b9b9b9" stroke-width="2" stroke-linecap="round"/><path d="M248.18763,166.53553c-0.27242,-0.63816 0.30769,-1.03846 0.30769,-1.03846c0,0 0.66142,0.10973 0.73077,0.84616c0.07236,0.76834 0.20999,1.11897 -0.11539,1.19231c-0.26994,0.06084 -0.61148,-0.27008 -0.92308,-1z" fill="#cacaca" stroke="none" stroke-width="0" stroke-linecap="butt"/><path d="M233.5625,188.56251c0,0 2.61374,-1.30583 7.12338,-1.43694c4.78008,-0.13897 7.25162,1.31194 7.25162,1.31194" fill="none" stroke="#b9b9b9" stroke-width="1.5" stroke-linecap="round"/><path d="M248.63694,190.1182h-0.68799c0,0 -0.39291,-1.25467 0,-1.33776c0.31666,-0.06697 0.68799,1.33776 0.68799,1.33776z" fill="none" stroke="#b9b9b9" stroke-width="2" stroke-linecap="round"/><path d="M247.91177,189.33553c-0.27242,-0.63816 0.30769,-1.03846 0.30769,-1.03846c0,0 0.66142,0.10973 0.73077,0.84616c0.07236,0.76834 0.20999,1.11897 -0.11539,1.19231c-0.26994,0.06084 -0.61148,-0.27008 -0.92308,-1z" fill="#cacaca" stroke="none" stroke-width="0" stroke-linecap="butt"/><g><path d="M218.00864,196.93556l3.35036,-19.17793l6.81626,-2.42613l-3.35037,25.87866z" fill="#ffffff" stroke="#b9b9b9" stroke-width="2" stroke-linecap="butt"/><path d="M221.47453,180.53034l2.65718,0.23106" fill="none" stroke="#b9b9b9" stroke-width="2" stroke-linecap="round"/><path d="M224.73959,182.24667h-0.68799c0,0 -0.39291,-1.25467 0,-1.33776c0.31666,-0.06697 0.68799,1.33776 0.68799,1.33776z" fill="none" stroke="#b9b9b9" stroke-width="2" stroke-linecap="round"/><path d="M224.01442,181.464c-0.27242,-0.63816 0.30769,-1.03846 0.30769,-1.03846c0,0 0.66142,0.10973 0.73077,0.84616c0.07236,0.76834 0.20999,1.11897 -0.11539,1.19231c-0.26994,0.06084 -0.61148,-0.27008 -0.92308,-1z" fill="#cacaca" stroke="none" stroke-width="0" stroke-linecap="butt"/></g><path d="M256.70855,199.59937l-3.35037,-25.87866l6.81626,2.42613l3.35036,19.17793z" fill="#ffffff" stroke="#b9b9b9" stroke-width="2" stroke-linecap="butt"/><path d="M260.05891,178.91955l-2.65719,0.23106" fill="none" stroke="#b9b9b9" stroke-width="2" stroke-linecap="round"/><path d="M257.65393,179.26501c0.39291,0.08309 0,1.33776 0,1.33776h-0.68799c0,0 0.37133,-1.40473 0.68799,-1.33776z" data-paper-data="{&quot;index&quot;:null}" fill="none" stroke="#b9b9b9" stroke-width="2" stroke-linecap="round"/><path d="M258.5843,179.47055c-0.17991,0.77299 -0.4587,1.15827 -0.7351,1.1453c-0.33317,-0.01564 -0.25862,-0.38486 -0.32099,-1.15407c-0.05978,-0.73727 0.57248,-0.96035 0.57248,-0.96035c0,0 0.64089,0.29331 0.4836,0.96912z" data-paper-data="{&quot;index&quot;:null}" fill="#cacaca" stroke="none" stroke-width="0" stroke-linecap="butt"/><g stroke-width="0.75"><path d="M232.39242,177.32955v-4.37707h6.41969v4.37707z" fill="#ffffff" stroke="#b9b9b9" stroke-linecap="butt"/><path d="M232.81234,175.93048v-0.84369h5.60449v0.84369z" fill="#ededed" stroke="none" stroke-linecap="butt"/><path d="M232.54527,174.96431l6.01538,-0.04931" fill="none" stroke="#b9b9b9" stroke-linecap="round"/><path d="M236.24736,174.03434c0,0.27458 -0.23608,0.49717 -0.5273,0.49717c-0.29123,0 -0.52731,-0.22259 -0.52731,-0.49717c0,-0.27458 0.23608,-0.49717 0.52731,-0.49717c0.29123,0 0.5273,0.22259 0.5273,0.49717z" fill="#ededed" stroke="none" stroke-linecap="butt"/><path d="M236.24736,173.88368c0,0.27458 -0.23608,0.49717 -0.5273,0.49717c-0.29122,0 -0.5273,-0.22259 -0.5273,-0.49717c0,-0.27458 0.23608,-0.49717 0.5273,-0.49717c0.29122,0 0.5273,0.22259 0.5273,0.49717z" fill="#b9b9b9" stroke="none" stroke-linecap="butt"/></g><g stroke-width="0.75"><path d="M242.80908,177.57955v-4.54373h6.66414v4.54373z" fill="#ffffff" stroke="#b9b9b9" stroke-linecap="butt"/><path d="M243.245,176.12721v-0.87582h5.8179v0.87582z" fill="#ededed" stroke="none" stroke-linecap="butt"/><path d="M242.96776,175.12425l6.24443,-0.05118" fill="none" stroke="#b9b9b9" stroke-linecap="round"/><path d="M246.81081,174.15886c0,0.28504 -0.24507,0.5161 -0.54738,0.5161c-0.30232,0 -0.54739,-0.23106 -0.54739,-0.5161c0,-0.28504 0.24507,-0.51611 0.54739,-0.51611c0.30232,0 0.54738,0.23107 0.54738,0.51611z" fill="#ededed" stroke="none" stroke-linecap="butt"/><path d="M246.81081,174.00247c0,0.28504 -0.24507,0.5161 -0.54738,0.5161c-0.30231,0 -0.54738,-0.23107 -0.54738,-0.5161c0,-0.28504 0.24507,-0.51611 0.54738,-0.51611c0.30231,0 0.54738,0.23107 0.54738,0.51611z" fill="#b9b9b9" stroke="none" stroke-linecap="butt"/></g></g></g></svg>