<?xml version="1.0" encoding="UTF-8" standalone="no"?>
<!-- Created with Inkscape (http://www.inkscape.org/) -->

<svg
   width="201.46519mm"
   height="175.46429mm"
   viewBox="0 0 201.46519 175.46429"
   version="1.1"
   id="svg5"
   inkscape:version="1.1.2 (b8e25be8, 2022-02-05)"
   sodipodi:docname="Islandr_loot-helmet-01.svg"
   xmlns:inkscape="http://www.inkscape.org/namespaces/inkscape"
   xmlns:sodipodi="http://sodipodi.sourceforge.net/DTD/sodipodi-0.dtd"
   xmlns="http://www.w3.org/2000/svg"
   xmlns:svg="http://www.w3.org/2000/svg">
  <sodipodi:namedview
     id="namedview7"
     pagecolor="#ffffff"
     bordercolor="#999999"
     borderopacity="1"
     inkscape:pageshadow="0"
     inkscape:pageopacity="0"
     inkscape:pagecheckerboard="0"
     inkscape:document-units="mm"
     showgrid="false"
     inkscape:snap-global="true"
     inkscape:object-paths="true"
     inkscape:snap-intersection-paths="false"
     inkscape:snap-smooth-nodes="true"
     inkscape:zoom="0.31055459"
     inkscape:cx="523.25744"
     inkscape:cy="326.83465"
     inkscape:window-width="1366"
     inkscape:window-height="715"
     inkscape:window-x="58"
     inkscape:window-y="25"
     inkscape:window-maximized="0"
     inkscape:current-layer="layer1"
     fit-margin-top="0"
     fit-margin-left="0"
     fit-margin-right="0"
     fit-margin-bottom="0" />
  <defs
     id="defs2" />
  <g
     inkscape:label="Layer 1"
     inkscape:groupmode="layer"
     id="layer1">
    <g
       id="g13686"
       transform="rotate(5,1387.8136,-552.36198)"
       style="fill:#ff9900;fill-opacity:1"
       inkscape:export-filename="/Users/shotaro/Desktop/surviv/Loot/Armor/Islandr_loot-helmet-01.png"
       inkscape:export-xdpi="96"
       inkscape:export-ydpi="96">
      <path
         id="path1141"
         style="fill:#ffcb84;fill-opacity:1;stroke:none;stroke-width:25;stroke-linecap:butt;stroke-linejoin:miter;stroke-miterlimit:4;stroke-dasharray:none;stroke-opacity:1"
         d="m 644.11133,431.63672 c -270.80398,24.2578 -234.83661,278.15758 -249.65625,336.34375 37.31744,13.73308 77.5928,26.06914 119.10351,36.78125 7.19034,-56.65361 12.53641,-136.52918 33.12891,-211.24219 17.4088,-63.16206 46.17275,-123.58689 97.42383,-161.88281 z m 135.5039,11.62305 c -0.0661,0.20534 -0.13607,0.41149 -0.20703,0.61718 49.09975,49.13399 68.96653,117.24534 74.6836,185.52539 6.8315,81.59041 -5.82549,164.79734 -13.19532,221.91993 58.62096,0.55461 108.3199,-4.81467 141.2168,-17.33008 13.36188,-96.72832 12.86104,-204.32076 -39.92187,-277.13672 -24.41882,-33.68667 -98.78969,-89.33012 -162.57618,-113.5957 z m -125.19726,12.02929 c -42.38798,33.97546 -67.5666,86.59632 -83.62891,144.87305 -19.83594,71.96825 -25.15159,151.14531 -32.61914,209.29101 l -0.17578,1.37305 c 94.63249,22.72618 193.74168,36.86736 277.76563,39.93164 l 0.14648,-1.13281 c 7.41347,-57.7248 19.82193,-139.90112 13.27148,-218.13477 -5.3836,-64.29777 -23.19327,-124.87225 -66.00195,-168.50585 -14.39444,9.62507 -30.97858,11.68365 -46.25586,11.30664 -17.56059,-0.4334 -34.60265,-4.45699 -49.48828,-10.22266 -5.98198,-2.317 -10.10923,-5.39539 -13.01367,-8.7793 z"
         transform="scale(0.26458333)" />
      <g
         id="path4246"
         transform="translate(2.1166667,-1.8520834)"
         style="fill:#ff9900;fill-opacity:1">
        <path
           style="color:#000000;fill:#ffcb84;fill-opacity:1;stroke-width:13.2292;-inkscape-stroke:none;paint-order:stroke fill markers"
           d="m 176.04653,113.88033 c -0.87571,1.20962 -0.49544,4.0794 0.81634,4.58749 6.52954,2.52909 15.70432,3.62213 20.24499,-0.36699 1.1181,-0.98228 1.29458,-3.60468 0.32653,-4.77098 -5.04895,-6.08292 -16.71642,-5.90221 -21.38786,0.55048 z"
           id="path7772" />
      </g>
      <path
         id="path2903"
         style="fill:#ffcb84;fill-opacity:1;stroke:none;stroke-width:6.604;stroke-linecap:butt;stroke-linejoin:miter;stroke-miterlimit:4;stroke-dasharray:none;stroke-opacity:1"
         d="m 102.3174,210.07341 c -10.344491,14.10743 -21.237762,30.36081 -35.935297,45.12955 -2.431569,2.44335 0.869465,4.2952 2.053621,3.79408 18.37826,-7.77739 59.540326,4.40593 87.955386,21.68756 11.04638,6.71825 25.52081,3.95833 35.54408,-2.40967 13.89291,-8.82646 38.27105,-46.25454 38.27105,-46.25454 -14.90422,3.15027 -85.2771,-5.34047 -127.88884,-21.94698 z"
         sodipodi:nodetypes="cscsscc" />
    </g>
  </g>
</svg>
