<svg version="1.1" xmlns="http://www.w3.org/2000/svg" xmlns:xlink="http://www.w3.org/1999/xlink" width="51.18035" height="61.93637" viewBox="0,0,51.18035,61.93637"><g transform="translate(-214.2934,-149.22466)"><g data-paper-data="{&quot;isPaintingLayer&quot;:true}" fill-rule="nonzero" stroke-linecap="butt" stroke-linejoin="miter" stroke-miterlimit="10" stroke-dasharray="" stroke-dashoffset="0" style="mix-blend-getMode: normal"><path d="M223.20946,193.92934c-0.41687,-2.71277 -4.19733,-26.01089 -4.03215,-31.30773c0.13136,-4.21248 0.84793,-11.9258 0.84793,-11.9258c0,0 16.13645,4.2836 20.24412,4.2836c3.94331,0 19.91597,-4.36288 19.91597,-4.36288c0,0 0.22548,7.65303 -0.22904,12.50061c-0.9628,10.26866 -4.19945,26.02454 -4.68239,30.18166c-0.48294,4.15712 -31.30024,5.60372 -32.06445,0.63054z" fill="#cccccc" stroke="#989898" stroke-width="2"/><path d="M220.86435,209.73896l-0.14187,-35.28539c0,0 4.33517,-7.75605 4.33517,-10.84088c0,-5.0028 -4.1933,-13.31989 -4.1933,-13.31989l10.1276,0.41103c0,0 5.86943,9.70222 8.12558,9.70222c2.77684,0 9.56305,-10.14494 9.56305,-10.14494l10.41677,0.03169c0,0 -4.68662,7.63402 -4.68662,13.07323c0,2.90263 4.06401,11.60538 4.06401,11.60538l0.62261,34.76756c0,0 -11.20426,-3.14509 -19.97982,-2.95998c-9.57762,0.20204 -18.25318,2.95998 -18.25318,2.95998z" fill="#ffffff" stroke="#989898" stroke-width="2"/><text transform="translate(246.92405,201.86861) rotate(7.87529) scale(0.06233,0.06233)" font-size="40" xml:space="preserve" fill="#989898" fill-rule="nonzero" stroke="#d3d3d3" stroke-width="1" stroke-linecap="butt" stroke-linejoin="miter" stroke-miterlimit="10" stroke-dasharray="" stroke-dashoffset="0" font-family="Sans Serif" font-weight="normal" text-anchor="start" style="mix-blend-getMode: normal"><tspan x="0" dy="0">North-We</tspan><tspan x="0" dy="46.15px">Protective</tspan></text><path d="M221.50007,198.33428v-5.28175c0,0 10.16691,-1.61629 18.74012,-1.67643c9.16769,-0.06432 18.50806,1.30394 18.50806,1.30394l-0.24832,5.65424c0,0 -8.82008,-1.5892 -18.33724,-1.51471c-9.61763,0.07528 -18.66262,1.51471 -18.66262,1.51471z" fill="#cccccc" stroke="none" stroke-width="0"/><path d="M220.95443,209.73896l-0.14186,-35.28539c0,0 4.33517,-7.75605 4.33517,-10.84088c0,-5.0028 -4.1933,-13.31989 -4.1933,-13.31989l10.1276,0.41103c0,0 5.86943,9.70222 8.12558,9.70222c2.77684,0 9.56305,-10.14494 9.56305,-10.14494l10.41677,0.03169c0,0 -4.68662,7.63402 -4.68662,13.07323c0,2.90263 4.06401,11.60538 4.06401,11.60538l0.62261,34.76756c0,0 -9.07963,-3.20206 -19.27102,-2.95998c-10.28851,0.24439 -18.96199,2.95998 -18.96199,2.95998z" fill="none" stroke="#989898" stroke-width="2"/><path d="M221.27938,195.77423l-0.16446,-20.15168c0,0 8.80696,-4.64398 18.42515,-4.78609c10.09518,-0.14917 19.01608,4.45574 19.01608,4.45574l0.32891,20.15168c0,0 -8.3848,-1.26171 -18.85164,-1.15149c-8.97167,0.09448 -18.75405,1.48184 -18.75405,1.48184z" fill="none" stroke="#989898" stroke-width="2"/><path d="M226.41114,173.20132c0,0 -0.88633,-6.13101 -1.33662,-9.87664c-0.46001,-3.82644 -3.75396,-12.59642 -3.75396,-12.59642l9.68452,0.12416c0,0 2.42607,6.99739 3.08507,10.33359c0.66532,3.36816 0.88807,9.78042 0.88807,9.78042c0,0 -3.43815,0.63093 -4.69581,0.95549c-1.30646,0.33715 -3.87127,1.2794 -3.87127,1.2794z" fill="none" stroke="#989898" stroke-width="2"/><path d="M249.01965,171.58302c-1.25767,-0.32456 -4.69582,-0.95549 -4.69582,-0.95549c0,0 0.22275,-6.41225 0.88807,-9.78042c0.65901,-3.3362 3.74578,-10.49877 3.74578,-10.49877l9.02381,0.04102c0,0 -3.29395,8.76998 -3.75396,12.59642c-0.45029,3.74563 -1.33662,9.87664 -1.33662,9.87664c0,0 -2.5648,-0.94225 -3.87126,-1.2794z" data-paper-data="{&quot;index&quot;:null}" fill="none" stroke="#989898" stroke-width="2"/><path d="M215.31488,206.52277l0.66071,-20.81238l5.1205,-10.57137l-0.16518,33.69624z" fill="#ffffff" stroke="#989898" stroke-width="2"/><path d="M259.12191,208.21922l-0.15546,-31.7141l4.8193,9.94952l0.62185,19.58812z" data-paper-data="{&quot;index&quot;:null}" fill="#ffffff" stroke="#989898" stroke-width="2"/><path d="M226.87732,191.22815l-0.74183,-2.16563l1.23736,-2.7897c0,0 8.91021,-1.43789 13.21411,-1.49415c4.11133,-0.05374 12.88395,1.16379 12.88395,1.16379l1.29469,2.48626l0.02673,2.13872c0,0 -7.07881,-1.55143 -14.04152,-1.56823c-6.25161,-0.01508 -13.8735,2.22894 -13.8735,2.22894z" fill="#cccccc" stroke="none" stroke-width="0"/><path d="M226.87732,188.75049l2.9732,-10.57136c0,0 7.07608,-2.36648 10.57202,-2.39379c3.55078,-0.02774 10.57071,2.22861 10.57071,2.22861l3.13837,10.40619c0,0 -6.0506,-1.73204 -13.37525,-1.47564c-8.50957,0.29788 -13.87905,1.80599 -13.87905,1.80599z" fill="none" stroke="#989898" stroke-width="1"/><path d="M215.64524,206.44236l0.16517,-6.93746l5.28569,4.95533l-0.49553,4.79015z" fill="#cccccc" stroke="none" stroke-width="0"/><path d="M215.35955,206.40227l0.66071,-20.81238l5.1205,-10.57137l-0.16517,33.69624z" fill="none" stroke="#989898" stroke-width="2"/><path d="M259.62715,207.64328l-0.49553,-4.79015l5.28569,-4.95533l0.16517,6.93746z" data-paper-data="{&quot;index&quot;:null}" fill="#cccccc" stroke="none" stroke-width="0"/><path d="M259.16658,208.09871l-0.15546,-31.71411l4.8193,9.94952l0.62185,19.58813z" data-paper-data="{&quot;index&quot;:null}" fill="none" stroke="#989898" stroke-width="2"/></g></g></svg>