<svg version="1.1" xmlns="http://www.w3.org/2000/svg" xmlns:xlink="http://www.w3.org/1999/xlink" width="41.76552" height="61.93637" viewBox="0,0,41.76552,61.93637"><g transform="translate(-219.20591,-149.22465)"><g data-paper-data="{&quot;isPaintingLayer&quot;:true}" fill-rule="nonzero" stroke-linecap="butt" stroke-linejoin="miter" stroke-miterlimit="10" stroke-dasharray="" stroke-dashoffset="0" style="mix-blend-getMode: normal"><path d="M223.331,175.69923c0,0 5.42662,-7.25822 5.42662,-12.08656c0,-4.21453 -4.93329,-11.09991 -4.93329,-11.09991c0,0 12.17218,2.46665 16.27986,2.46665c3.94331,0 15.78653,-3.20664 15.78653,-3.20664c0,0 -4.1933,7.72381 -4.1933,11.8399c0,4.4854 3.4533,11.59323 3.4533,11.59323z" fill="#cccccc" stroke="#989898" stroke-width="2"/><path d="M220.86435,209.73895l-0.14187,-35.28539c0,0 4.33517,-7.75605 4.33517,-10.84088c0,-5.0028 -4.1933,-13.31989 -4.1933,-13.31989l10.1276,0.41103c0,0 5.86943,9.70222 8.12558,9.70222c2.77684,0 9.56305,-10.14494 9.56305,-10.14494l10.41677,0.03169c0,0 -4.68662,7.63402 -4.68662,13.07323c0,2.90263 4.06401,11.60538 4.06401,11.60538l0.62261,34.76756c0,0 -11.20426,-3.14509 -19.97982,-2.95998c-9.57762,0.20204 -18.25318,2.95998 -18.25318,2.95998z" fill="#ffffff" stroke="#989898" stroke-width="2"/><text transform="translate(246.92405,201.8686) rotate(7.87529) scale(0.06233,0.06233)" font-size="40" xml:space="preserve" fill="#989898" fill-rule="nonzero" stroke="#d3d3d3" stroke-width="1" stroke-linecap="butt" stroke-linejoin="miter" stroke-miterlimit="10" stroke-dasharray="" stroke-dashoffset="0" font-family="Sans Serif" font-weight="normal" text-anchor="start" style="mix-blend-getMode: normal"><tspan x="0" dy="0">North-We</tspan><tspan x="0" dy="46.15px">Protective</tspan></text><path d="M221.50007,198.33427v-5.28175c0,0 10.16691,-1.61629 18.74012,-1.67643c9.16769,-0.06432 18.50806,1.30394 18.50806,1.30394l-0.24832,5.65424c0,0 -8.82008,-1.5892 -18.33724,-1.51471c-9.61763,0.07528 -18.66262,1.51471 -18.66262,1.51471z" fill="#cccccc" stroke="none" stroke-width="0"/><path d="M220.95443,209.73895l-0.14186,-35.28539c0,0 4.33517,-7.75605 4.33517,-10.84088c0,-5.0028 -4.1933,-13.31989 -4.1933,-13.31989l10.1276,0.41103c0,0 5.86943,9.70222 8.12558,9.70222c2.77684,0 9.56305,-10.14494 9.56305,-10.14494l10.41677,0.03169c0,0 -4.68662,7.63402 -4.68662,13.07323c0,2.90263 4.06401,11.60538 4.06401,11.60538l0.62261,34.76756c0,0 -9.07963,-3.20206 -19.27102,-2.95998c-10.28851,0.24439 -18.96199,2.95998 -18.96199,2.95998z" fill="none" stroke="#989898" stroke-width="2"/><path d="M221.27938,195.77422l-0.16446,-20.15168c0,0 8.80696,-4.64398 18.42515,-4.78609c10.09518,-0.14917 19.01608,4.45574 19.01608,4.45574l0.32891,20.15168c0,0 -8.3848,-1.26171 -18.85164,-1.15149c-8.97167,0.09448 -18.75405,1.48184 -18.75405,1.48184z" fill="none" stroke="#989898" stroke-width="2"/><path d="M226.41114,173.20131c0,0 -0.88633,-6.13101 -1.33662,-9.87664c-0.46001,-3.82644 -3.75396,-12.59642 -3.75396,-12.59642l9.68452,0.12416c0,0 2.42607,6.99739 3.08507,10.33359c0.66532,3.36816 0.88807,9.78042 0.88807,9.78042c0,0 -3.43815,0.63093 -4.69581,0.95549c-1.30646,0.33715 -3.87127,1.2794 -3.87127,1.2794z" fill="none" stroke="#989898" stroke-width="2"/><path d="M249.01965,171.58301c-1.25767,-0.32456 -4.69582,-0.95549 -4.69582,-0.95549c0,0 0.22275,-6.41225 0.88807,-9.78042c0.65901,-3.3362 3.08507,-10.33359 3.08507,-10.33359l9.68452,-0.12416c0,0 -3.29395,8.76998 -3.75396,12.59642c-0.45029,3.74563 -1.33662,9.87664 -1.33662,9.87664c0,0 -2.5648,-0.94225 -3.87126,-1.2794z" data-paper-data="{&quot;index&quot;:null}" fill="none" stroke="#989898" stroke-width="2"/></g></g></svg>