<?xml version="1.0" encoding="UTF-8" standalone="no"?>
<!-- Created with Inkscape (http://www.inkscape.org/) -->

<svg
   width="16"
   height="16"
   viewBox="0 0 4.2333333 4.2333333"
   version="1.1"
   id="svg5"
   sodipodi:docname="death.svg"
   inkscape:version="1.2.2 (b0a8486541, 2022-12-01)"
   xmlns:inkscape="http://www.inkscape.org/namespaces/inkscape"
   xmlns:sodipodi="http://sodipodi.sourceforge.net/DTD/sodipodi-0.dtd"
   xmlns="http://www.w3.org/2000/svg"
   xmlns:svg="http://www.w3.org/2000/svg">
  <sodipodi:namedview
     id="namedview7"
     pagecolor="#ffffff"
     bordercolor="#666666"
     borderopacity="1.0"
     inkscape:showpageshadow="2"
     inkscape:pageopacity="0.0"
     inkscape:pagecheckerboard="0"
     inkscape:deskcolor="#d1d1d1"
     inkscape:document-units="mm"
     showgrid="false"
     inkscape:zoom="31.365384"
     inkscape:cx="3.6345801"
     inkscape:cy="8.1937464"
     inkscape:window-width="1920"
     inkscape:window-height="1011"
     inkscape:window-x="0"
     inkscape:window-y="0"
     inkscape:window-maximized="1"
     inkscape:current-layer="layer1" />
  <defs
     id="defs2" />
  <g
     inkscape:label="圖層 1"
     inkscape:groupmode="layer"
     id="layer1">
    <g
       id="g415"
       transform="matrix(1.2245109,0,0,1.2245109,-0.47553159,-0.46836355)">
      <path
         id="rect165"
         style="fill:#808080;fill-opacity:0.988295;stroke-width:5.29167;stroke-linecap:round;stroke-linejoin:round;stroke-miterlimit:1.4"
         d="M 1.0110827,-0.16406799 A 0.11866717,0.11866717 0 0 0 0.97929225,-0.08331292 0.11866717,0.11866717 0 0 0 1.0096211,-0.00401948 0.11866717,0.11866717 0 0 0 0.97929225,0.07527396 0.11866717,0.11866717 0 0 0 1.0980497,0.19403141 0.11866717,0.11866717 0 0 0 1.20146,0.13373917 H 2.1522505 A 0.7717013,0.7717013 0 0 1 2.1135173,-0.13081591 H 1.2065758 a 0.11866717,0.11866717 0 0 0 -0.1085261,-0.0712545 0.11866717,0.11866717 0 0 0 -0.086967,0.0380024 z M 2.814369,-1.9658927 a 0.11866717,0.11866717 0 0 0 -0.022655,0.070158 0.11866717,0.11866717 0 0 0 0.071255,0.108526 v 0.9069416 a 0.7717013,0.7717013 0 0 1 0.2645551,0.0387332 v -0.9507905 a 0.11866717,0.11866717 0 0 0 0.060292,-0.1034103 0.11866717,0.11866717 0 0 0 -0.1187574,-0.1187575 0.11866717,0.11866717 0 0 0 -0.079659,0.030694 0.11866717,0.11866717 0 0 0 -0.078928,-0.030694 0.11866717,0.11866717 0 0 0 -0.096103,0.048599 z M 2.862603,1.071375 v 0.7081598 a 0.11866717,0.11866717 0 0 0 -0.070889,0.1081606 0.11866717,0.11866717 0 0 0 0.1187575,0.1187575 0.11866717,0.11866717 0 0 0 0.079293,-0.030329 0.11866717,0.11866717 0 0 0 0.079293,0.030329 0.11866717,0.11866717 0 0 0 0.118758,-0.1187575 0.11866717,0.11866717 0 0 0 -0.060292,-0.1034103 0.11866717,0.11866717 0 0 0 -3.654e-4,-3.654e-4 V 0.95371372 A 0.30868051,0.30868051 0 0 1 3.1023102,0.98221551 0.30868051,0.30868051 0 0 1 2.862603,1.071375 Z m 1.2021909,-1.20219091 a 0.30868051,0.30868051 0 0 1 -0.08916,0.23970736 0.30868051,0.30868051 0 0 1 -0.028502,0.0248477 H 4.7780692 A 0.11866717,0.11866717 0 0 0 4.8814796,0.19403141 0.11866717,0.11866717 0 0 0 5.000237,0.07527396 0.11866717,0.11866717 0 0 0 4.9699082,-0.00401948 0.11866717,0.11866717 0 0 0 5.000237,-0.08331292 0.11866717,0.11866717 0 0 0 4.8814796,-0.20207038 0.11866717,0.11866717 0 0 0 4.7729535,-0.13081591 Z"
         transform="rotate(45)" />
      <path
         id="path380"
         style="fill:#808080;fill-opacity:0.988295;stroke-width:4.40972;stroke-linecap:round;stroke-linejoin:round;stroke-miterlimit:1.4"
         d="M 2.1166667,1.3229167 A 0.66145831,0.66145831 0 0 0 1.4552083,1.9843751 0.66145831,0.66145831 0 0 0 1.5156698,2.2592937 0.26458332,0.26458332 0 0 0 1.3229167,2.5135417 0.26458332,0.26458332 0 0 0 1.5875,2.778125 0.26458332,0.26458332 0 0 0 1.841748,2.5853719 0.66145831,0.66145831 0 0 0 2.1166667,2.6458334 0.66145831,0.66145831 0 0 0 2.3915853,2.5853719 0.26458332,0.26458332 0 0 0 2.6458333,2.778125 0.26458332,0.26458332 0 0 0 2.9104167,2.5135417 0.26458332,0.26458332 0 0 0 2.7181803,2.2587769 0.66145831,0.66145831 0 0 0 2.778125,1.9843751 0.66145831,0.66145831 0 0 0 2.1166667,1.3229167 Z" />
    </g>
  </g>
</svg>
