<svg version="1.1" viewBox="0.0 0.0 960.0 720.0" fill="none" stroke="none" stroke-linecap="square" stroke-miterlimit="10" xmlns:xlink="http://www.w3.org/1999/xlink" xmlns="http://www.w3.org/2000/svg"><clipPath id="p.0"><path d="m0 0l960.0 0l0 720.0l-960.0 0l0 -720.0z" clip-rule="nonzero"/></clipPath><g clip-path="url(#p.0)"><path fill="#000000" fill-opacity="0.0" d="m0 0l960.0 0l0 720.0l-960.0 0z" fill-rule="evenodd"/><path fill="#654737" d="m101.438324 128.60367l689.1969 0l0 330.58267l-689.1969 0z" fill-rule="evenodd"/><path stroke="#000000" stroke-width="24.0" stroke-linejoin="round" stroke-linecap="butt" d="m101.438324 128.60367l689.1969 0l0 330.58267l-689.1969 0z" fill-rule="evenodd"/><path fill="#000000" fill-opacity="0.0" d="m89.661415 199.2441l696.4409 0" fill-rule="evenodd"/><path stroke="#000000" stroke-width="16.0" stroke-linejoin="round" stroke-linecap="butt" d="m89.661415 199.2441l696.4409 0" fill-rule="evenodd"/><path fill="#000000" fill-opacity="0.0" d="m94.19423 261.29135l696.441 0" fill-rule="evenodd"/><path stroke="#000000" stroke-width="16.0" stroke-linejoin="round" stroke-linecap="butt" d="m94.19423 261.29135l696.441 0" fill-rule="evenodd"/><path fill="#000000" fill-opacity="0.0" d="m94.19423 326.49344l696.441 0" fill-rule="evenodd"/><path stroke="#000000" stroke-width="16.0" stroke-linejoin="round" stroke-linecap="butt" d="m94.19423 326.49344l696.441 0" fill-rule="evenodd"/><path fill="#000000" fill-opacity="0.0" d="m97.81628 390.3386l696.4409 0" fill-rule="evenodd"/><path stroke="#000000" stroke-width="16.0" stroke-linejoin="round" stroke-linecap="butt" d="m97.81628 390.3386l696.4409 0" fill-rule="evenodd"/><path fill="#8c5c42" d="m178.11548 93.28084l79.08661 0l0 424.75592l-79.08661 0z" fill-rule="evenodd"/><path stroke="#000000" stroke-width="16.0" stroke-linejoin="round" stroke-linecap="butt" d="m178.11548 93.28084l79.08661 0l0 424.75592l-79.08661 0z" fill-rule="evenodd"/><path fill="#8c5c42" d="m636.9816 93.28084l79.08661 0l0 428.378l-79.08661 0z" fill-rule="evenodd"/><path stroke="#000000" stroke-width="16.0" stroke-linejoin="round" stroke-linecap="butt" d="m636.9816 93.28084l79.08661 0l0 428.378l-79.08661 0z" fill-rule="evenodd"/><path fill="#bf9000" d="m376.65994 190.6299l-1.7315979 2.678009l-8.6579895 33.14113l-1.4422607 21.088364l0 11.047623l27.128418 0l-1.7315979 -28.788498l-7.2157593 -30.127487l-2.8860168 -8.703506z" fill-rule="evenodd"/><path stroke="#000000" stroke-width="4.0" stroke-linejoin="round" stroke-linecap="butt" d="m376.65994 190.6299l-1.7315979 2.678009l-8.6579895 33.14113l-1.4422607 21.088364l0 11.047623l27.128418 0l-1.7315979 -28.788498l-7.2157593 -30.127487l-2.8860168 -8.703506z" fill-rule="evenodd"/><path fill="#f1c232" d="m364.82843 259.5759l-0.28933716 22.093506l-2.0194397 5.69162l-2.0209656 105.11151l7.2157593 4.686493l24.530243 -0.6694946l3.7525635 -3.3475037l-0.86657715 -104.77762l-2.0194397 -6.359375l-1.1543884 -22.093506z" fill-rule="evenodd"/><path stroke="#000000" stroke-width="4.0" stroke-linejoin="round" stroke-linecap="butt" d="m364.82843 259.5759l-0.28933716 22.093506l-2.0194397 5.69162l-2.0209656 105.11151l7.2157593 4.686493l24.530243 -0.6694946l3.7525635 -3.3475037l-0.86657715 -104.77762l-2.0194397 -6.359375l-1.1543884 -22.093506z" fill-rule="evenodd"/><path fill="#bf9000" d="m555.5125 376.16208l-2.6779785 -1.7315979l-33.141113 -8.6579895l-21.088379 -1.4422302l-11.047638 0l0 27.128387l28.788483 -1.7315979l30.127502 -7.2157593l8.703491 -2.8859863z" fill-rule="evenodd"/><path stroke="#000000" stroke-width="4.0" stroke-linejoin="round" stroke-linecap="butt" d="m555.5125 376.16208l-2.6779785 -1.7315979l-33.141113 -8.6579895l-21.088379 -1.4422302l-11.047638 0l0 27.128387l28.788483 -1.7315979l30.127502 -7.2157593l8.703491 -2.8859863z" fill-rule="evenodd"/><path fill="#f1c232" d="m486.56653 364.3306l-22.093506 -0.28936768l-5.69162 -2.0194397l-105.11151 -2.0209656l-4.686493 7.2157593l0.6694946 24.530243l3.3475037 3.7525635l104.77762 -0.86654663l6.359375 -2.0194397l22.093506 -1.154419z" fill-rule="evenodd"/><path stroke="#000000" stroke-width="4.0" stroke-linejoin="round" stroke-linecap="butt" d="m486.56653 364.3306l-22.093506 -0.28936768l-5.69162 -2.0194397l-105.11151 -2.0209656l-4.686493 7.2157593l0.6694946 24.530243l3.3475037 3.7525635l104.77762 -0.86654663l6.359375 -2.0194397l22.093506 -1.154419z" fill-rule="evenodd"/><path fill="#bf9000" d="m425.65994 190.6299l-1.7315979 2.678009l-8.6579895 33.14113l-1.4422607 21.088364l0 11.047623l27.128418 0l-1.7315979 -28.788498l-7.2157593 -30.127487l-2.8860168 -8.703506z" fill-rule="evenodd"/><path stroke="#000000" stroke-width="4.0" stroke-linejoin="round" stroke-linecap="butt" d="m425.65994 190.6299l-1.7315979 2.678009l-8.6579895 33.14113l-1.4422607 21.088364l0 11.047623l27.128418 0l-1.7315979 -28.788498l-7.2157593 -30.127487l-2.8860168 -8.703506z" fill-rule="evenodd"/><path fill="#f1c232" d="m413.82843 259.5759l-0.28933716 22.093506l-2.0194397 5.69162l-2.0209656 105.11151l7.2157593 4.686493l24.530243 -0.6694946l3.7525635 -3.3475037l-0.86657715 -104.77762l-2.0194397 -6.359375l-1.1543884 -22.093506z" fill-rule="evenodd"/><path stroke="#000000" stroke-width="4.0" stroke-linejoin="round" stroke-linecap="butt" d="m413.82843 259.5759l-0.28933716 22.093506l-2.0194397 5.69162l-2.0209656 105.11151l7.2157593 4.686493l24.530243 -0.6694946l3.7525635 -3.3475037l-0.86657715 -104.77762l-2.0194397 -6.359375l-1.1543884 -22.093506z" fill-rule="evenodd"/><path fill="#bf9000" d="m474.65994 190.6299l-1.7315979 2.678009l-8.6579895 33.14113l-1.4422607 21.088364l0 11.047623l27.128418 0l-1.7315979 -28.788498l-7.2157593 -30.127487l-2.8860168 -8.703506z" fill-rule="evenodd"/><path stroke="#000000" stroke-width="4.0" stroke-linejoin="round" stroke-linecap="butt" d="m474.65994 190.6299l-1.7315979 2.678009l-8.6579895 33.14113l-1.4422607 21.088364l0 11.047623l27.128418 0l-1.7315979 -28.788498l-7.2157593 -30.127487l-2.8860168 -8.703506z" fill-rule="evenodd"/><path fill="#f1c232" d="m462.82843 259.5759l-0.28933716 22.093506l-2.0194397 5.69162l-2.0209656 105.11151l7.2157593 4.686493l24.530243 -0.6694946l3.7525635 -3.3475037l-0.86657715 -104.77762l-2.0194397 -6.359375l-1.1543884 -22.093506z" fill-rule="evenodd"/><path stroke="#000000" stroke-width="4.0" stroke-linejoin="round" stroke-linecap="butt" d="m462.82843 259.5759l-0.28933716 22.093506l-2.0194397 5.69162l-2.0209656 105.11151l7.2157593 4.686493l24.530243 -0.6694946l3.7525635 -3.3475037l-0.86657715 -104.77762l-2.0194397 -6.359375l-1.1543884 -22.093506z" fill-rule="evenodd"/></g></svg>