<?xml version="1.0" encoding="UTF-8" standalone="no"?>
<svg
   version="1.1"
   width="82.32731"
   height="84.08994"
   viewBox="0,0,82.32731,84.08994"
   id="svg44"
   sodipodi:docname="bush.svg"
   inkscape:version="1.2.2 (b0a8486541, 2022-12-01)"
   xmlns:inkscape="http://www.inkscape.org/namespaces/inkscape"
   xmlns:sodipodi="http://sodipodi.sourceforge.net/DTD/sodipodi-0.dtd"
   xmlns="http://www.w3.org/2000/svg"
   xmlns:svg="http://www.w3.org/2000/svg">
  <defs
     id="defs48" />
  <sodipodi:namedview
     id="namedview46"
     pagecolor="#ffffff"
     bordercolor="#666666"
     borderopacity="1.0"
     inkscape:showpageshadow="2"
     inkscape:pageopacity="0.0"
     inkscape:pagecheckerboard="0"
     inkscape:deskcolor="#d1d1d1"
     showgrid="false"
     inkscape:zoom="9.7871395"
     inkscape:cx="37.396014"
     inkscape:cy="52.058112"
     inkscape:window-width="1920"
     inkscape:window-height="1002"
     inkscape:window-x="0"
     inkscape:window-y="0"
     inkscape:window-maximized="1"
     inkscape:current-layer="g40" />
  <g
     transform="translate(-198.88481,-137.58615)"
     id="g42">
    <g
       data-paper-data="{&quot;isPaintingLayer&quot;:true}"
       fill-rule="nonzero"
       stroke-width="2"
       stroke-linecap="butt"
       stroke-linejoin="miter"
       stroke-miterlimit="10"
       stroke-dasharray=""
       stroke-dashoffset="0"
       style="mix-blend-getMode: normal"
       id="g40">
      <path
         d="m 262.22669,176.65924 c 0,13.50766 -10.70892,24.45777 -23.91905,24.45777 -13.21013,0 -23.91905,-10.95011 -23.91905,-24.45777 0,-13.50765 10.70892,-24.45777 23.91905,-24.45777 13.21013,0 23.91905,10.95012 23.91905,24.45777 z"
         fill="#2cff61"
         stroke="#70ca85"
         id="path2" />
      <path
         d="m 235.95159,201.20002 c 6.45734,-0.12833 16.955,-2.89445 16.955,-2.89445 0,0 -9.94602,16.90654 -18.11719,16.17336 -8.63618,-0.7749 -15.97415,-14.54224 -15.97415,-14.54224 0,0 8.21749,1.44057 17.13634,1.26333 z"
         fill="#2cff61"
         stroke="#70ca85"
         id="path4" />
      <path
         d="m 269.96804,165.09947 c 3.59841,5.36332 8.4,18.9 8.4,18.9 0,0 -19.6,0.77087 -23.4,-6.5 -4.01625,-7.68464 6.6,-7.7 6.6,-7.7 0,0 3.42989,-12.10778 8.4,-4.7 z"
         fill="#1bcf48"
         stroke="#279f45"
         id="path6" />
      <path
         d="m 265.01128,195.02925 c 5.02443,6.33818 4,21.7 4,21.7 0,0 -14.6,-5.02913 -18.4,-12.3 -4.01625,-7.68464 1.8,-12.1 1.8,-12.1 0,0 6.99929,-4.36513 12.6,2.7 z"
         fill="#1bcf48"
         stroke="#279f45"
         id="path8" />
      <path
         d="M266.23641,177.00494c4.9475,4.15162 13.32281,15.82001 13.32281,15.82001c0,0 -18.61319,6.18897 -24.2846,0.26102c-5.99416,-6.2653 4.19939,-9.23121 4.19939,-9.23121c0,0 -0.07106,-12.58402 6.7624,-6.84982z"
         fill="#2cff61"
         stroke="#70ca85"
         id="path10" />
      <path
         d="M254.86649,199.64708c0.23152,6.45447 -2.82201,20.48917 -2.82201,20.48917c0,0 -17.06334,-9.67455 -16.46085,-17.85639c0.63678,-8.64745 9.6671,-3.06549 9.6671,-3.06549c0,0 9.29598,-8.48217 9.61576,0.4327z"
         fill="#0de644"
         stroke="#59b56e"
         id="path12" />
      <path
         d="M213.15842,206.52831c2.775,-7.59716 16.40467,-14.75726 16.40467,-14.75726c0,0 3.34823,15.07453 -0.86207,22.11576c-4.4499,7.44193 -11.25497,4.79329 -11.25497,4.79329c0,0 -7.38091,-3.68329 -4.28763,-12.15179z"
         fill="#0de644"
         stroke="#59b56e"
         id="path14" />
      <path
         d="M227.60688,200.78362c-6.89317,4.23103 -22.0225,1.37824 -22.0225,1.37824c0,0 6.73776,-13.89441 14.41062,-16.79833c8.10951,-3.06918 11.7982,3.23302 11.7982,3.23302c0,0 3.49745,7.47076 -4.18632,12.18707z"
         fill="#1bcf48"
         stroke="#279f45"
         id="path16" />
      <path
         d="m 202.59889,182.62191 c 4.84497,-4.27084 17.63486,-10.80656 17.63486,-10.80656 0,0 3.33517,19.32953 -3.37443,24.05043 -7.09142,4.98955 -8.4992,-5.53295 -8.4992,-5.53295 0,0 -12.45308,-1.81206 -5.76123,-7.71091 z"
         fill="#0de644"
         stroke="#59b56e"
         id="path18" />
      <path
         d="M224.53742,172.16447c5.62436,-5.81241 20.98782,-6.81186 20.98782,-6.81186c0,0 -3.07058,15.13353 -9.78017,19.85443c-7.09142,4.98955 -12.23156,-0.19728 -12.23156,-0.19728c0,0 -5.24552,-6.36623 1.02391,-12.84529z"
         fill="#0de644"
         stroke="#59b56e"
         id="path20" />
      <path
         d="m 223.27998,161.41346 c 3.59841,5.36332 11.6,12.7 11.6,12.7 0,0 -19.6,0.77087 -23.4,-6.5 -4.01625,-7.68464 3.6,-21.3 3.6,-21.3 0,0 3.22989,7.69222 8.2,15.1 z"
         fill="#0de644"
         stroke="#59b56e"
         id="path22" />
      <path
         d="M234.34683,150.8602c5.32468,-3.65534 18.80945,-8.60084 18.80945,-8.60084c0,0 0.97961,19.59067 -6.25037,23.46791c-7.64142,4.09788 -7.76986,-6.51761 -7.76986,-6.51761c0,0 -12.14363,-3.30072 -4.78921,-8.34946z"
         fill="#2cff61"
         stroke="#70ca85"
         id="path24" />
      <path
         d="m 265.95456,147.93379 c 5.02443,6.33818 4,21.7 4,21.7 0,0 -14.6,-5.02913 -18.4,-12.3 -4.01625,-7.68464 1.8,-12.1 1.8,-12.1 0,0 6.99929,-4.36513 12.6,2.7 z"
         fill="#0de644"
         stroke="#59b56e"
         id="path26" />
      <path
         d="M259.24627,159.08411c6.45831,-0.06303 20.40857,3.35567 20.40857,3.35567c0,0 -10.11648,16.80508 -18.27982,15.98932c-8.6279,-0.8622 -2.81221,-9.7438 -2.81221,-9.7438c0,0 -8.23673,-9.51414 0.68346,-9.60119z"
         fill="#0de644"
         stroke="#59b56e"
         id="path28" />
      <path
         d="m 228.40365,153.63504 c 4.84497,-4.27084 11.06868,-13.16565 11.06868,-13.16565 0,0 3.33517,19.32953 -3.37443,24.05043 -7.09142,4.98955 -21.58818,-0.77495 -21.58818,-0.77495 0,0 7.20208,-4.21098 13.89392,-10.10984 z"
         fill="#0de644"
         stroke="#59b56e"
         id="path30" />
      <path
         d="m 234.86315,157.33086 c 3.59841,5.36332 11.6,12.7 11.6,12.7 0,0 -19.6,0.77087 -23.4,-6.5 -4.01625,-7.68464 3.6,-21.3 3.6,-21.3 0,0 3.22989,7.69222 8.2,15.1 z"
         fill="#1bcf48"
         stroke="#279f45"
         id="path32" />
      <path
         d="M210.0697,175.00606c-3.9712,-5.09346 -9.72454,-18.25386 -9.72454,-18.25386c0,0 19.49535,-2.16462 23.80346,4.81719c4.55328,7.37913 -6.03493,8.15044 -6.03493,8.15044c0,0 -2.55899,12.32128 -8.04399,5.28623z"
         fill="#2cff61"
         stroke="#70ca85"
         id="path34" />
      <path
         d="m 243.64464,180.57772 c 4.63014,-4.50284 10.41107,-13.69159 10.41107,-13.69159 0,0 4.27718,19.14315 -2.19333,24.18676 -6.83873,5.33064 -21.60023,0.28253 -21.60023,0.28253 0,0 6.98736,-4.55841 13.38249,-10.77771 z"
         fill="#0de644"
         stroke="#59b56e"
         id="path36" />
      <path
         d="M228.9411,166.71588c3.64425,-7.22059 18.01761,-12.73797 18.01761,-12.73797c0,0 1.56271,15.36262 -3.44199,21.86328c-5.28951,6.87059 -11.73821,3.44445 -11.73821,3.44445c0,0 -6.89962,-4.52101 -2.8374,-12.56976z"
         fill="#1bcf48"
         stroke="#279f45"
         id="path38" />
    </g>
  </g>
</svg>
