<svg version="1.1" viewBox="0.0 0.0 300.0 300.0" width="300" height="300" fill="none" stroke="none" stroke-linecap="square" stroke-miterlimit="10" xmlns:xlink="http://www.w3.org/1999/xlink" xmlns="http://www.w3.org/2000/svg"><clipPath id="p.0"><path d="m0 0l300.0 0l0 300.0l-300.0 0l0 -300.0z" clip-rule="nonzero"/></clipPath><g clip-path="url(#p.0)"><path fill="#000000" fill-opacity="0.0" d="m0 0l300.0 0l0 300.0l-300.0 0z" fill-rule="evenodd"/><path fill="#2d7d4a" fill-opacity="0.3188" d="m62.622047 86.18898l23.438316 -23.75066l21.874016 -11.874016l30.939629 -7.813648l23.4357 -0.31233597l31.5643 8.750656l20.312347 11.56168l23.748032 23.750656l11.564301 20.937012l8.123352 30.937012l0 23.750656l-8.123352 30.312332l-12.18898 20.624664l-23.123352 23.438324l-21.564316 12.18898l-30.0 8.748032l-24.372696 0l-31.251968 -8.435699l-20.624672 -11.564301l-23.12336 -23.4357l-11.87664 -20.312332l-8.750656 -32.18898l0 -23.438324l7.5013123 -31.874008z" fill-rule="evenodd"/><path fill="#2d7d4a" fill-opacity="0.75" d="m124.220474 139.32161l15.101135 -15.101135l21.356781 0l15.101135 15.101135l0 21.356781l-15.101135 15.101135l-21.356781 0l-15.101135 -15.101135z" fill-rule="evenodd"/><path fill="#2d7d4a" fill-opacity="0.9" d="m127.46842 186.5842l-127.44882 -36.188965l127.41733 -36.18898z" fill-rule="evenodd"/><path fill="#2d7d4a" fill-opacity="0.9" d="m170.27678 188.24184l-94.67717 92.708664l31.81102 -128.58267z" fill-rule="evenodd"/><path fill="#2d7d4a" fill-opacity="0.9" d="m192.82939 152.31773l32.692917 128.45668l-95.244095 -92.07872z" fill-rule="evenodd"/><path fill="#2d7d4a" fill-opacity="0.9" d="m172.52612 114.2215l127.44882 36.18898l-127.41733 36.188965z" fill-rule="evenodd"/><path fill="#2d7d4a" fill-opacity="0.9" d="m130.37874 111.561676l94.28346 -91.149605l-31.574799 127.24409z" fill-rule="evenodd"/><path fill="#2d7d4a" fill-opacity="0.9" d="m107.78998 147.71227l-32.44094 -128.44095l95.11811 92.157486z" fill-rule="evenodd"/><path fill="#2d7d4a" fill-opacity="0.9" d="m111.839714 170.14664l-91.66929 -94.77165l127.79527 32.09449z" fill-rule="evenodd"/><path fill="#2d7d4a" fill-opacity="0.9" d="m148.05032 193.20714l-127.6378 31.811035l91.51181 -94.48819z" fill-rule="evenodd"/><path fill="#2d7d4a" fill-opacity="0.9" d="m188.90826 130.07114l90.8504 94.157486l-126.976395 -31.448822z" fill-rule="evenodd"/><path fill="#2d7d4a" fill-opacity="0.9" d="m152.76405 107.427734l127.03935 -31.543312l-90.85039 94.251976z" fill-rule="evenodd"/><path fill="#2d7d4a" fill-opacity="0.9" d="m186.61679 172.94768l-36.188965 126.99214l-36.18898 -126.99214z" fill-rule="evenodd"/><path fill="#2d7d4a" fill-opacity="0.9" d="m114.25197 126.70895l36.18898 -126.708664l36.18898 126.708664z" fill-rule="evenodd"/><path fill="#6c3a38" d="m126.92913 150.0l0 0c0 -12.985214 10.526604 -23.51181 23.511818 -23.51181l0 0c6.235718 0 12.216034 2.477127 16.62535 6.886444c4.4093323 4.4093323 6.8864594 10.389648 6.8864594 16.625366l0 0c0 12.985214 -10.526596 23.51181 -23.51181 23.51181l0 0c-12.985214 0 -23.511818 -10.526596 -23.511818 -23.51181z" fill-rule="evenodd"/></g></svg>