<?xml version="1.0" encoding="UTF-8" standalone="no"?>
<svg
   version="1.1"
   viewBox="0 0 720 720"
   fill="none"
   stroke="none"
   stroke-linecap="square"
   stroke-miterlimit="10"
   id="svg17702"
   sodipodi:docname="mosin_nagant.svg"
   inkscape:version="1.2.2 (b0a8486541, 2022-12-01)"
   width="720"
   height="720"
   xmlns:inkscape="http://www.inkscape.org/namespaces/inkscape"
   xmlns:sodipodi="http://sodipodi.sourceforge.net/DTD/sodipodi-0.dtd"
   xmlns="http://www.w3.org/2000/svg"
   xmlns:svg="http://www.w3.org/2000/svg">
  <defs
     id="defs17706" />
  <sodipodi:namedview
     id="namedview17704"
     pagecolor="#ffffff"
     bordercolor="#666666"
     borderopacity="1.0"
     inkscape:showpageshadow="2"
     inkscape:pageopacity="0.0"
     inkscape:pagecheckerboard="0"
     inkscape:deskcolor="#d1d1d1"
     showgrid="false"
     inkscape:zoom="0.80826233"
     inkscape:cx="340.23607"
     inkscape:cy="403.95301"
     inkscape:window-width="1920"
     inkscape:window-height="1002"
     inkscape:window-x="0"
     inkscape:window-y="0"
     inkscape:window-maximized="1"
     inkscape:current-layer="g17700" />
  <clipPath
     id="p.0">
    <path
       d="M 0,0 H 960 V 720 H 0 Z"
       clip-rule="nonzero"
       id="path17659" />
  </clipPath>
  <g
     clip-path="url(#p.0)"
     id="g17700">
    <path
       fill="#000000"
       fill-opacity="0"
       d="m 247.03429,496.58133 v 0 c -1.80728,-1.3711 -2.16052,-3.94742 -0.78902,-5.75439 l 21.84038,-28.77499 c 0.65862,-0.86773 1.63501,-1.43836 2.71442,-1.58638 1.07939,-0.14798 2.17337,0.13875 3.04123,0.79716 l 13.08893,9.93007 c 1.80727,1.37111 2.16053,3.9474 0.78905,5.75437 l -21.84039,28.775 c -1.37151,1.80694 -3.9484,2.1603 -5.75567,0.78919 z"
       fill-rule="evenodd"
       id="path17664"
       style="stroke-width:0.984999" />
    <path
       stroke="#000000"
       stroke-width="3.94"
       stroke-linejoin="round"
       stroke-linecap="butt"
       d="m 247.03429,496.58133 v 0 c -1.80728,-1.3711 -2.16052,-3.94742 -0.78902,-5.75439 l 21.84038,-28.77499 c 0.65862,-0.86773 1.63501,-1.43836 2.71442,-1.58638 1.07939,-0.14798 2.17337,0.13875 3.04123,0.79716 l 13.08893,9.93007 c 1.80727,1.37111 2.16053,3.9474 0.78905,5.75437 l -21.84039,28.775 c -1.37151,1.80694 -3.9484,2.1603 -5.75567,0.78919 z"
       fill-rule="evenodd"
       id="path17666" />
    <path
       fill="#000000"
       fill-opacity="0"
       d="m 253.91047,483.00478 c 3.01333,3.01333 7.09935,4.92092 11.14216,6.26849"
       fill-rule="evenodd"
       id="path17668"
       style="stroke-width:0.984999" />
    <path
       stroke="#000000"
       stroke-width="3.94"
       stroke-linejoin="round"
       stroke-linecap="butt"
       d="m 253.91047,483.00478 c 3.01333,3.01333 7.09935,4.92092 11.14216,6.26849"
       fill-rule="evenodd"
       id="path17670" />
    <path
       fill="#000000"
       fill-opacity="0"
       d="m 218.04347,431.12928 12.54798,9.74001"
       fill-rule="evenodd"
       id="path17672"
       style="stroke-width:0.984999" />
    <path
       stroke="#000000"
       stroke-width="3.94"
       stroke-linejoin="round"
       stroke-linecap="butt"
       d="m 218.04347,431.12928 12.54798,9.74001"
       fill-rule="evenodd"
       id="path17674" />
    <path
       fill="#b7b7b7"
       d="m 210.90208,430.94372 v 0 c -2.40492,-2.40493 -2.4835,-6.22549 -0.1755,-8.5335 v 0 c 1.10833,-1.10833 2.63004,-1.7125 4.23039,-1.67957 1.60035,0.0329 3.14822,0.70018 4.30311,1.85507 v 0 c 2.40491,2.40492 2.48347,6.2255 0.17549,8.53348 v 0 c -2.308,2.30801 -6.12858,2.22943 -8.53349,-0.17548 z"
       fill-rule="evenodd"
       id="path17676"
       style="stroke-width:0.984999" />
    <path
       stroke="#000000"
       stroke-width="3.94"
       stroke-linejoin="round"
       stroke-linecap="butt"
       d="m 210.90208,430.94372 v 0 c -2.40492,-2.40493 -2.4835,-6.22549 -0.1755,-8.5335 v 0 c 1.10833,-1.10833 2.63004,-1.7125 4.23039,-1.67957 1.60035,0.0329 3.14822,0.70018 4.30311,1.85507 v 0 c 2.40491,2.40492 2.48347,6.2255 0.17549,8.53348 v 0 c -2.308,2.30801 -6.12858,2.22943 -8.53349,-0.17548 z"
       fill-rule="evenodd"
       id="path17678" />
    <path
       fill="#8c5c42"
       d="m 66.380226,668.44918 148.005264,-205.81655 12.53699,4.179 67.56046,-85.66945 -1.39299,-6.26668 309.24586,-321.782843 19.15282,17.759826 -199.54625,203.725247 2.43866,5.22466 -183.87773,215.21838 -110.74344,211.03939 z"
       fill-rule="evenodd"
       id="path17680"
       style="stroke-width:0.984999" />
    <path
       stroke="#000000"
       stroke-width="7.87999"
       stroke-linejoin="round"
       stroke-linecap="butt"
       d="m 66.380226,668.44918 148.005264,-205.81655 12.53699,4.179 67.56046,-85.66945 -1.39299,-6.26668 309.24586,-321.782843 19.15282,17.759826 -199.54625,203.725247 2.43866,5.22466 -183.87773,215.21838 -110.74344,211.03939 z"
       fill-rule="evenodd"
       id="path17682" />
    <path
       fill="#999999"
       d="m 217.16416,457.05697 4.179,-6.27033 73.13247,-81.49045 2.78599,11.14399 -66.86397,82.88529 z"
       fill-rule="evenodd"
       id="path17684"
       style="stroke-width:0.984999" />
    <path
       stroke="#000000"
       stroke-width="3.94"
       stroke-linejoin="round"
       stroke-linecap="butt"
       d="m 217.16416,457.05697 4.179,-6.27033 73.13247,-81.49045 2.78599,11.14399 -66.86397,82.88529 z"
       fill-rule="evenodd"
       id="path17686" />
    <path
       fill="#666666"
       d="m 277.04119,461.21402 13.23349,8.35618 28.90382,-41.44082 4.52817,-26.81615 -48.40582,54.67613 z"
       fill-rule="evenodd"
       id="path17688"
       style="stroke-width:0.984999" />
    <path
       stroke="#000000"
       stroke-width="3.94"
       stroke-linejoin="round"
       stroke-linecap="butt"
       d="m 277.04119,461.21402 13.23349,8.35618 28.90382,-41.44082 4.52817,-26.81615 -48.40582,54.67613 z"
       fill-rule="evenodd"
       id="path17690" />
    <path
       fill="#999999"
       d="m 605.44171,52.019561 40.74431,-40.049643 9.40365,9.403659 -39.35314,38.654816 z"
       fill-rule="evenodd"
       id="path17692"
       style="stroke-width:0.984999" />
    <path
       stroke="#000000"
       stroke-width="3.94"
       stroke-linejoin="round"
       stroke-linecap="butt"
       d="m 605.44171,52.019561 40.74431,-40.049643 9.40365,9.403659 -39.35314,38.654816 z"
       fill-rule="evenodd"
       id="path17694" />
    <path
       fill="#000000"
       fill-opacity="0"
       d="m 624.24535,14.408608 9.41095,10.112977"
       fill-rule="evenodd"
       id="path17696"
       style="stroke-width:0.984999" />
    <path
       stroke="#000000"
       stroke-width="3.94"
       stroke-linejoin="round"
       stroke-linecap="butt"
       d="m 624.24535,14.408608 9.41095,10.112977"
       fill-rule="evenodd"
       id="path17698" />
  </g>
</svg>
