<?xml version="1.0" encoding="UTF-8" standalone="no"?>
<svg
   version="1.0"
   width="512.000000pt"
   height="512.000000pt"
   viewBox="0 0 512.000000 512.000000"
   preserveAspectRatio="xMidYMid meet"
   id="svg14"
   sodipodi:docname="2302405.svg"
   inkscape:version="1.2.2 (b0a8486541, 2022-12-01)"
   xmlns:inkscape="http://www.inkscape.org/namespaces/inkscape"
   xmlns:sodipodi="http://sodipodi.sourceforge.net/DTD/sodipodi-0.dtd"
   xmlns="http://www.w3.org/2000/svg"
   xmlns:svg="http://www.w3.org/2000/svg">
  <defs
     id="defs18" />
  <sodipodi:namedview
     id="namedview16"
     pagecolor="#5a5a5a"
     bordercolor="#666666"
     borderopacity="1.0"
     inkscape:showpageshadow="2"
     inkscape:pageopacity="0"
     inkscape:pagecheckerboard="0"
     inkscape:deskcolor="#d1d1d1"
     inkscape:document-units="pt"
     showgrid="false"
     inkscape:zoom="1.2055664"
     inkscape:cx="373.26853"
     inkscape:cy="347.96922"
     inkscape:window-width="1920"
     inkscape:window-height="1002"
     inkscape:window-x="0"
     inkscape:window-y="0"
     inkscape:window-maximized="1"
     inkscape:current-layer="g12" />
  <g
     transform="translate(0.000000,512.000000) scale(0.100000,-0.100000)"
     fill="#000000"
     stroke="none"
     id="g12">
    <path
       d="M 2062,4943 C 2034,4919 1549,4163 1438,3970 916,3063 664,1987 730,955 c 9,-133 14,-168 33,-205 44,-86 160,-131 251,-96 55,21 112,82 125,133 5,21 11,142 14,268 21,917 298,1842 784,2618 l 55,87 h 90 91 l -27,-32 c -74,-93 -211,-312 -274,-439 -183,-372 -265,-722 -264,-1134 0,-333 67,-623 208,-907 104,-208 170,-303 388,-553 L 2350,526 V 372 218 l 29,-29 29,-29 h 576 c 400,0 582,3 599,11 40,18 47,49 47,212 l 1,152 145,165 c 79,91 172,203 205,250 258,360 389,765 389,1204 0,602 -207,1173 -592,1633 l -68,82 v 200 200 l 148,75 c 110,56 152,82 160,101 16,36 16,438 0,468 -25,48 12,46 -989,47 -887,0 -948,-1 -967,-17 z"
       id="path951"
       transform="translate(0,-2.5000001e-5)"
       sodipodi:nodetypes="cccccccccccccccccccccscccccsccccccccc"
       style="fill:#ffffff;fill-opacity:1" />
    <path
       d="M2062 4943 c-28 -24 -513 -780 -624 -973 -522 -907 -774 -1983 -708 -3015 9 -133 14 -168 33 -205 44 -86 160 -131 251 -96 55 21 112 82 125 133 5 21 11 142 14 268 21 917 298 1842 784 2618 l55 87 90 0 91 0 -27 -32 c-74 -93 -211 -312 -274 -439 -183 -372 -265 -722 -264 -1134 0 -333 67 -623 208 -907 104 -208 170 -303 388 -553 l146 -169 0 -154 0 -154 29 -29 29 -29 576 0 c400 0 582 3 599 11 40 18 47 49 47 212 l1 152 145 165 c79 91 172 203 205 250 258 360 389 765 389 1204 0 602 -207 1173 -592 1633 l-68 82 0 200 0 200 148 75 c110 56 152 82 160 101 16 36 16 438 0 468 -25 48 12 46 -989 47 -887 0 -948 -1 -967 -17z m1798 -278 l0 -135 -70 -35 c-38 -19 -72 -35 -75 -35 -3 0 -5 77 -5 170 l0 170 75 0 75 0 0 -135z m-630 -465 l0 -280 -400 0 -400 0 0 23 c0 15 23 45 66 87 36 36 72 77 80 92 10 20 14 69 14 193 l0 165 320 0 320 0 0 -280z m320 0 l0 -280 -80 0 -80 0 0 280 0 280 80 0 80 0 0 -280z m91 -502 c80 -96 154 -198 213 -295 l53 -88 -76 -17 c-284 -64 -603 -93 -940 -85 -272 7 -416 21 -659 68 l-162 31 32 59 c39 71 134 204 220 311 l63 77 602 1 602 0 52 -62z m-1535 -564 l82 -17 -13 -31 c-7 -17 -27 -83 -45 -146 -18 -63 -34 -116 -35 -118 -1 -1 -50 5 -108 15 -68 11 -107 21 -107 29 0 17 53 167 85 237 19 45 29 57 43 53 9 -3 54 -13 98 -22z m1914 -51 c32 -76 80 -210 80 -223 0 -4 -39 -12 -87 -19 -49 -7 -98 -15 -110 -18 -19 -4 -23 1 -33 39 -7 23 -27 90 -46 148 -18 57 -32 105 -31 106 3 2 171 42 183 43 6 0 26 -34 44 -76z m-1545 -12 c50 -5 115 -13 146 -16 l56 -6 -40 -137 c-22 -75 -41 -138 -42 -140 -3 -4 -232 15 -287 24 -24 4 -38 11 -38 20 0 8 19 73 42 144 33 102 45 129 57 126 9 -3 57 -9 106 -15z m1186 -102 c56 -175 56 -166 11 -173 -68 -11 -285 -26 -290 -21 -7 6 -82 268 -79 272 2 1 68 10 147 19 80 9 147 18 149 20 14 14 29 -15 62 -117z m-494 -66 l41 -138 -216 -3 c-118 -1 -216 -1 -218 1 -4 4 15 73 50 190 l27 87 138 0 137 0 41 -137z m-1193 -234 l88 -12 -6 -36 c-3 -20 -11 -90 -17 -156 -5 -66 -13 -145 -17 -175 l-7 -55 -124 14 -123 14 7 76 c9 100 33 266 46 315 9 35 13 38 38 33 15 -3 66 -11 115 -18z m2184 -31 c20 -91 32 -180 40 -279 l7 -97 -105 -11 c-58 -7 -115 -14 -127 -17 -22 -4 -23 -2 -23 63 0 66 -25 312 -35 344 -4 12 13 18 97 31 57 8 110 16 119 17 11 1 19 -14 27 -51z m-1738 -21 l135 -12 -1 -35 c0 -19 -5 -81 -12 -138 -7 -56 -12 -137 -12 -178 l0 -76 -47 6 c-27 3 -104 11 -172 17 l-124 12 7 106 c8 110 22 236 32 284 7 31 -4 31 194 14z m1339 -64 c7 -43 15 -137 18 -209 l6 -131 -114 -12 c-63 -6 -137 -14 -164 -17 l-51 -5 -13 163 c-7 90 -16 183 -21 208 -10 54 -5 59 70 61 30 1 82 5 115 9 33 4 79 8 101 9 l42 1 11 -77z m-502 -48 c6 -44 15 -137 19 -206 l7 -126 -145 -5 c-80 -3 -213 -3 -296 0 l-151 5 4 46 c3 25 7 84 9 129 3 46 11 121 17 165 l11 82 257 -5 256 -5 12 -80z m-1362 -425 c144 -17 131 -7 139 -107 3 -49 12 -126 20 -171 l13 -84 -31 6 c-17 3 -75 10 -128 17 l-97 11 -10 52 c-13 65 -31 211 -31 253 0 38 -4 37 125 23z m2309 -52 c-12 -137 -37 -278 -48 -278 -7 0 -63 -7 -126 -15 -62 -8 -115 -14 -116 -12 -2 2 1 30 6 63 5 32 15 106 20 164 6 57 13 107 16 110 6 5 170 27 221 29 l33 1 -6 -62z m-1862 2 c57 -6 121 -13 144 -16 l40 -5 17 -154 c9 -84 20 -161 24 -170 5 -16 -1 -17 -78 -11 -103 9 -241 25 -245 29 -7 6 -34 181 -40 257 -8 93 -23 86 138 70z m1434 -42 c-4 -29 -14 -106 -23 -170 l-16 -117 -36 -5 c-71 -11 -283 -27 -288 -22 -3 3 0 34 6 69 6 35 14 104 17 154 4 51 10 97 14 103 6 10 192 34 298 39 l34 1 -6 -52z m-503 -45 c-2 -32 -11 -103 -19 -157 -8 -55 -14 -105 -14 -113 0 -10 -49 -13 -249 -13 l-249 0 -11 68 c-15 92 -30 211 -31 245 l0 27 289 0 290 0 -6 -57z m-1159 -433 c5 -19 22 -75 37 -125 16 -49 27 -91 25 -92 -5 -6 -210 27 -218 35 -7 7 -81 190 -92 228 l-6 20 122 -15 122 -16 10 -35z m1987 18 c-10 -29 -33 -87 -50 -129 l-32 -76 -77 -12 c-42 -6 -92 -14 -110 -17 -25 -4 -33 -2 -30 8 1 7 18 65 37 129 l34 116 121 15 c67 8 122 16 123 17 1 0 -6 -23 -16 -51z m-1586 -24 l90 -7 31 -106 c17 -58 35 -114 39 -125 8 -18 3 -18 -117 -11 -198 11 -185 5 -223 110 -18 50 -36 105 -40 124 l-7 34 68 -6 c38 -4 110 -9 159 -13z m1173 4 c-3 -7 -22 -63 -42 -124 l-37 -112 -42 -6 c-86 -12 -267 -19 -267 -10 0 5 11 43 24 84 14 41 30 94 36 116 l10 42 113 9 c171 15 210 15 205 1z m-504 -50 c-3 -18 -21 -73 -38 -123 l-31 -90 -127 -3 -126 -3 -37 113 c-20 62 -38 119 -40 126 -4 9 41 12 201 12 l206 0 -8 -32z m-859 -353 c448 -47 963 -43 1428 11 76 9 141 14 144 10 10 -9 -95 -146 -246 -320 l-144 -166 -518 0 -519 0 -150 172 c-83 95 -173 206 -202 247 l-51 74 59 -7 c32 -3 122 -13 199 -21z"
       id="path2" />
    <path
       d="M2420 3520 l0 -80 85 0 85 0 0 80 0 80 -85 0 -85 0 0 -80z"
       id="path4" />
    <path
       d="M3380 3520 l0 -80 85 0 85 0 0 80 0 80 -85 0 -85 0 0 -80z"
       id="path6" />
    <path
       d="M2420 880 l0 -80 85 0 85 0 0 80 0 80 -85 0 -85 0 0 -80z"
       id="path8" />
    <path
       d="M3380 880 l0 -80 85 0 85 0 0 80 0 80 -85 0 -85 0 0 -80z"
       id="path10" />
  </g>
</svg>
