<?xml version="1.0" standalone="no"?>
<!DOCTYPE svg PUBLIC "-//W3C//DTD SVG 20010904//EN"
 "http://www.w3.org/TR/2001/REC-SVG-20010904/DTD/svg10.dtd">
<svg version="1.0" xmlns="http://www.w3.org/2000/svg"
 width="1042.000000pt" height="1280.000000pt" viewBox="0 0 1042.000000 1280.000000"
 preserveAspectRatio="xMidYMid meet">

<g transform="translate(0.000000,1280.000000) scale(0.100000,-0.100000)"
fill="#000000" stroke="none">
<path d="M4998 12785 c-1061 -93 -2091 -581 -3027 -1435 -142 -129 -427 -418
-452 -457 -11 -18 -20 -56 -23 -105 -5 -75 -3 -84 69 -310 40 -128 77 -241 80
-250 5 -13 -16 -20 -142 -42 -308 -56 -357 -71 -405 -122 -46 -50 -52 -123
-33 -372 l17 -213 -22 -46 c-12 -26 -53 -130 -91 -231 l-69 -185 0 -962 c0
-903 1 -964 18 -983 9 -11 104 -72 210 -137 106 -65 191 -119 190 -120 -2 -2
-100 -18 -218 -35 -201 -30 -217 -34 -244 -60 l-29 -28 12 -409 c6 -224 16
-541 21 -703 5 -162 14 -448 20 -635 6 -187 15 -482 20 -655 5 -173 14 -466
20 -650 12 -387 25 -808 40 -1305 19 -604 25 -835 22 -835 -2 0 -91 60 -198
133 -107 72 -247 168 -312 212 -65 44 -162 111 -216 148 -54 38 -100 67 -102
64 -2 -2 88 -230 201 -507 113 -277 203 -505 201 -507 -2 -2 -123 61 -270 141
-146 81 -268 146 -271 146 -18 0 24 -57 278 -374 156 -194 287 -358 291 -365
4 -6 -17 -1 -46 13 -29 13 -114 51 -188 84 -74 33 -166 74 -203 91 l-69 31 27
-47 c64 -112 219 -335 297 -428 200 -237 343 -302 612 -275 223 22 327 52 491
144 269 150 336 176 450 176 105 0 159 -28 288 -150 176 -165 206 -183 341
-211 109 -23 199 -24 299 -5 95 18 115 29 213 112 130 111 175 118 337 54 221
-88 269 -77 397 90 82 107 111 130 167 130 25 0 60 -7 79 -16 19 -9 87 -72
151 -140 135 -144 183 -174 291 -181 77 -6 152 6 237 38 53 19 76 38 200 164
152 153 202 187 280 187 57 0 208 -50 350 -115 200 -92 265 -77 413 97 48 56
105 117 128 134 l41 32 146 0 c175 0 237 -16 417 -110 243 -127 338 -171 414
-190 150 -38 215 -24 353 78 129 96 158 107 278 106 170 -1 385 -60 570 -155
163 -84 228 -109 306 -116 102 -9 124 3 239 127 162 175 214 170 346 -31 79
-119 115 -151 219 -199 132 -61 182 -74 275 -74 169 0 225 61 281 304 48 212
57 230 212 440 150 204 197 312 197 450 0 93 -52 386 -104 590 -63 244 -121
433 -135 438 -8 3 -11 -93 -11 -367 0 -204 -3 -371 -8 -371 -4 0 -41 44 -83
97 -189 244 -219 318 -219 536 0 118 -19 213 -51 258 -19 26 -19 66 -19 1644
l0 1617 -115 133 c-63 74 -115 139 -115 146 0 6 45 132 100 279 l99 268 7
1269 6 1268 -131 460 c-73 253 -141 490 -152 526 -17 58 -37 89 -152 235 -73
93 -136 174 -140 180 -4 7 -16 150 -27 320 -11 170 -24 311 -28 315 -4 3 -50
44 -102 90 -556 494 -1071 850 -1625 1124 -256 126 -412 191 -650 272 -586
198 -1198 277 -1767 228z m647 -245 c159 -11 456 -49 475 -60 9 -6 0 -29 -36
-86 -126 -202 -295 -395 -408 -462 -120 -73 -243 -82 -1151 -82 -432 0 -776
-4 -825 -10 -211 -25 -295 -70 -400 -211 -80 -108 -203 -360 -182 -373 4 -2
50 45 102 105 90 104 173 184 267 257 107 83 230 109 473 98 141 -5 345 -28
356 -39 2 -2 -106 -127 -241 -278 -141 -157 -279 -321 -322 -384 -96 -139
-190 -260 -238 -305 l-36 -35 -132 1 c-76 0 -234 12 -371 28 l-238 28 -62 -33
c-102 -54 -326 -206 -326 -221 0 -14 20 -10 269 51 l240 58 150 -50 150 -50
-115 -119 c-208 -217 -283 -330 -338 -509 -26 -85 -86 -333 -86 -356 0 -31 21
-8 47 50 60 136 207 425 250 491 50 78 161 219 291 369 l84 97 62 0 c84 0 181
17 225 39 55 29 166 136 252 243 l77 97 7 -62 c13 -127 47 -311 71 -385 49
-152 149 -289 427 -585 l107 -115 44 -197 c43 -191 50 -214 61 -203 3 3 8 115
11 249 3 134 6 258 8 274 l2 30 120 -3 c65 -1 143 -5 173 -9 111 -12 42 23
-265 135 -295 107 -311 114 -347 155 -162 181 -247 465 -247 821 l0 131 108
50 c128 59 265 148 317 206 34 38 115 191 115 217 0 14 68 20 305 27 313 9
527 27 733 61 87 15 97 19 165 71 92 71 228 189 428 370 l158 143 798 -741
798 -741 97 -266 c56 -156 202 -513 351 -859 l255 -591 11 -619 c6 -340 16
-953 22 -1363 l12 -745 -113 -247 -113 -247 55 -93 c30 -51 88 -151 130 -223
l76 -130 6 -2040 7 -2040 -223 -222 -223 -222 -340 34 c-254 26 -372 43 -466
66 l-126 31 -83 189 c-46 104 -86 189 -89 189 -3 0 -91 -99 -196 -219 -188
-216 -190 -219 -196 -188 -4 18 -33 236 -65 485 -32 248 -61 452 -64 452 -3
-1 -176 -271 -384 -600 l-380 -600 -310 1 c-171 1 -410 4 -530 8 l-220 6 -75
373 c-42 205 -80 371 -85 369 -12 -4 -8 10 -117 -399 l-93 -347 -405 6 c-223
3 -409 10 -412 15 -3 5 -77 248 -164 541 -87 293 -162 536 -166 541 -5 5 -11
7 -14 4 -3 -2 -41 -234 -85 -514 -44 -280 -83 -524 -86 -543 l-7 -34 -621 7
c-341 4 -621 8 -622 9 -3 3 -34 468 -34 500 0 15 -3 27 -7 27 -5 0 -57 -39
-118 -86 -78 -61 -111 -82 -113 -71 -2 9 -20 116 -41 239 l-39 223 -24 -55
c-13 -30 -94 -216 -179 -412 l-154 -358 -62 0 -63 0 0 63 c0 34 -5 195 -10
357 -5 162 -14 444 -20 625 -5 182 -14 483 -20 670 -69 2191 -128 4151 -125
4153 2 2 122 21 267 43 144 22 268 41 275 44 6 2 16 25 22 52 9 41 8 50 -7 61
-9 7 -125 79 -256 160 l-239 146 5 931 6 932 67 179 c37 98 76 196 86 216 23
45 24 136 5 338 -7 74 -12 136 -12 136 1 2 577 54 598 54 10 0 30 18 44 40
l26 39 -112 355 c-61 196 -110 360 -108 365 4 13 253 247 388 367 463 407 907
711 1390 953 355 177 656 290 1001 375 266 66 433 91 784 119 93 8 340 6 470
-3z m1400 -335 c441 -184 938 -490 1337 -824 138 -116 369 -333 451 -424 l70
-78 9 -237 c5 -130 11 -250 14 -267 4 -30 34 -64 245 -280 l88 -90 147 -485
146 -484 -12 -1236 -13 -1235 -112 -305 c-84 -229 -111 -313 -107 -338 3 -25
30 -57 127 -150 l123 -118 -8 -1100 c-5 -604 -12 -1601 -16 -2216 l-7 -1116
-237 -237 -237 -237 -8 2363 -7 2364 -105 180 c-59 99 -110 187 -116 195 -6
11 18 73 88 225 l96 210 0 145 c-1 80 -10 718 -22 1419 l-21 1274 -265 616
c-173 402 -301 715 -367 901 l-103 285 -736 685 c-405 377 -744 693 -753 702
-18 18 151 -40 311 -107z"/>
<path d="M2650 8950 c-63 -5 -180 -13 -260 -18 -163 -11 -234 -30 -279 -74
-71 -70 -52 -180 42 -245 34 -24 52 -28 150 -34 62 -4 178 -8 260 -8 l147 -1
0 -42 c0 -24 7 -319 15 -655 l15 -613 24 -48 c28 -54 85 -111 133 -131 68 -28
147 17 177 102 9 25 21 136 31 277 9 129 18 236 19 238 8 7 173 -61 228 -94
127 -77 260 -225 383 -427 l60 -97 90 -45 c182 -91 245 -48 245 167 l0 87
-195 270 -196 270 42 53 c49 62 121 209 140 288 21 87 17 242 -9 325 -72 233
-262 381 -566 441 -96 19 -516 27 -696 14z m698 -417 c58 -27 118 -97 161
-186 54 -111 57 -123 30 -130 -12 -3 -91 -12 -175 -18 -130 -11 -168 -11 -241
2 l-88 14 1 45 c1 101 59 214 133 262 53 33 123 38 179 11z"/>
<path d="M5983 8910 c-114 -24 -206 -95 -231 -178 -17 -55 -14 -128 6 -187
l17 -50 60 -6 c33 -4 121 -7 195 -8 l135 -1 1 -293 c1 -266 40 -944 60 -1040
8 -38 58 -93 108 -119 60 -31 160 -31 203 0 18 13 36 35 40 50 5 15 8 163 8
330 0 166 2 302 5 302 40 2 397 73 430 86 64 25 146 84 193 140 46 57 99 163
123 249 24 88 30 301 10 394 -31 147 -108 265 -204 313 l-47 23 -535 2 c-294
1 -554 -2 -577 -7z m788 -404 c193 -41 275 -151 203 -273 -54 -93 -261 -183
-420 -183 -29 0 -32 4 -45 48 -18 60 -18 253 0 350 l13 72 91 0 c51 0 122 -7
158 -14z"/>
<path d="M4875 8875 c-39 -20 -75 -74 -82 -124 -10 -71 5 -124 58 -207 l50
-79 -3 -645 -2 -644 59 -19 c71 -22 207 -19 266 6 l36 15 6 584 7 584 -36 125
c-40 138 -97 270 -144 329 -33 42 -119 90 -159 90 -15 0 -39 -7 -56 -15z"/>
</g>
</svg>
