<svg version="1.1" viewBox="0.0 0.0 960.0 720.0" fill="none" stroke="none" stroke-linecap="square" stroke-miterlimit="10" xmlns:xlink="http://www.w3.org/1999/xlink" xmlns="http://www.w3.org/2000/svg"><clipPath id="p.0"><path d="m0 0l960.0 0l0 720.0l-960.0 0l0 -720.0z" clip-rule="nonzero"/></clipPath><g clip-path="url(#p.0)"><path fill="#000000" fill-opacity="0.0" d="m0 0l960.0 0l0 720.0l-960.0 0z" fill-rule="evenodd"/><path fill="#990000" d="m393.95276 221.16011l0 0c0 -51.914764 42.578766 -94.00001 95.102356 -94.00001l0 0c25.222717 0 49.412354 9.903542 67.24756 27.53196c17.835144 17.628418 27.854797 41.53769 27.854797 66.46805l0 0c0 51.91475 -42.578796 93.999985 -95.102356 93.999985l0 0c-52.52359 0 -95.102356 -42.085236 -95.102356 -93.999985z" fill-rule="evenodd"/><path stroke="#000000" stroke-width="8.0" stroke-linejoin="round" stroke-linecap="butt" d="m393.95276 221.16011l0 0c0 -51.914764 42.578766 -94.00001 95.102356 -94.00001l0 0c25.222717 0 49.412354 9.903542 67.24756 27.53196c17.835144 17.628418 27.854797 41.53769 27.854797 66.46805l0 0c0 51.91475 -42.578796 93.999985 -95.102356 93.999985l0 0c-52.52359 0 -95.102356 -42.085236 -95.102356 -93.999985z" fill-rule="evenodd"/><path fill="#ffd966" d="m429.90823 269.33493l59.118103 -104.81889l59.118134 104.81889z" fill-rule="evenodd"/><path stroke="#000000" stroke-width="4.0" stroke-linejoin="round" stroke-linecap="butt" d="m429.90823 269.33493l59.118103 -104.81889l59.118134 104.81889z" fill-rule="evenodd"/><path fill="#000000" fill-opacity="0.0" d="m488.62738 252.91043l-0.28344727 -10.64566" fill-rule="evenodd"/><path stroke="#000000" stroke-width="8.0" stroke-linejoin="round" stroke-linecap="butt" d="m488.62738 252.91043l-0.28344727 -10.64566" fill-rule="evenodd"/><path fill="#000000" fill-opacity="0.0" d="m488.48816 195.66173l0 40.220474" fill-rule="evenodd"/><path stroke="#000000" stroke-width="8.0" stroke-linejoin="round" stroke-linecap="butt" d="m488.48816 195.66173l0 40.220474" fill-rule="evenodd"/><path fill="#141313" d="m523.3588 177.13744l0 0c0 -7.314514 6.0494385 -13.244095 13.51178 -13.244095l0 0c3.5835571 0 7.0203857 1.3953552 9.554321 3.8791046c2.5339355 2.4837494 3.9575195 5.8524475 3.9575195 9.36499l0 0c0 7.314514 -6.0494385 13.244095 -13.511841 13.244095l0 0c-7.4623413 0 -13.51178 -5.9295807 -13.51178 -13.244095z" fill-rule="evenodd"/><path stroke="#000000" stroke-width="4.0" stroke-linejoin="round" stroke-linecap="butt" d="m523.3588 177.13744l0 0c0 -7.314514 6.0494385 -13.244095 13.51178 -13.244095l0 0c3.5835571 0 7.0203857 1.3953552 9.554321 3.8791046c2.5339355 2.4837494 3.9575195 5.8524475 3.9575195 9.36499l0 0c0 7.314514 -6.0494385 13.244095 -13.511841 13.244095l0 0c-7.4623413 0 -13.51178 -5.9295807 -13.51178 -13.244095z" fill-rule="evenodd"/><path fill="#660000" d="m439.9219 167.06796l-8.841217 5.298523l-18.23352 19.064697l0 9.001389l-3.3183594 18.002777l8.2901 6.354904l5.522827 -3.1746826l10.500397 -13.7717285l3.8694763 -10.591492l1.6591492 -16.412659l3.863678 -7.9450226z" fill-rule="evenodd"/><path stroke="#000000" stroke-width="4.0" stroke-linejoin="round" stroke-linecap="butt" d="m439.9219 167.06796l-8.841217 5.298523l-18.23352 19.064697l0 9.001389l-3.3183594 18.002777l8.2901 6.354904l5.522827 -3.1746826l10.500397 -13.7717285l3.8694763 -10.591492l1.6591492 -16.412659l3.863678 -7.9450226z" fill-rule="evenodd"/><path fill="#660000" d="m508.43848 293.1076l5.522827 -3.1802063l1.6591797 -6.883087l4.9717407 -2.6464844l17.682373 2.1182861l-8.284241 7.4112854l-10.500366 5.298523l-17.131317 11.647858z" fill-rule="evenodd"/><path stroke="#000000" stroke-width="4.0" stroke-linejoin="round" stroke-linecap="butt" d="m508.43848 293.1076l5.522827 -3.1802063l1.6591797 -6.883087l4.9717407 -2.6464844l17.682373 2.1182861l-8.284241 7.4112854l-10.500366 5.298523l-17.131317 11.647858z" fill-rule="evenodd"/><path fill="#000000" fill-opacity="0.0" d="m592.7507 159.75066l144.0 0l0 42.015747l-144.0 0z" fill-rule="evenodd"/></g></svg>