<svg version="1.1" viewBox="0.0 0.0 960.0 720.0" fill="none" stroke="none" stroke-linecap="square" stroke-miterlimit="10" xmlns:xlink="http://www.w3.org/1999/xlink" xmlns="http://www.w3.org/2000/svg"><clipPath id="p.0"><path d="m0 0l960.0 0l0 720.0l-960.0 0l0 -720.0z" clip-rule="nonzero"/></clipPath><g clip-path="url(#p.0)"><path fill="#000000" fill-opacity="0.0" d="m0 0l960.0 0l0 720.0l-960.0 0z" fill-rule="evenodd"/><path fill="#990000" d="m393.95276 171.53806l0 0c0 -24.509262 19.26233 -44.377953 43.02362 -44.377953l0 0c11.4105835 0 22.35379 4.6755295 30.422302 12.998009c8.068481 8.322479 12.601318 19.610184 12.601318 31.379944l0 0c0 24.509262 -19.26233 44.37796 -43.02362 44.37796l0 0c-23.761292 0 -43.02362 -19.868698 -43.02362 -44.37796z" fill-rule="evenodd"/><path stroke="#000000" stroke-width="4.0" stroke-linejoin="round" stroke-linecap="butt" d="m393.95276 171.53806l0 0c0 -24.509262 19.26233 -44.377953 43.02362 -44.377953l0 0c11.4105835 0 22.35379 4.6755295 30.422302 12.998009c8.068481 8.322479 12.601318 19.610184 12.601318 31.379944l0 0c0 24.509262 -19.26233 44.37796 -43.02362 44.37796l0 0c-23.761292 0 -43.02362 -19.868698 -43.02362 -44.37796z" fill-rule="evenodd"/><path fill="#ffd966" d="m410.22046 194.27559l26.75592 -49.480316l26.75589 49.480316z" fill-rule="evenodd"/><path stroke="#000000" stroke-width="4.0" stroke-linejoin="round" stroke-linecap="butt" d="m410.22046 194.27559l26.75592 -49.480316l26.75589 49.480316z" fill-rule="evenodd"/><path fill="#000000" fill-opacity="0.0" d="m436.7874 186.52493l-0.12600708 -5.0078735" fill-rule="evenodd"/><path stroke="#000000" stroke-width="4.0" stroke-linejoin="round" stroke-linecap="butt" d="m436.7874 186.52493l-0.12600708 -5.0078735" fill-rule="evenodd"/><path fill="#000000" fill-opacity="0.0" d="m436.7244 159.49869l0 18.992126" fill-rule="evenodd"/><path stroke="#000000" stroke-width="4.0" stroke-linejoin="round" stroke-linecap="butt" d="m436.7244 159.49869l0 18.992126" fill-rule="evenodd"/><path fill="#141313" d="m452.5013 150.75328l0 0c0 -3.4528656 2.7427063 -6.2519684 6.1259766 -6.2519684l0 0c1.6247253 0 3.1828918 0.6586914 4.331726 1.8311615c1.1488647 1.1724701 1.794281 2.76268 1.794281 4.420807l0 0c0 3.4528656 -2.7427063 6.2519684 -6.126007 6.2519684l0 0c-3.3832703 0 -6.1259766 -2.7991028 -6.1259766 -6.2519684z" fill-rule="evenodd"/><path stroke="#000000" stroke-width="1.0" stroke-linejoin="round" stroke-linecap="butt" d="m452.5013 150.75328l0 0c0 -3.4528656 2.7427063 -6.2519684 6.1259766 -6.2519684l0 0c1.6247253 0 3.1828918 0.6586914 4.331726 1.8311615c1.1488647 1.1724701 1.794281 2.76268 1.794281 4.420807l0 0c0 3.4528656 -2.7427063 6.2519684 -6.126007 6.2519684l0 0c-3.3832703 0 -6.1259766 -2.7991028 -6.1259766 -6.2519684z" fill-rule="evenodd"/><path fill="#660000" d="m414.75067 146.0l-4.0 2.5013123l-8.249359 9.0l0 4.249344l-1.5013123 8.498688l3.7506714 3.0l2.4986572 -1.4986877l4.7506714 -6.5013123l1.7506714 -5.0l0.75064087 -7.7480316l1.7480164 -3.7506561z" fill-rule="evenodd"/><path stroke="#000000" stroke-width="1.0" stroke-linejoin="round" stroke-linecap="butt" d="m414.75067 146.0l-4.0 2.5013123l-8.249359 9.0l0 4.249344l-1.5013123 8.498688l3.7506714 3.0l2.4986572 -1.4986877l4.7506714 -6.5013123l1.7506714 -5.0l0.75064087 -7.7480316l1.7480164 -3.7506561z" fill-rule="evenodd"/><path fill="#660000" d="m445.75067 205.50131l2.4986572 -1.5013123l0.7506714 -3.2493439l2.2493286 -1.2493439l8.0 1.0l-3.7480164 3.4986877l-4.750641 2.5013123l-7.7506714 5.4986877z" fill-rule="evenodd"/><path stroke="#000000" stroke-width="1.0" stroke-linejoin="round" stroke-linecap="butt" d="m445.75067 205.50131l2.4986572 -1.5013123l0.7506714 -3.2493439l2.2493286 -1.2493439l8.0 1.0l-3.7480164 3.4986877l-4.750641 2.5013123l-7.7506714 5.4986877z" fill-rule="evenodd"/><path fill="#000000" fill-opacity="0.0" d="m592.7507 159.75066l144.0 0l0 42.015747l-144.0 0z" fill-rule="evenodd"/></g></svg>