<?xml version="1.0" encoding="UTF-8" standalone="no"?>
<!-- Created with Inkscape (http://www.inkscape.org/) -->

<svg
   width="16"
   height="16"
   viewBox="0 0 4.2333333 4.2333333"
   version="1.1"
   id="svg13329"
   inkscape:version="1.2.2 (b0a8486541, 2022-12-01)"
   sodipodi:docname="bush.svg"
   xmlns:inkscape="http://www.inkscape.org/namespaces/inkscape"
   xmlns:sodipodi="http://sodipodi.sourceforge.net/DTD/sodipodi-0.dtd"
   xmlns="http://www.w3.org/2000/svg"
   xmlns:svg="http://www.w3.org/2000/svg">
  <sodipodi:namedview
     id="namedview13331"
     pagecolor="#ffffff"
     bordercolor="#666666"
     borderopacity="1.0"
     inkscape:showpageshadow="2"
     inkscape:pageopacity="0.0"
     inkscape:pagecheckerboard="0"
     inkscape:deskcolor="#d1d1d1"
     inkscape:document-units="px"
     showgrid="false"
     inkscape:zoom="34.953455"
     inkscape:cx="11.272133"
     inkscape:cy="8.8260231"
     inkscape:window-width="1920"
     inkscape:window-height="1004"
     inkscape:window-x="0"
     inkscape:window-y="0"
     inkscape:window-maximized="1"
     inkscape:current-layer="layer1" />
  <defs
     id="defs13326" />
  <g
     inkscape:label="圖層 1"
     inkscape:groupmode="layer"
     id="layer1">
    <path
       sodipodi:type="star"
       style="fill:#243c0c;fill-opacity:1;stroke-width:5.29167;stroke-linecap:round;stroke-linejoin:round;stroke-miterlimit:1.4"
       id="path13415"
       inkscape:flatsided="false"
       sodipodi:sides="26"
       sodipodi:cx="2.0437894"
       sodipodi:cy="2.2330291"
       sodipodi:r1="1.9985582"
       sodipodi:r2="1.8986303"
       sodipodi:arg1="0.73985327"
       sodipodi:arg2="0.86068376"
       inkscape:rounded="0.2"
       inkscape:randomized="0.02"
       d="m 3.4968162,3.5749807 c -0.033921,0.037903 -0.2117498,0.02748 -0.2511993,0.060458 -0.039449,0.032978 -0.052548,0.2135313 -0.094509,0.2427112 -0.041961,0.02918 -0.2142863,-0.00946 -0.25969,0.013007 C 2.8460142,3.9136229 2.767192,4.0943924 2.7193308,4.1127056 2.6714696,4.1310189 2.5043518,4.0614033 2.4548076,4.0736855 2.4052634,4.0859676 2.2691244,4.2005701 2.2181762,4.2061917 2.167228,4.2118132 2.084167,4.1647655 2.0326146,4.1633657 1.9810622,4.161966 1.8112578,4.2137411 1.7603371,4.2081313 1.7094165,4.2025216 1.6306382,4.0681145 1.5810501,4.0564791 1.5314621,4.0448436 1.3636879,4.0846339 1.3158462,4.0662354 1.2680045,4.0478369 1.1794426,3.9469705 1.1348638,3.921588 1.0902851,3.8962056 0.92590307,3.9135049 0.88485557,3.8828237 0.84380807,3.8521426 0.78928127,3.6629218 0.75148203,3.6282875 0.71368279,3.5936532 0.54391693,3.5484353 0.51173214,3.5091682 0.47954735,3.469901 0.45971123,3.36117 0.43155348,3.3185656 0.40339573,3.2759613 0.27649986,3.161224 0.25294595,3.1156323 0.22939203,3.0700406 0.25969471,2.9598447 0.24248367,2.9113016 0.22527263,2.8627586 0.08034539,2.7573799 0.06923219,2.7078714 0.058119,2.658363 0.1341172,2.4659246 0.12861362,2.4153154 0.12311005,2.3647063 0.05271495,2.2577326 0.05266069,2.206416 0.05260643,2.1550995 0.16309174,2.0203352 0.16983247,1.970149 0.1765732,1.9199627 0.05881946,1.76335 0.07236523,1.7135939 0.08591099,1.6638378 0.25832178,1.6088323 0.27730392,1.5612299 c 0.0189821,-0.047602 -0.0466919,-0.248034 -0.0231523,-0.292932 0.0235395,-0.044898 0.24990789,-0.1270971 0.28015248,-0.1688775 0.0302446,-0.04178 -0.0248583,-0.19884745 0.0103393,-0.23520754 0.0351977,-0.0363601 0.24872116,-0.056316 0.28727125,-0.090322 0.0385501,-0.034006 0.0478108,-0.1777389 0.0901171,-0.20657339 0.0423063,-0.0288345 0.2137289,0.0165751 0.2597722,-0.006101 0.046043,-0.0226764 0.1275801,-0.16800011 0.1763968,-0.1846501 0.048817,-0.01665 0.2104437,0.0139796 0.2601325,0.004067 0.049689,-0.009912 0.1543683,-0.13572941 0.2050324,-0.14072527 0.050664,-0.004996 0.2055184,0.1221813 0.2568024,0.12200764 0.051284,-1.7366e-4 0.1456813,-0.0948356 0.1966448,-0.0878095 0.050963,0.007026 0.1658781,0.11198787 0.2152779,0.12373349 0.0494,0.0117456 0.2134534,-0.0643562 0.2608943,-0.0466548 0.047441,0.0177014 0.1790325,0.22903025 0.2249338,0.25250846 0.045901,0.0234782 0.2166808,0.0107767 0.2587098,0.0395249 0.042029,0.0287482 0.010165,0.17709434 0.049039,0.21073172 0.038874,0.0336374 0.238596,0.0128895 0.2715122,0.0523567 0.032916,0.0394672 0.055645,0.19388169 0.08449,0.23635259 0.028845,0.042471 0.1950085,0.1410044 0.218167,0.1870475 0.023158,0.046043 -0.08109,0.1925981 -0.06517,0.2412292 0.01592,0.048631 0.1984924,0.1234818 0.2093235,0.1735659 0.010831,0.050084 -0.063657,0.2416604 -0.059382,0.292556 0.00428,0.050896 0.078158,0.1594781 0.075872,0.2108449 -0.00229,0.051367 -0.1056931,0.2205494 -0.1127812,0.27122 -0.00709,0.05067 0.1100667,0.2068716 0.097467,0.2565551 -0.012599,0.049683 -0.1897217,0.1485813 -0.2092484,0.1954078 -0.019527,0.046827 0.050557,0.1970686 0.02738,0.2429821 -0.023178,0.045913 -0.173941,0.091501 -0.2045198,0.131979 -0.030579,0.040477 -0.088041,0.1910312 -0.1219616,0.228934 z"
       inkscape:transform-center-x="0.033416337"
       inkscape:transform-center-y="0.011655885"
       transform="matrix(1.0669028,0,0,1.0666554,-0.05618382,-0.25574615)" />
    <path
       sodipodi:type="star"
       style="fill:#3b5b1f;fill-opacity:1;stroke-width:5.29167;stroke-linecap:round;stroke-linejoin:round;stroke-miterlimit:1.4"
       id="path15401"
       inkscape:flatsided="false"
       sodipodi:sides="16"
       sodipodi:cx="5.0186386"
       sodipodi:cy="1.4760702"
       sodipodi:r1="0.86737067"
       sodipodi:r2="0.78063363"
       sodipodi:arg1="0.76071182"
       sodipodi:arg2="0.95706136"
       inkscape:rounded="0.2"
       inkscape:randomized="0.02"
       d="M 5.6521036,2.0779653 C 5.6269954,2.104542 5.4970177,2.0784824 5.4678274,2.1003463 5.438637,2.1222102 5.409956,2.261207 5.3762892,2.2761695 5.3426224,2.291132 5.2082767,2.2341824 5.1727439,2.2426629 c -0.035533,0.00848 -0.093665,0.098909 -0.1301982,0.099747 -0.036533,8.378e-4 -0.1255588,-0.074854 -0.1620423,-0.080188 -0.036484,-0.00533 -0.1481424,0.048903 -0.18245,0.03536 C 4.6637457,2.2840398 4.6480958,2.1675252 4.6168521,2.1483615 4.5856083,2.1291977 4.4540878,2.1427254 4.4270624,2.11754 4.4000369,2.0923546 4.3964309,1.9669684 4.3758524,1.9364681 c -0.020579,-0.0305 -0.129983,-0.088068 -0.1445684,-0.121698 -0.014585,-0.03363 0.01683,-0.1200908 0.00985,-0.1558205 -0.00698,-0.03573 -0.081375,-0.1401206 -0.081134,-0.1770989 2.409e-4,-0.036978 0.065571,-0.089473 0.072395,-0.1254094 0.00682,-0.035936 -0.029035,-0.1468826 -0.016478,-0.1810803 0.012557,-0.034198 0.1240783,-0.070011 0.1439248,-0.1008967 0.019846,-0.030886 0.019007,-0.16391383 0.044546,-0.18966451 0.025539,-0.0257507 0.1188582,-0.0337722 0.1496172,-0.0540786 0.030759,-0.0203064 0.075659,-0.12549423 0.109028,-0.14107275 0.033369,-0.0155785 0.1521859,0.0229641 0.1879258,0.01477 0.03574,-0.008194 0.1090088,-0.0839375 0.1458171,-0.0848516 0.036808,-9.1407e-4 0.1088178,0.0767569 0.1445531,0.0839736 0.035735,0.007217 0.150115,-0.0662364 0.1843203,-0.0540414 0.034205,0.012195 0.06452,0.16316956 0.094915,0.18364114 0.030395,0.0204716 0.1633586,-0.0265259 0.1898254,-8.7617e-4 0.026467,0.0256497 0.017247,0.14807249 0.037461,0.17834921 0.020214,0.030277 0.1450883,0.068442 0.1601873,0.1018981 0.015099,0.033456 -0.032916,0.1395898 -0.025467,0.1756205 0.00745,0.036031 0.1154354,0.1401493 0.1158287,0.1770988 3.933e-4,0.036949 -0.087738,0.092078 -0.093341,0.1281321 -0.0056,0.036054 0.049419,0.162845 0.035553,0.1970386 -0.013865,0.034194 -0.1438117,0.088757 -0.1630001,0.1196332 -0.019188,0.030876 -3.978e-4,0.1413541 -0.025506,0.1679308 z"
       inkscape:transform-center-x="0.00027902897"
       inkscape:transform-center-y="-0.0089226524"
       transform="matrix(1.5219931,0,0,1.5357237,-5.5377383,-0.1577211)" />
    <path
       sodipodi:type="star"
       style="fill:#789a5a;fill-opacity:1;stroke-width:5.29167;stroke-linecap:round;stroke-linejoin:round;stroke-miterlimit:1.4"
       id="path19811"
       inkscape:flatsided="false"
       sodipodi:sides="16"
       sodipodi:cx="2.1876116"
       sodipodi:cy="1.9378151"
       sodipodi:r1="2.6554744"
       sodipodi:r2="2.9181039"
       sodipodi:arg1="0.31108648"
       sodipodi:arg2="0.50743602"
       inkscape:rounded="0.2"
       inkscape:randomized="0.035"
       d="M 4.7644454,2.7183321 C 4.7330461,2.8364008 4.707865,3.3414668 4.6538653,3.4498689 4.5998656,3.5582711 4.3666992,3.654539 4.2843648,3.7442182 4.2020304,3.8338974 4.1716574,4.1772334 4.0746854,4.2472278 3.9777134,4.3172222 3.4275508,4.1946079 3.3197922,4.2503323 3.2120337,4.3060568 3.0257122,4.6145098 2.9077969,4.6460245 2.7898816,4.6775392 2.5906184,4.6519642 2.4687538,4.6626483 2.3468893,4.6733324 1.9989019,4.8987584 1.8802584,4.8819729 1.761615,4.8651874 1.4055342,4.3983003 1.2913346,4.3641211 1.177135,4.3299419 0.92383291,4.4954962 0.81559051,4.4418208 0.7073481,4.3881455 0.53487493,4.0153351 0.43794764,3.9415956 0.34102034,3.867856 0.00341112,3.8187689 -0.07152682,3.7260832 c -0.07493794,-0.092686 -0.03103024,-0.5555357 -0.08126,-0.666123 -0.0502298,-0.1105873 -0.38513687,-0.1223514 -0.42064995,-0.2394417 -0.0355131,-0.1170903 0.056203,-0.4611951 0.041995,-0.5809441 -0.014208,-0.119749 -0.25578938,-0.5822394 -0.24630073,-0.7025514 0.009489,-0.120312 0.34701243,-0.3382222 0.38683939,-0.4534103 0.039827,-0.11518817 0.0544049,-0.39808038 0.11058331,-0.50465211 0.0561784,-0.10657174 0.37993713,-0.32178972 0.46145742,-0.4109217 0.0815203,-0.08913198 0.11255864,-0.4242352 0.20947248,-0.49803844 0.0969138,-0.0738033 0.45360087,-0.0623842 0.56163775,-0.11308954 0.10803693,-0.0507053 0.29394033,-0.3914174 0.41199213,-0.41830966 0.1180517,-0.0268923 0.514086,0.13028831 0.6323017,0.1159787 0.1182156,-0.0143096 0.4819534,-0.16659538 0.599504,-0.14765981 0.1175505,0.0189356 0.2564295,0.20736364 0.3736479,0.24191975 0.1172184,0.0345561 0.5845957,-0.0663146 0.69102,-0.006035 0.1064243,0.0602796 0.071848,0.55462494 0.162367,0.63282778 0.090519,0.07820284 0.5592207,0.12042481 0.6330037,0.21712855 0.073783,0.0967037 0.022715,0.35783198 0.08126,0.46185575 0.058545,0.10402376 0.371114,0.4408675 0.409638,0.5536941 0.038524,0.1128265 -0.050871,0.4394339 -0.041998,0.5583265 0.00887,0.1188927 0.2563487,0.4004257 0.246304,0.5209016 -0.010045,0.120476 -0.3554434,0.3127243 -0.3868426,0.4307929 z"
       inkscape:transform-center-x="-0.0044437739"
       inkscape:transform-center-y="-0.0040864568"
       transform="matrix(0.26772461,0,0,0.27476938,1.5312104,1.5687548)" />
  </g>
</svg>
