<?xml version="1.0" encoding="UTF-8" standalone="no"?>
<svg
   version="1.1"
   viewBox="0 0 450 450"
   fill="none"
   stroke="none"
   stroke-linecap="square"
   stroke-miterlimit="10"
   id="svg45"
   sodipodi:docname="crate.svg"
   width="450"
   height="450"
   inkscape:version="1.2.2 (b0a8486541, 2022-12-01)"
   xmlns:inkscape="http://www.inkscape.org/namespaces/inkscape"
   xmlns:sodipodi="http://sodipodi.sourceforge.net/DTD/sodipodi-0.dtd"
   xmlns="http://www.w3.org/2000/svg"
   xmlns:svg="http://www.w3.org/2000/svg">
  <defs
     id="defs49" />
  <sodipodi:namedview
     id="namedview47"
     pagecolor="#ffffff"
     bordercolor="#666666"
     borderopacity="1.0"
     inkscape:showpageshadow="2"
     inkscape:pageopacity="0.0"
     inkscape:pagecheckerboard="0"
     inkscape:deskcolor="#d1d1d1"
     showgrid="false"
     inkscape:zoom="0.58958333"
     inkscape:cx="186.57244"
     inkscape:cy="0.84805654"
     inkscape:window-width="1920"
     inkscape:window-height="1002"
     inkscape:window-x="0"
     inkscape:window-y="0"
     inkscape:window-maximized="1"
     inkscape:current-layer="g43" />
  <clipPath
     id="p.0">
    <path
       d="M 0,0 H 960 V 720 H 0 Z"
       clip-rule="nonzero"
       id="path2" />
  </clipPath>
  <g
     clip-path="url(#p.0)"
     id="g43"
     transform="translate(-248.83203,-88.52756)">
    <path
       fill="#78513b"
       d="M 260.83203,100.52756 H 685.4719 V 525.16743 H 260.83203 Z"
       fill-rule="evenodd"
       id="path7"
       style="stroke-width:1.11692" />
    <path
       stroke="#000000"
       stroke-width="26.7203"
       stroke-linejoin="round"
       stroke-linecap="butt"
       d="M 262.19216,101.88769 H 685.4719 V 525.16743 H 262.19216 Z"
       fill-rule="evenodd"
       id="path9" />
    <path
       fill="#513d33"
       d="M 313.92926,159.54639 H 633.7348 V 473.44315 H 313.92926 Z"
       fill-rule="evenodd"
       id="path11"
       style="stroke-width:1.13603" />
    <path
       stroke="#000000"
       stroke-width="18.1765"
       stroke-linejoin="round"
       stroke-linecap="butt"
       d="M 313.92926,159.54639 H 633.7348 V 473.44315 H 313.92926 Z"
       fill-rule="evenodd"
       id="path13" />
    <path
       fill="#000000"
       fill-opacity="0"
       d="M 591.6745,159.54639 312.00195,415.02276"
       fill-rule="evenodd"
       id="path15"
       style="stroke-width:1.13603" />
    <path
       stroke="#000000"
       stroke-width="13.6323"
       stroke-linejoin="round"
       stroke-linecap="butt"
       d="M 591.6745,159.54639 312.00195,415.02276"
       fill-rule="evenodd"
       id="path17" />
    <path
       fill="#000000"
       fill-opacity="0"
       d="M 343.26657,475.60442 635.6932,188.77229"
       fill-rule="evenodd"
       id="path19"
       style="stroke-width:1.13603" />
    <path
       stroke="#000000"
       stroke-width="13.6323"
       stroke-linejoin="round"
       stroke-linecap="butt"
       d="M 343.26657,475.60442 635.6932,188.77229"
       fill-rule="evenodd"
       id="path21" />
    <path
       fill="#000000"
       fill-opacity="0"
       d="m 309.44918,431.50644 291.64443,-286.98272 37.14,46.14912 -291.6444,286.98271 z"
       fill-rule="evenodd"
       id="path23"
       style="stroke-width:1.13603" />
    <path
       fill="#000000"
       d="m 373.37992,423.92983 -2.64845,-3.29088 1.39965,-1.37728 -7.11495,-8.84084 -1.39967,1.37728 -2.63724,-3.27699 7.43958,-7.32068 2.63726,3.27699 -1.39966,1.37729 7.11496,8.84081 1.39967,-1.37729 2.64848,3.29091 z m 16.31298,-16.05221 -3.74826,-4.65747 -5.01858,4.93835 -4.48592,-0.18345 -1.88536,-2.34268 0.27603,-5.24417 1.86621,-1.83638 3.51261,4.36465 5.28339,-5.19891 4.5869,0.30896 1.93024,2.3985 -0.27453,5.44254 z m -7.3282,-9.10578 -0.77431,-0.96215 -2.33278,2.29545 -1.82924,-2.27294 4.93031,-4.85152 3.14579,0.20281 1.12222,1.39448 z m 1.80526,14.54046 -3.97173,-0.63948 -0.7968,-0.99008 4.65291,-4.57852 1.02124,1.26896 2.05531,-2.02248 1.81805,2.259 z m 14.58164,-14.34857 -4.92058,-0.33048 -11.39065,-14.15374 4.64028,-4.56611 11.23357,13.95849 2.08056,-2.04731 2.48013,3.08175 z m 12.66312,-12.46073 -7.45161,-9.25918 -6.60738,6.50175 -1.23446,-1.5339 0.15398,-2.92514 6.96043,-6.84913 5.26684,0.3396 7.45164,9.25913 z m -5.67424,5.58357 -3.50466,-0.19955 -2.48017,-3.08172 0.20531,-3.90016 4.93031,-4.8515 1.71703,2.13349 -2.38319,2.34511 1.73946,2.16141 2.38319,-2.34511 1.0998,1.36659 -0.16383,2.8848 z m 19.73044,-19.41509 -7.4516,-9.2592 -1.99229,1.96047 -1.08859,-1.3526 0.15941,-3.25533 2.58494,-2.5436 4.74253,0.30577 7.6985,9.56598 z m -7.42695,7.30826 -9.93177,-12.34094 4.67812,-4.60331 9.93174,12.34089 z m 21.75835,-21.41062 -13.71366,-17.0402 4.64028,-4.56613 13.71369,17.04023 z m -5.10679,5.02523 -4.74255,-0.30578 -5.46528,-6.79102 0.27607,-5.24414 4.37548,-4.30554 2.48011,3.08174 -2.24448,2.20864 5.12862,6.37263 2.24449,-2.20858 1.34668,1.67331 -0.1333,2.30507 z m 11.93977,-11.74891 -9.93181,-12.34094 4.64032,-4.56612 9.93176,12.34094 z m 2.3251,-13.50734 -2.41282,-2.99809 -1.97968,1.94805 -1.08859,-1.35263 0.15941,-3.25528 2.81192,-2.76696 4.59272,0.65308 2.56993,3.19329 z m 16.40099,-4.91949 -2.64843,-3.29092 1.39964,-1.37729 -7.11496,-8.84082 -1.39964,1.3773 -2.63727,-3.27699 7.43958,-7.32066 2.63727,3.27694 -1.39967,1.37727 7.115,8.84085 1.39962,-1.37727 2.64849,3.29091 z m 16.74591,-16.47821 -7.45161,-9.25918 -1.99232,1.96044 -1.08856,-1.35263 0.15941,-3.2553 2.58494,-2.54364 4.74255,0.30584 7.69848,9.56594 z m -7.42699,7.30826 -9.93175,-12.34092 4.67813,-4.60333 9.93176,12.34091 z m 21.7584,-21.41062 -13.71368,-17.04024 4.64028,-4.56609 13.71371,17.04024 z m -5.10684,5.02525 -4.74254,-0.30579 -5.46525,-6.79101 0.27603,-5.24415 4.37547,-4.30554 2.48016,3.08174 -2.24449,2.2086 5.12858,6.37269 2.24449,-2.20866 1.3467,1.67337 -0.13329,2.30507 z m 14.63821,-14.40423 -5.27942,-0.32721 -7.45165,-9.25916 4.64027,-4.56611 7.45165,9.25917 2.06794,-2.0349 1.23448,1.53391 -0.0909,2.86307 z m 4.65288,-4.57852 -9.93175,-12.34094 4.64028,-4.5661 9.93175,12.34092 z m 13.991,-13.76736 -3.74827,-4.65749 -5.01857,4.93836 -4.48593,-0.18348 -1.88536,-2.34267 0.27605,-5.24413 1.86621,-1.83637 3.51257,4.36462 5.28339,-5.1989 4.58692,0.30895 1.93024,2.39847 -0.27451,5.44256 z m -7.32821,-9.10579 -0.77432,-0.96215 -2.33275,2.29544 -1.82926,-2.27295 4.9303,-4.85151 3.14583,0.20285 1.12223,1.39446 z m 1.80525,14.54047 -3.97174,-0.6395 -0.79677,-0.99008 4.6529,-4.57851 1.02123,1.26896 2.05537,-2.02249 1.81799,2.25901 z m 15.09442,-14.85318 -5.27942,-0.3272 -4.97147,-6.17744 -0.9205,0.90578 -2.48013,-3.08172 0.92049,-0.90579 -1.06614,-1.32475 3.2375,-6.30916 9.92056,12.32697 3.06409,-3.01512 2.48015,3.08174 z m -4.8793,-11.7904 -2.4801,-3.08175 2.50931,-2.46917 2.48008,3.08173 z m 11.78971,4.99046 -9.93179,-12.34092 4.6403,-4.5661 9.9318,12.34092 z m 2.32513,-13.50731 -2.41285,-2.99807 -1.97964,1.94802 -1.08861,-1.35263 0.15941,-3.25529 2.81195,-2.76697 4.59272,0.6531 2.5699,3.1933 z m -0.0254,-13.61821 -2.63728,-3.27698 4.6529,-4.57853 2.63728,3.27698 z m 11.16618,13.87482 -9.93177,-12.34092 4.65288,-4.57854 9.93179,12.34092 z m 9.5028,-9.3509 -5.26683,-0.33957 -4.97149,-6.17742 0.30653,-5.82392 1.85363,-1.82395 9.93173,12.34092 z m -1.38638,-7.50632 -1.72827,-2.14747 2.44629,-2.40713 -1.73948,-2.16141 -2.44627,2.40713 -2.48014,-3.08174 3.93415,-3.87127 5.26685,0.33959 3.46773,4.30888 z m 3.98392,4.95032 -2.32303,-2.88654 6.22913,-6.12952 1.07733,1.33869 -0.14138,2.91272 z m 15.85936,-15.60586 -3.74829,-4.65749 -5.01856,4.93836 -4.48595,-0.18347 -1.88531,-2.34269 0.27601,-5.24415 1.86621,-1.83636 3.51262,4.36465 5.28337,-5.19892 4.58692,0.30897 1.93021,2.39845 -0.27451,5.44256 z m -7.32819,-9.10578 -0.77435,-0.96218 -2.33272,2.29547 -1.8293,-2.27297 4.9303,-4.85149 3.14584,0.20284 1.12222,1.39443 z m 1.80524,14.54045 -3.97173,-0.63949 -0.79677,-0.99007 4.65289,-4.57854 1.02119,1.26897 2.05537,-2.02249 1.81803,2.25902 z"
       fill-rule="nonzero"
       id="path25"
       style="stroke-width:1.13603" />
    <path
       fill="#666666"
       d="m 287.62995,162.44647 v 0 c 0,-15.06438 11.61026,-27.27646 25.93221,-27.27646 v 0 c 6.87765,0 13.47361,2.87376 18.33682,7.98909 4.86324,5.11532 7.59538,12.05321 7.59538,19.28737 v 0 c 0,15.06436 -11.61026,27.27645 -25.9322,27.27645 v 0 c -14.32195,0 -25.93221,-12.21209 -25.93221,-27.27645 z"
       fill-rule="evenodd"
       id="path27"
       style="stroke-width:1.08051" />
    <path
       stroke="#000000"
       stroke-width="8.64407"
       stroke-linejoin="round"
       stroke-linecap="butt"
       d="m 287.62995,162.44647 v 0 c 0,-15.06438 11.61026,-27.27646 25.93221,-27.27646 v 0 c 6.87765,0 13.47361,2.87376 18.33682,7.98909 4.86324,5.11532 7.59538,12.05321 7.59538,19.28737 v 0 c 0,15.06436 -11.61026,27.27645 -25.9322,27.27645 v 0 c -14.32195,0 -25.93221,-12.21209 -25.93221,-27.27645 z"
       fill-rule="evenodd"
       id="path29" />
    <path
       fill="#666666"
       d="m 605.82302,159.74963 v 0 c 0,-15.06438 11.61026,-27.27646 25.93221,-27.27646 v 0 c 6.87762,0 13.47358,2.87376 18.33685,7.98909 4.86322,5.11532 7.59535,12.05321 7.59535,19.28737 v 0 c 0,15.06436 -11.61026,27.27645 -25.9322,27.27645 v 0 c -14.32195,0 -25.93221,-12.21209 -25.93221,-27.27645 z"
       fill-rule="evenodd"
       id="path31"
       style="stroke-width:1.08051" />
    <path
       stroke="#000000"
       stroke-width="8.64407"
       stroke-linejoin="round"
       stroke-linecap="butt"
       d="m 605.82302,159.74963 v 0 c 0,-15.06438 11.61026,-27.27646 25.93221,-27.27646 v 0 c 6.87762,0 13.47358,2.87376 18.33685,7.98909 4.86322,5.11532 7.59535,12.05321 7.59535,19.28737 v 0 c 0,15.06436 -11.61026,27.27645 -25.9322,27.27645 v 0 c -14.32195,0 -25.93221,-12.21209 -25.93221,-27.27645 z"
       fill-rule="evenodd"
       id="path33" />
    <path
       fill="#666666"
       d="m 286.87136,474.06545 v 0 c 0,-15.06437 11.61026,-27.27644 25.93221,-27.27644 v 0 c 6.87765,0 13.47361,2.87376 18.33682,7.98909 4.86324,5.11533 7.59538,12.0532 7.59538,19.28735 v 0 c 0,15.0644 -11.61026,27.27647 -25.9322,27.27647 v 0 c -14.32195,0 -25.93221,-12.21208 -25.93221,-27.27647 z"
       fill-rule="evenodd"
       id="path35"
       style="stroke-width:1.08051" />
    <path
       stroke="#000000"
       stroke-width="8.64407"
       stroke-linejoin="round"
       stroke-linecap="butt"
       d="m 286.87136,474.06545 v 0 c 0,-15.06437 11.61026,-27.27644 25.93221,-27.27644 v 0 c 6.87765,0 13.47361,2.87376 18.33682,7.98909 4.86324,5.11533 7.59538,12.0532 7.59538,19.28735 v 0 c 0,15.0644 -11.61026,27.27647 -25.9322,27.27647 v 0 c -14.32195,0 -25.93221,-12.21208 -25.93221,-27.27647 z"
       fill-rule="evenodd"
       id="path37" />
    <path
       fill="#666666"
       d="m 606.91562,470.72995 v 0 c 0,-15.06437 11.61026,-27.27644 25.93221,-27.27644 v 0 c 6.87762,0 13.47358,2.87376 18.33685,7.98909 4.86322,5.11533 7.59535,12.0532 7.59535,19.28735 v 0 c 0,15.0644 -11.61026,27.27647 -25.9322,27.27647 v 0 c -14.32195,0 -25.93221,-12.21208 -25.93221,-27.27647 z"
       fill-rule="evenodd"
       id="path39"
       style="stroke-width:1.08051" />
    <path
       stroke="#000000"
       stroke-width="8.64407"
       stroke-linejoin="round"
       stroke-linecap="butt"
       d="m 606.91562,470.72995 v 0 c 0,-15.06437 11.61026,-27.27644 25.93221,-27.27644 v 0 c 6.87762,0 13.47358,2.87376 18.33685,7.98909 4.86322,5.11533 7.59535,12.0532 7.59535,19.28735 v 0 c 0,15.0644 -11.61026,27.27647 -25.9322,27.27647 v 0 c -14.32195,0 -25.93221,-12.21208 -25.93221,-27.27647 z"
       fill-rule="evenodd"
       id="path41" />
  </g>
</svg>
