<svg version="1.1" viewBox="0.0 0.0 960.0 720.0" fill="none" stroke="none" stroke-linecap="square" stroke-miterlimit="10" xmlns:xlink="http://www.w3.org/1999/xlink" xmlns="http://www.w3.org/2000/svg"><clipPath id="p.0"><path d="m0 0l960.0 0l0 720.0l-960.0 0l0 -720.0z" clip-rule="nonzero"/></clipPath><g clip-path="url(#p.0)"><path fill="#000000" fill-opacity="0.0" d="m0 0l960.0 0l0 720.0l-960.0 0z" fill-rule="evenodd"/><path fill="#78513b" d="m260.83203 100.52756l403.02362 0l0 358.64566l-403.02362 0z" fill-rule="evenodd"/><path stroke="#000000" stroke-width="24.0" stroke-linejoin="round" stroke-linecap="butt" d="m260.83203 100.52756l403.02362 0l0 358.64566l-403.02362 0z" fill-rule="evenodd"/><path fill="#513d33" d="m313.3596 148.52756l296.1575 0l0 262.64566l-296.1575 0z" fill-rule="evenodd"/><path stroke="#000000" stroke-width="16.0" stroke-linejoin="round" stroke-linecap="butt" d="m313.3596 148.52756l296.1575 0l0 262.64566l-296.1575 0z" fill-rule="evenodd"/><path fill="#000000" fill-opacity="0.0" d="m570.56696 148.52756l-258.99216 213.7638" fill-rule="evenodd"/><path stroke="#000000" stroke-width="12.0" stroke-linejoin="round" stroke-linecap="butt" d="m570.56696 148.52756l-258.99216 213.7638" fill-rule="evenodd"/><path fill="#000000" fill-opacity="0.0" d="m340.52756 412.98163l270.80313 -240.0" fill-rule="evenodd"/><path stroke="#000000" stroke-width="12.0" stroke-linejoin="round" stroke-linecap="butt" d="m340.52756 412.98163l270.80313 -240.0" fill-rule="evenodd"/><path fill="#000000" fill-opacity="0.0" d="m309.2108 376.08368l270.07877 -240.12599l34.393677 38.61418l-270.07874 240.12598z" fill-rule="evenodd"/><path fill="#000000" d="m368.41418 369.74414l-2.4526062 -2.7535706l1.2961426 -1.1524048l-6.5888367 -7.3973694l-1.2961731 1.1524048l-2.4422302 -2.7419434l6.8894653 -6.1253967l2.4422607 2.7419434l-1.2961731 1.1524048l6.5888367 7.397339l1.2961731 -1.1524048l2.4526367 2.753601l-6.889496 6.1253967zm15.10672 -13.431305l-3.4710999 -3.8970337l-4.6474915 4.1320496l-4.1542053 -0.15350342l-1.7459412 -1.9601746l0.25561523 -4.3879395l1.7282104 -1.5365295l3.2528687 3.652008l4.8927 -4.350067l4.2477417 0.2585144l1.7875061 2.0068665l-0.25424194 4.5539246l-1.8916626 1.6818848zm-6.786316 -7.619049l-0.71707153 -0.8050537l-2.1602783 1.9206543l-1.6939697 -1.901825l4.565735 -4.059387l2.9131775 0.16970825l1.0392456 1.1667786l-3.9468384 3.5091248zm1.6717529 12.166382l-3.6780396 -0.5350647l-0.737854 -0.8284302l4.308838 -3.8309631l0.9457092 1.0617676l1.9033508 -1.6922607l1.6835938 1.8901672l-4.425598 3.934784zm13.503418 -12.005829l-4.556732 -0.27651978l-10.54837 -11.842804l4.2971497 -3.8205872l10.402893 11.679443l1.9267273 -1.7130432l2.2967224 2.5785828l-3.81839 3.394928zm11.726746 -10.4262085l-6.9006042 -7.747406l-6.118805 5.4401855l-1.143158 -1.2834473l0.14257812 -2.4475403l6.4457397 -5.7308655l4.8773804 0.28414917l6.900635 7.7473755l-4.203766 3.7375488zm-5.254669 4.6719055l-3.245514 -0.16696167l-2.296753 -2.5785522l0.19012451 -3.2633667l4.565735 -4.059387l1.5900574 1.7851562l-2.2069702 1.9622192l1.6108398 1.8085022l2.2069702 -1.9622192l1.0184631 1.1434631l-0.15170288 2.4137878l-3.28125 2.9173584zm18.271484 -16.245117l-6.9006042 -7.747406l-1.8449707 1.6403809l-1.0080872 -1.1317749l0.14761353 -2.723816l2.3937988 -2.128296l4.3918457 0.25585938l7.129242 8.004089l-4.308838 3.8309631zm-6.877777 6.1150208l-9.197357 -10.325989l4.332184 -3.851715l9.197357 10.325958l-4.332184 3.8517456zm20.149445 -17.914825l-12.6996155 -14.257996l4.2971497 -3.8205872l12.699646 14.257996l-4.29718 3.8205872zm-4.729187 4.2047424l-4.3918457 -0.25585938l-5.061157 -5.6822205l0.25564575 -4.387909l4.051941 -3.6025696l2.2967224 2.5785828l-2.0785217 1.8480225l4.7493896 5.3321533l2.0785217 -1.847992l1.2471008 1.400116l-0.1234436 1.9287109l-3.024353 2.6889648zm11.056885 -9.830627l-9.197388 -10.325989l4.29718 -3.8205872l9.197357 10.325989l-4.2971497 3.8205872zm2.1531677 -11.301941l-2.2344055 -2.5085754l-1.8332825 1.6299744l-1.0080872 -1.1317749l0.14761353 -2.7237854l2.604004 -2.3151855l4.253113 0.54644775l2.3798828 2.6719055l-4.308838 3.8309937zm15.188232 -4.116272l-2.4526062 -2.753601l1.2961426 -1.1524048l-6.5888367 -7.397339l-1.2961426 1.1524048l-2.4422607 -2.7419434l6.8894653 -6.1253967l2.4422607 2.7419128l-1.2961731 1.1524048l6.588867 7.3973694l1.2961426 -1.1524048l2.4526367 2.753601l-6.889496 6.1253967zm15.507629 -13.78775l-6.9006042 -7.747406l-1.8450012 1.6403503l-1.0080566 -1.1317749l0.14761353 -2.7237854l2.3937988 -2.1283264l4.3918457 0.2558899l7.129242 8.004089l-4.308838 3.8309631zm-6.8778076 6.1150208l-9.197357 -10.325989l4.3322144 -3.851715l9.197357 10.325958l-4.3322144 3.8517456zm20.149475 -17.914825l-12.6996155 -14.258011l4.2971497 -3.8205872l12.699646 14.258011l-4.29718 3.8205872zm-4.7292175 4.2047424l-4.3918457 -0.25585938l-5.0611267 -5.6822205l0.25561523 -4.387909l4.051941 -3.6025696l2.296753 2.5785828l-2.0785217 1.847992l4.749359 5.332184l2.0785217 -1.8480225l1.2471008 1.4001465l-0.123413086 1.9287109l-3.0243835 2.6889648zm13.555786 -12.052399l-4.889038 -0.2737732l-6.900635 -7.7473907l4.2971497 -3.8205872l6.900635 7.7473907l1.9150391 -1.702652l1.1431885 1.2834625l-0.084228516 2.3955994l-2.3821106 2.1179504zm4.308838 -3.8309631l-9.197357 -10.325989l4.2971497 -3.8205872l9.197357 10.3259735l-4.2971497 3.8206024zm12.956421 -11.519516l-3.4710999 -3.8970337l-4.647461 4.1320496l-4.154236 -0.15351868l-1.7459412 -1.9601746l0.25564575 -4.387909l1.7282104 -1.5365448l3.2528381 3.652008l4.8927 -4.350067l4.2477417 0.2585144l1.7875061 2.0068665l-0.25421143 4.5539246l-1.8916931 1.6818848zm-6.786316 -7.619049l-0.71707153 -0.80506897l-2.1602478 1.9206696l-1.6940002 -1.9018402l4.565735 -4.059387l2.913208 0.16972351l1.0392456 1.1667786l-3.946869 3.5091248zm1.6717529 12.166382l-3.6780396 -0.53507996l-0.737854 -0.8284149l4.308838 -3.8309631l0.9457092 1.0617676l1.9033813 -1.692276l1.6835632 1.8901825l-4.425598 3.934784zm13.9782715 -12.42804l-4.889038 -0.2737732l-4.6038513 -5.1688232l-0.8524475 0.7578888l-2.2967224 -2.5785675l0.852417 -0.7578888l-0.9873047 -1.1084442l2.998108 -5.2790527l9.186981 10.314301l2.8375244 -2.5228271l2.296753 2.5785675l-4.5424194 4.03862zm-4.5184937 -9.865341l-2.2967224 -2.5785675l2.323761 -2.0660248l2.296692 2.5785675l-2.3237305 2.0660248zm10.917908 4.175659l-9.197388 -10.3259735l4.29718 -3.8205872l9.197388 10.3259735l-4.29718 3.8205872zm2.1531982 -11.301926l-2.234436 -2.5085754l-1.833252 1.6299744l-1.0081177 -1.1317749l0.14764404 -2.7237854l2.604004 -2.3152008l4.253113 0.546463l2.3798828 2.6719208l-4.308838 3.8309784zm-0.023498535 -11.394714l-2.4422607 -2.741928l4.308838 -3.8309784l2.4422607 2.741928l-4.308838 3.8309784zm10.340515 11.609421l-9.197388 -10.3259735l4.308838 -3.8309784l9.197388 10.3259735l-4.308838 3.8309784zm8.80011 -7.824127l-4.8773804 -0.2841339l-4.603882 -5.1688232l0.2838745 -4.8730164l1.7165527 -1.5261536l9.197327 10.3259735l-1.7164917 1.5261536zm-1.2838745 -6.2807465l-1.6004639 -1.7968445l2.2653809 -2.0141144l-1.6108398 -1.8085022l-2.2653809 2.0141144l-2.296753 -2.5785828l3.6432495 -3.2391815l4.8773804 0.2841339l3.2113037 3.6053467l-6.223877 5.5336304zm3.689331 4.1420593l-2.151245 -2.4152374l5.7684937 -5.128723l0.99768066 1.1201019l-0.13092041 2.437149l-4.484009 3.9867096zm14.6866455 -13.057831l-3.4711304 -3.8970337l-4.647461 4.1320496l-4.154236 -0.15351868l-1.7459106 -1.9601898l0.25561523 -4.387909l1.7282104 -1.5365448l3.2528687 3.6520233l4.8927 -4.3500824l4.2477417 0.25852966l1.7874756 2.0068512l-0.25421143 4.55394l-1.8916626 1.6818848zm-6.786316 -7.619049l-0.71710205 -0.8050842l-2.1602173 1.9206848l-1.6940308 -1.9018555l4.565735 -4.059372l2.913208 0.16972351l1.0392456 1.1667633l-3.9468384 3.50914zm1.6717529 12.166382l-3.6780396 -0.53507996l-0.737854 -0.8284149l4.308838 -3.8309784l0.9456787 1.0617676l1.9033813 -1.6922607l1.6835938 1.8901672l-4.425598 3.9347992z" fill-rule="nonzero"/><path fill="#666666" d="m282.0 144.2441l0 0c0 -13.941925 10.745178 -25.244095 24.0 -25.244095l0 0c6.365204 0 12.469696 2.6596375 16.97055 7.3938217c4.500885 4.7341843 7.0294495 11.1551285 7.0294495 17.850273l0 0c0 13.941925 -10.745178 25.244095 -24.0 25.244095l0 0c-13.254822 0 -24.0 -11.30217 -24.0 -25.244095z" fill-rule="evenodd"/><path stroke="#000000" stroke-width="8.0" stroke-linejoin="round" stroke-linecap="butt" d="m282.0 144.2441l0 0c0 -13.941925 10.745178 -25.244095 24.0 -25.244095l0 0c6.365204 0 12.469696 2.6596375 16.97055 7.3938217c4.500885 4.7341843 7.0294495 11.1551285 7.0294495 17.850273l0 0c0 13.941925 -10.745178 25.244095 -24.0 25.244095l0 0c-13.254822 0 -24.0 -11.30217 -24.0 -25.244095z" fill-rule="evenodd"/><path fill="#666666" d="m591.0 144.2441l0 0c0 -13.941925 10.745178 -25.244095 24.0 -25.244095l0 0c6.3651733 0 12.469666 2.6596375 16.970581 7.3938217c4.5008545 4.7341843 7.029419 11.1551285 7.029419 17.850273l0 0c0 13.941925 -10.745178 25.244095 -24.0 25.244095l0 0c-13.254822 0 -24.0 -11.30217 -24.0 -25.244095z" fill-rule="evenodd"/><path stroke="#000000" stroke-width="8.0" stroke-linejoin="round" stroke-linecap="butt" d="m591.0 144.2441l0 0c0 -13.941925 10.745178 -25.244095 24.0 -25.244095l0 0c6.3651733 0 12.469666 2.6596375 16.970581 7.3938217c4.5008545 4.7341843 7.029419 11.1551285 7.029419 17.850273l0 0c0 13.941925 -10.745178 25.244095 -24.0 25.244095l0 0c-13.254822 0 -24.0 -11.30217 -24.0 -25.244095z" fill-rule="evenodd"/><path fill="#666666" d="m282.0 406.24408l0 0c0 -13.941925 10.745178 -25.24408 24.0 -25.24408l0 0c6.365204 0 12.469696 2.6596375 16.97055 7.3938293c4.500885 4.734192 7.0294495 11.155121 7.0294495 17.85025l0 0c0 13.941956 -10.745178 25.24411 -24.0 25.24411l0 0c-13.254822 0 -24.0 -11.302155 -24.0 -25.24411z" fill-rule="evenodd"/><path stroke="#000000" stroke-width="8.0" stroke-linejoin="round" stroke-linecap="butt" d="m282.0 406.24408l0 0c0 -13.941925 10.745178 -25.24408 24.0 -25.24408l0 0c6.365204 0 12.469696 2.6596375 16.97055 7.3938293c4.500885 4.734192 7.0294495 11.155121 7.0294495 17.85025l0 0c0 13.941956 -10.745178 25.24411 -24.0 25.24411l0 0c-13.254822 0 -24.0 -11.302155 -24.0 -25.24411z" fill-rule="evenodd"/><path fill="#666666" d="m591.0 406.24408l0 0c0 -13.941925 10.745178 -25.24408 24.0 -25.24408l0 0c6.3651733 0 12.469666 2.6596375 16.970581 7.3938293c4.5008545 4.734192 7.029419 11.155121 7.029419 17.85025l0 0c0 13.941956 -10.745178 25.24411 -24.0 25.24411l0 0c-13.254822 0 -24.0 -11.302155 -24.0 -25.24411z" fill-rule="evenodd"/><path stroke="#000000" stroke-width="8.0" stroke-linejoin="round" stroke-linecap="butt" d="m591.0 406.24408l0 0c0 -13.941925 10.745178 -25.24408 24.0 -25.24408l0 0c6.3651733 0 12.469666 2.6596375 16.970581 7.3938293c4.5008545 4.734192 7.029419 11.155121 7.029419 17.85025l0 0c0 13.941956 -10.745178 25.24411 -24.0 25.24411l0 0c-13.254822 0 -24.0 -11.302155 -24.0 -25.24411z" fill-rule="evenodd"/></g></svg>