<?xml version="1.0" encoding="UTF-8" standalone="no"?>
<!-- Created with Inkscape (http://www.inkscape.org/) -->

<svg
   width="210mm"
   height="210mm"
   viewBox="0 0 210 210"
   version="1.1"
   id="svg12"
   inkscape:version="1.1 (c68e22c387, 2021-05-23)"
   sodipodi:docname="tree.svg"
   xmlns:inkscape="http://www.inkscape.org/namespaces/inkscape"
   xmlns:sodipodi="http://sodipodi.sourceforge.net/DTD/sodipodi-0.dtd"
   xmlns="http://www.w3.org/2000/svg"
   xmlns:svg="http://www.w3.org/2000/svg">
  <sodipodi:namedview
     id="namedview14"
     pagecolor="#ffffff"
     bordercolor="#666666"
     borderopacity="1.0"
     inkscape:pageshadow="2"
     inkscape:pageopacity="0.0"
     inkscape:pagecheckerboard="0"
     inkscape:document-units="px"
     showgrid="false"
     inkscape:snap-global="true"
     inkscape:zoom="0.70710678"
     inkscape:cx="404.46508"
     inkscape:cy="351.43207"
     inkscape:window-width="1920"
     inkscape:window-height="1004"
     inkscape:window-x="0"
     inkscape:window-y="0"
     inkscape:window-maximized="1"
     inkscape:current-layer="layer1" />
  <defs
     id="defs9" />
  <g
     inkscape:label="圖層 1"
     inkscape:groupmode="layer"
     id="layer1">
    <path
       id="path4247"
       style="opacity:0.8;fill:#004300;stroke-width:0.307448;fill-opacity:1"
       d="m 183.51181,174.69499 c -7.55311,8.50861 -23.53667,1.51041 -33.34941,7.26855 -9.81275,5.75815 -11.49885,23.12496 -22.61068,25.56897 -11.11185,2.44402 -19.92938,-12.61255 -31.252602,-13.72189 -11.323226,-1.10937 -22.895269,11.94961 -33.32149,7.39549 -10.426222,-4.55412 -8.709726,-21.91796 -17.218351,-29.47107 -8.508624,-7.55311 -25.546473,-3.79005 -31.304616,-13.6028 -5.7581432,-9.81274 5.836733,-22.85145 3.392719,-33.9633 C 15.403366,113.05712 -0.59241266,106.0869 0.51693698,94.763669 1.6262877,83.440429 18.6707,79.707199 23.224825,69.280979 27.778949,58.854759 18.935087,43.813647 26.488195,35.305023 34.041304,26.796398 50.024864,33.7946 59.837609,28.036457 69.650353,22.278316 71.336461,4.9115075 82.448297,2.4674925 93.560134,0.02347753 102.37766,15.080042 113.7009,16.189394 c 11.32321,1.10935 22.89525,-11.9496235 33.32148,-7.3954985 10.42622,4.5541255 8.70973,21.9179565 17.21835,29.4710675 8.50862,7.553112 25.54647,3.790056 31.30461,13.602791 5.75816,9.812745 -5.83673,22.851455 -3.39272,33.963305 2.44402,11.11183 18.43981,18.082041 17.33044,29.405281 -1.10935,11.32323 -18.15375,15.05647 -22.70788,25.48269 -4.55412,10.42621 4.28974,25.46733 -3.26337,33.97596 z"
       sodipodi:nodetypes="zzzzzzzzzzzzzzzzzzzzz"
       inkscape:transform-center-x="4.0300279e-06"
       inkscape:transform-center-y="-1.7459429e-06" />
    <circle
       style="opacity:1;fill:#28170b;stroke-width:0.429798"
       id="path6885"
       cx="105"
       cy="105"
       r="28.759676" />
    <circle
       style="opacity:1;fill:#502d16;stroke-width:0.275215"
       id="path7091"
       cx="105"
       cy="105"
       r="23.301632" />
  </g>
</svg>
