<?xml version="1.0" encoding="UTF-8" standalone="no"?>
<!-- Created with Inkscape (http://www.inkscape.org/) -->

<svg
   width="100.0px"
   height="100.0px"
   viewBox="0 0 100.0 100.0"
   version="1.1"
   id="SVGRoot"
   sodipodi:docname="mp4.5.svg"
   inkscape:version="1.2.2 (b0a8486541, 2022-12-01)"
   xmlns:inkscape="http://www.inkscape.org/namespaces/inkscape"
   xmlns:sodipodi="http://sodipodi.sourceforge.net/DTD/sodipodi-0.dtd"
   xmlns="http://www.w3.org/2000/svg"
   xmlns:svg="http://www.w3.org/2000/svg">
  <sodipodi:namedview
     id="namedview14589"
     pagecolor="#ffffff"
     bordercolor="#666666"
     borderopacity="1.0"
     inkscape:showpageshadow="2"
     inkscape:pageopacity="0.0"
     inkscape:pagecheckerboard="0"
     inkscape:deskcolor="#d1d1d1"
     inkscape:document-units="px"
     showgrid="true"
     inkscape:zoom="4.1474471"
     inkscape:cx="7.1128092"
     inkscape:cy="26.160671"
     inkscape:window-width="1920"
     inkscape:window-height="1002"
     inkscape:window-x="0"
     inkscape:window-y="0"
     inkscape:window-maximized="1"
     inkscape:current-layer="layer1"
     showguides="true"
     showborder="true" />
  <defs
     id="defs14584" />
  <g
     inkscape:label="圖層 1"
     inkscape:groupmode="layer"
     id="layer1">
    <path
       d="m 36.64408,30.432978 -3.834907,-2.214083 1.466143,-2.538043 3.834904,2.214087 z M 51.118076,19.196922 49.623569,18.333268 c -1.486414,-0.858176 -2.02642,0.436287 -2.885724,1.922041 l -0.289251,0.502388 2.826306,1.631774 1.842855,-3.190525 z m 25.903162,13.907161 -2.931811,-0.393718 -0.856863,2.877779 5.730595,3.309364 c 0.972666,-1.859053 0.718003,-3.570244 -1.511041,-4.857188 z m -70.9244029,26.07041 2.374033,6.15104 C 18.865542,61.305981 28.739779,56.052381 37.881378,49.677637 L 31.540204,46.016562 C 23.559451,51.308446 15.028844,55.720089 6.0977151,59.174257 Z M 84.574495,80.874641 c 1.86286,-3.81606 8.792347,-17.245752 8.792347,-17.245752 1.096961,-1.899993 1.578838,-3.678026 -0.270197,-4.744815 -1.31308,-0.758908 -5.491846,-0.750847 -5.491846,-0.750847 l -4.134639,6.397577 c 0,0 2.797906,0.03618 2.542075,1.452644 -1.05678,4.421186 -2.191599,9.69584 -3.948449,14.042659 -0.663754,1.646733 1.502781,2.906602 2.505847,0.851742 z M 33.41594,43.044866 44.544642,23.767999 83.797715,46.431575 c 0.67062,0.387885 1.069682,1.116713 1.035285,1.890675 l -0.29387,6.877333 -4.779208,8.13729 c 0,0 -1.288347,-0.933154 -8.399452,-5.039505 l -0.342587,-0.19779 c -2.746295,-1.58557 -7.397662,-1.226098 -7.967302,1.849064 -0.240278,1.293216 0.547145,15.753932 0.547145,15.753932 0.031,0.900289 -0.70836,1.637817 -1.608587,1.604594 l -9.059184,-0.327472 c -0.230308,0.01834 -0.461426,-0.02346 -0.670742,-0.121291 -0.795381,-0.458411 0.755739,-2.149574 0.95477,-3.731804 0.199926,-1.582467 0.489472,-5.532313 0.755512,-9.420595 0.04243,-0.642985 -0.417085,-1.210352 -1.054851,-1.302451 -1.570101,-0.221332 -8.363454,-3.37642 -8.873942,-3.671149 l -0.01125,-0.0065 C 42.551942,57.826293 43.01073,51.9164 43.326961,50.09606 43.452539,49.372278 43.112498,48.647147 42.47573,48.280848 41.087459,47.604051 33.414115,43.045364 33.414115,43.045364 Z m 22.761701,15.619943 c 0.07546,-1.150356 0.147227,-2.300948 0.215352,-3.451759 0.05542,-0.89629 -0.401598,-1.746622 -1.179684,-2.194929 l -6.755662,-3.89958 c -0.630633,-0.363297 -1.430407,0.01102 -1.554801,0.728109 -0.292492,1.692039 -0.600216,6.206876 0.283978,6.744406 l 0.06197,0.03578 c 1.066979,0.615221 6.200938,2.913737 7.596479,3.11992 0.887508,-0.153965 1.065356,-0.567419 1.332587,-1.08103 z M 46.26513,36.495555 72.705132,51.7615 c 0.981736,0.566603 2.236914,0.230056 2.803414,-0.752071 0.566757,-0.98165 0.230059,-2.236913 -0.752071,-2.803414 L 48.316699,32.940998 c -1.198761,-0.701868 -2.306534,-0.06877 -2.838254,0.831911 -0.531726,0.900682 -0.195415,2.155804 0.786173,2.722393 z"
       fill="#ffffff"
       stroke="#323232"
       stroke-width="38.3167"
       id="path15960"
       sodipodi:nodetypes="ccccccccccccccccccccccccccccccccccccccccsccccccccscccccccccccccccccsccccc"
       style="stroke:#323232;stroke-width:2.60409;stroke-linecap:square;stroke-miterlimit:10;stroke-dasharray:none;stroke-opacity:1" />
  </g>
</svg>
