<?xml version="1.0" encoding="UTF-8" standalone="no"?>
<!-- Created with Inkscape (http://www.inkscape.org/) -->

<svg
   width="210mm"
   height="297mm"
   viewBox="0 0 210 297"
   version="1.1"
   id="svg1"
   xml:space="preserve"
   inkscape:version="1.3 (0e150ed6c4, 2023-07-21)"
   sodipodi:docname="scout 22.svg"
   xmlns:inkscape="http://www.inkscape.org/namespaces/inkscape"
   xmlns:sodipodi="http://sodipodi.sourceforge.net/DTD/sodipodi-0.dtd"
   xmlns="http://www.w3.org/2000/svg"
   xmlns:svg="http://www.w3.org/2000/svg"><sodipodi:namedview
     id="namedview1"
     pagecolor="#ffffff"
     bordercolor="#000000"
     borderopacity="0.25"
     inkscape:showpageshadow="2"
     inkscape:pageopacity="0.0"
     inkscape:pagecheckerboard="0"
     inkscape:deskcolor="#d1d1d1"
     inkscape:document-units="mm"
     inkscape:zoom="0.32"
     inkscape:cx="278.125"
     inkscape:cy="301.5625"
     inkscape:window-width="1920"
     inkscape:window-height="1001"
     inkscape:window-x="-9"
     inkscape:window-y="-9"
     inkscape:window-maximized="1"
     inkscape:current-layer="layer1" /><defs
     id="defs1" /><g
     inkscape:label="Layer 1"
     inkscape:groupmode="layer"
     id="layer1"><g
       id="g20"
       transform="matrix(-0.70710678,-0.70710678,-0.70710678,0.70710678,265.34305,140.40542)"><path
         style="fill:#181818;fill-opacity:1;fill-rule:evenodd;stroke:#181818;stroke-width:1.05833;stroke-linecap:round;stroke-linejoin:round;stroke-dasharray:none;stroke-opacity:1"
         d="m 52.652781,130.50618 c 1.04431,-1.59809 2.358025,-2.38241 4.202882,-2.2015 l 0.116748,2.80191 z"
         id="path8"
         sodipodi:nodetypes="cccc" /><path
         style="fill:#181818;fill-opacity:1;fill-rule:evenodd;stroke:#181818;stroke-width:1.05833;stroke-linecap:round;stroke-linejoin:round;stroke-dasharray:none;stroke-opacity:1"
         d="m 81.605972,137.34421 2.193172,0.65044 19.129786,-0.95065 2.25988,-1.03404 -11.274393,-3.16885 z"
         id="path4"
         sodipodi:nodetypes="cccccc" /><path
         style="fill:#181818;fill-opacity:1;fill-rule:evenodd;stroke:#181818;stroke-width:1.05833;stroke-linecap:round;stroke-linejoin:round;stroke-dasharray:none;stroke-opacity:1"
         d="m 24.122474,150.01738 -2.680961,1.27983 -19.8097589,0.93823 -3.8179747,-1.53479 18.3664936,-5.21971 z"
         id="path5"
         sodipodi:nodetypes="cccccc" /><path
         style="fill:#181818;fill-opacity:1;fill-rule:evenodd;stroke:#181818;stroke-width:2.11667;stroke-linecap:round;stroke-linejoin:round;stroke-dasharray:none;stroke-opacity:1"
         d="m -9.1490843,158.58144 -7.1678257,0.0667 c -1.700521,-0.35454 -4.016409,-0.0575 -3.70618,-2.54108 l 1.683303,-27.24156 c 0.616043,-1.5619 1.686611,-2.72228 2.659015,-3.15571 l 6.3403383,0.007 c -0.065489,10.60882 -0.438926,22.25543 0.1913494,32.86425 z"
         id="path1"
         sodipodi:nodetypes="cccccccc" /><path
         style="display:inline;fill:#ffffff;fill-opacity:1;fill-rule:evenodd;stroke:#181818;stroke-width:2.11667;stroke-linecap:round;stroke-linejoin:round;stroke-dasharray:none;stroke-opacity:1"
         d="m -11.253948,157.23931 c 1.7438926,0.29888 4.0294109,2.89968 5.2310339,0.89391 l 4.3546968,-7.40711 7.7463134,-0.0329 1.3156068,-2.76178 7.2975621,-0.0581 1.198369,2.29005 8.243795,-0.45791 16.087723,4.79495 c 1.155555,0.10946 1.315873,0.42399 3.169253,-2.19961 1.85338,-2.6236 6.672772,-15.48647 16.650113,-12.40206 3.913588,-5.51362 13.403698,-6.2876 19.98815,-3.05044 l 8.679796,-0.42456 0.967042,-2.45299 6.863645,-0.37734 1.721808,2.26429 17.147311,-0.49531 71.53757,-2.68885 c 0.82141,-0.67227 1.59952,-1.35897 0.94345,-2.52374 l -2.52375,-5.33053 -109.912633,0.25945 c -9.068322,0.1177 -17.917221,2.7925 -27.289472,8.30241 -3.511989,2.30737 -7.299668,3.48017 -12.430032,-0.87269 -5.921667,-5.8229 -12.004921,-4.45519 -18.0436,-5.07107 l -27.3130556,-1.67463 z"
         id="path2"
         sodipodi:nodetypes="ccccccccczcccccccccccccccc" /><path
         style="fill:none;fill-opacity:1;fill-rule:evenodd;stroke:#181818;stroke-width:2.11667;stroke-linecap:round;stroke-linejoin:round;stroke-dasharray:none;stroke-opacity:1"
         d="m 60.381194,139.77303 c 1.385529,2.04371 4.442268,4.21556 6.321156,4.81163 1.878888,0.59607 3.862624,0.86405 5.920186,0.0236 2.057562,-0.84044 4.885604,-4.4916 5.825842,-7.75993"
         id="path3"
         sodipodi:nodetypes="czzc" /><rect
         style="fill:#ffffff;fill-opacity:1;fill-rule:evenodd;stroke:#181818;stroke-width:2.11667;stroke-linecap:round;stroke-linejoin:round;stroke-dasharray:none;stroke-opacity:1"
         id="rect3"
         width="51.035004"
         height="1.5343909"
         x="183.72601"
         y="122.55072" /><path
         style="fill:#181818;fill-opacity:1;fill-rule:evenodd;stroke:#181818;stroke-width:1.05833;stroke-linecap:round;stroke-linejoin:round;stroke-dasharray:none;stroke-opacity:1"
         d="m -6.7498919,137.76116 0.1118618,-2.55175 c 0.1734194,-0.32453 0.1707237,-0.69518 1.6138733,-0.68716 l 23.9379678,0.10123 c 1.236936,0.13447 2.129467,0.0726 0.811994,2.05407 l -3.39661,4.65285 c -0.829532,0.95052 -1.770711,1.7868 -3.930106,1.37653 l -16.9717515,-3.18671 c -1.4695163,-0.21446 -2.2792091,-0.75884 -2.1772294,-1.75906 z"
         id="path6"
         sodipodi:nodetypes="ccccccccc" /><path
         style="fill:#181818;fill-opacity:1;fill-rule:evenodd;stroke:#181818;stroke-width:1.05833;stroke-linecap:round;stroke-linejoin:round;stroke-dasharray:none;stroke-opacity:1"
         d="m 121.96373,133.15277 35.03203,-1.28643 c 1.0711,-0.26179 1.98671,-0.76753 2.42804,-2.01735 0.22265,-0.64321 0.20905,-1.28642 0.26731,-1.92963 -0.0516,-0.78402 -0.76813,-0.74464 -1.4108,-0.79671 l -33.29452,0.1608 c -1.14657,0.0723 -2.11136,1.3715 -2.85128,2.54362 -0.36707,0.7096 -0.70594,1.43507 -0.93557,2.222 -0.12939,0.44688 -0.29807,1.0288 0.76479,1.1037 z"
         id="path7"
         sodipodi:nodetypes="ccccccccc" /><path
         style="fill:#ffffff;fill-opacity:1;fill-rule:evenodd;stroke:#181818;stroke-width:2.11667;stroke-linecap:round;stroke-linejoin:round;stroke-dasharray:none;stroke-opacity:1"
         d="m 61.442581,127.36658 c 0.18753,-1.67543 0.527674,-3.32701 1.710014,-4.847 2.013496,-1.04951 4.052442,-1.46278 6.097086,-1.73361 l 3.514374,-0.40096 9.06325,0.21395 20.075725,-0.11508 71.93282,-0.32067 4.59125,0.69546 c 4.88335,0.31829 5.89153,2.32917 7.00921,4.29223 z"
         id="path9"
         sodipodi:nodetypes="cccccccccc" /><rect
         style="fill:#ffffff;fill-opacity:1;fill-rule:evenodd;stroke:#181818;stroke-width:1.05833;stroke-linecap:round;stroke-linejoin:round;stroke-dasharray:none;stroke-opacity:1"
         id="rect9"
         width="0.91729581"
         height="1.1007551"
         x="141.68051"
         y="118.71476" /><rect
         style="fill:#ffffff;fill-opacity:1;fill-rule:evenodd;stroke:#181818;stroke-width:1.05833;stroke-linecap:round;stroke-linejoin:round;stroke-dasharray:none;stroke-opacity:1"
         id="rect10"
         width="0.91729581"
         height="1.1007551"
         x="144.23225"
         y="118.71476" /><rect
         style="fill:#ffffff;fill-opacity:1;fill-rule:evenodd;stroke:#181818;stroke-width:1.05833;stroke-linecap:round;stroke-linejoin:round;stroke-dasharray:none;stroke-opacity:1"
         id="rect11"
         width="0.91729581"
         height="1.1007551"
         x="146.78401"
         y="118.71476" /><rect
         style="fill:#ffffff;fill-opacity:1;fill-rule:evenodd;stroke:#181818;stroke-width:1.05833;stroke-linecap:round;stroke-linejoin:round;stroke-dasharray:none;stroke-opacity:1"
         id="rect12"
         width="0.91729581"
         height="1.1007551"
         x="149.33575"
         y="118.71476" /><rect
         style="fill:#ffffff;fill-opacity:1;fill-rule:evenodd;stroke:#181818;stroke-width:1.05833;stroke-linecap:round;stroke-linejoin:round;stroke-dasharray:none;stroke-opacity:1"
         id="rect13"
         width="0.91729581"
         height="1.1007551"
         x="126.16988"
         y="118.71476" /><rect
         style="fill:#ffffff;fill-opacity:1;fill-rule:evenodd;stroke:#181818;stroke-width:1.05833;stroke-linecap:round;stroke-linejoin:round;stroke-dasharray:none;stroke-opacity:1"
         id="rect14"
         width="0.91729581"
         height="1.1007551"
         x="123.61813"
         y="118.71476" /><rect
         style="fill:#ffffff;fill-opacity:1;fill-rule:evenodd;stroke:#181818;stroke-width:1.05833;stroke-linecap:round;stroke-linejoin:round;stroke-dasharray:none;stroke-opacity:1"
         id="rect15"
         width="0.91729581"
         height="1.1007551"
         x="121.06638"
         y="118.71476" /><rect
         style="fill:#ffffff;fill-opacity:1;fill-rule:evenodd;stroke:#181818;stroke-width:1.05833;stroke-linecap:round;stroke-linejoin:round;stroke-dasharray:none;stroke-opacity:1"
         id="rect16"
         width="0.91729581"
         height="1.1007551"
         x="118.51463"
         y="118.71476" /><rect
         style="fill:#181818;fill-opacity:1;fill-rule:evenodd;stroke:#181818;stroke-width:1.05833;stroke-linecap:round;stroke-linejoin:round;stroke-dasharray:none;stroke-opacity:1"
         id="rect17"
         width="10.799306"
         height="1.4221725"
         x="106.08085"
         y="118.62684" /><rect
         style="fill:#181818;fill-opacity:1;fill-rule:evenodd;stroke:#181818;stroke-width:1.05833;stroke-linecap:round;stroke-linejoin:round;stroke-dasharray:none;stroke-opacity:1"
         id="rect18"
         width="2.9247131"
         height="1.2029096"
         x="101.89326"
         y="118.75754" /><rect
         style="fill:#181818;fill-opacity:1;fill-rule:evenodd;stroke:#181818;stroke-width:1.05833;stroke-linecap:round;stroke-linejoin:round;stroke-dasharray:none;stroke-opacity:1"
         id="rect19"
         width="11.722443"
         height="1.8869114"
         x="128.61667"
         y="118.71038" /><rect
         style="fill:#181818;fill-opacity:1;fill-rule:evenodd;stroke:#181818;stroke-width:1.05833;stroke-linecap:round;stroke-linejoin:round;stroke-dasharray:none;stroke-opacity:1"
         id="rect20"
         width="11.580917"
         height="1.2264923"
         x="151.68417"
         y="118.73395" /><path
         style="fill:#181818;fill-opacity:1;fill-rule:evenodd;stroke:#181818;stroke-width:2.11667;stroke-linecap:round;stroke-linejoin:round;stroke-dasharray:none;stroke-opacity:1"
         d="m 68.51366,136.05999 c -0.534067,1.99026 -0.300568,3.98051 0.80055,5.97076"
         id="path20"
         sodipodi:nodetypes="cc" /></g></g></svg>
