<?xml version="1.0" encoding="UTF-8" standalone="no"?>
<!-- Created with Inkscape (http://www.inkscape.org/) -->

<svg
   width="210mm"
   height="297mm"
   viewBox="0 0 210 297"
   version="1.1"
   id="svg1"
   xml:space="preserve"
   inkscape:version="1.3 (0e150ed6c4, 2023-07-21)"
   sodipodi:docname="drawing-2.svg"
   xmlns:inkscape="http://www.inkscape.org/namespaces/inkscape"
   xmlns:sodipodi="http://sodipodi.sourceforge.net/DTD/sodipodi-0.dtd"
   xmlns="http://www.w3.org/2000/svg"
   xmlns:svg="http://www.w3.org/2000/svg"><sodipodi:namedview
     id="namedview1"
     pagecolor="#ffffff"
     bordercolor="#000000"
     borderopacity="0.25"
     inkscape:showpageshadow="2"
     inkscape:pageopacity="0.0"
     inkscape:pagecheckerboard="0"
     inkscape:deskcolor="#d1d1d1"
     inkscape:document-units="mm"
     inkscape:zoom="2.8044052"
     inkscape:cx="346.95415"
     inkscape:cy="381.00771"
     inkscape:window-width="1920"
     inkscape:window-height="1001"
     inkscape:window-x="-9"
     inkscape:window-y="-9"
     inkscape:window-maximized="1"
     inkscape:current-layer="layer1" /><defs
     id="defs1"><style
       id="style2">&#10;      .cls-1 {&#10;        fill: #fff;&#10;      }&#10;&#10;      .cls-1, .cls-2 {&#10;        stroke-width: 4px;&#10;      }&#10;&#10;      .cls-1, .cls-2, .cls-3 {&#10;        stroke: #231f20;&#10;        stroke-miterlimit: 10;&#10;      }&#10;&#10;      .cls-2 {&#10;        fill: #231f20;&#10;      }&#10;&#10;      .cls-3 {&#10;        fill: none;&#10;        stroke-width: 6px;&#10;      }&#10;    </style></defs><g
     inkscape:label="Layer 1"
     inkscape:groupmode="layer"
     id="layer1"><g
       id="g8"
       transform="matrix(0.26458333,0,0,0.26458333,41.441222,-44.368035)"><path
         class="cls-1"
         d="m 387.51476,351.90867 v 27.46 c 0,3.24 -4,4.76 -6.14,2.33 -32.72,-37.16 -187.03,-211.99 -240.57,-265.53 -0.04,0.04 -37.39,-37.370006 -46.010005,-46.010006 -0.97,-0.98 -0.97,-2.55 0,-3.53 l 7.480005,-7.48 c 0.98,-0.98 2.56,-0.98 3.54,0 l 273.88,273.880006 c 5.01,5.01 7.82,11.8 7.82,18.88 z"
         id="path6"
         style="stroke-width:7.718;stroke-dasharray:none" /><line
         class="cls-1"
         x1="387.5148"
         y1="351.90866"
         x2="98.504776"
         y2="62.908665"
         id="line8"
         style="stroke-width:4;stroke-dasharray:none" /><path
         class="cls-2"
         d="M 101.24585,57.824033 49.994745,6.5729329 c -0.98287,-0.9828784 -2.58093,-0.9828784 -3.56381,0 l -3.50725,3.5072501 c -0.98288,0.982878 -0.98288,2.58094 0,3.563818 l 51.2511,51.251099 z"
         id="path10" /><polygon
         class="cls-2"
         points="869,2.83 873.84,7.67 865.04,16.47 865.04,6.79 "
         id="polygon12"
         transform="matrix(-1,0,0,1,924.92476,-0.00133625)" /><path
         class="cls-2"
         d="m 393.71476,368.05867 v -29.97 c 0,0 46.1,46.1 46.1,46.1 l -7.49,7.49 156.37,156.37 c 2.07,2.07 2.07,5.42 0,7.49 v 0 c -2.07,2.07 -5.42,2.07 -7.49,0 l -187.49,-187.49 z"
         id="path14"
         style="display:inline" /><path
         class="cls-1"
         d="m 574.02476,570.21867 c 0,0 -9.82,-29.93 0,-39.76 -0.24,-0.24 -40.46,-40.46 -40.46,-40.46 h -10.76 l -39.56,-39.56 v -13.87 l -96.46,-96.46 v 44.06 c 0,0 187.25,186.05 187.25,186.05 z"
         id="path16"
         style="stroke-width:7.718;stroke-dasharray:none" /><path
         class="cls-2"
         d="m 523.32476,468.72867 c 1.95,-1.95 5.12,-1.95 7.07,0 1.95,1.95 1.95,5.12 0,7.07 -1.58,1.58 -3.95,1.86 -5.83,0.88 l -6.09,6.09 -2.12,-2.12 6.09,-6.09 c -0.98,-1.88 -0.7,-4.25 0.88,-5.83 z"
         id="path18" /><polygon
         class="cls-1"
         points="486.06,376.18 489.59,379.71 506.33,362.98 499.26,362.98 "
         id="polygon20"
         transform="matrix(-1,0,0,1,924.92476,-0.00133625)" /><path
         class="cls-2"
         d="m 478.48476,478.44867 87.84,87.84 5.81,5.81 -5.81,5.81 -7.94,7.94 c -0.39,0.39 -1.02,0.39 -1.41,0 l -63.98,-63.98 c -9.29,-9.29 -14.51,-21.89 -14.51,-35.02 -26.18,-30.91 -57.07,-65.47 -89.88,-98.28 z m 52.9,69.5 c -2.33,2.33 -2.33,6.14 0,8.46 l 24.84,24.84 6.38,-6.38 c 2.33,-2.33 2.33,-6.14 0,-8.46 l -24.84,-24.84 z"
         id="path22"
         style="display:inline" /><path
         class="cls-3"
         d="m 559.91476,563.73867 c 0,0 -4.93,5.79 -10.72,0"
         id="path24" /><path
         class="cls-1"
         d="m 721.09475,727.94867 -13.47,10.16 c -5.29,3.99 -10.03,8.67 -14.09,13.91 l -10.13,13.09 c -5.31,6.87 -15.89999,6.11 -20.18999,-1.44 l -109.29,-180.72 18.4,-18.4 c 0,0 32.54,41.77 52.92,47.96 24.87,23.68 97.11999,97.12 97.11999,97.12 5.22,5.22 4.62,13.86 -1.28,18.31 z"
         id="path26"
         style="stroke-width:7.718;stroke-dasharray:none" /><path
         class="cls-1"
         d="m 387.51476,351.90867 v 27.46 c 0,3.24 -4,4.76 -6.14,2.33 -32.72,-37.16 -187.03,-211.99 -240.57,-265.53 -0.04,0.04 -37.39,-37.370006 -46.010005,-46.010006 -0.97,-0.98 -0.97,-2.55 0,-3.53 l 7.480005,-7.48 c 0.98,-0.98 2.56,-0.98 3.54,0 l 273.88,273.880006 c 5.01,5.01 7.82,11.8 7.82,18.88 z"
         id="path1-3"
         style="stroke-width:7.718;stroke-dasharray:none" /><line
         class="cls-1"
         x1="387.5148"
         y1="351.90866"
         x2="98.504776"
         y2="62.908665"
         id="line1"
         style="stroke-width:4;stroke-dasharray:none" /><path
         class="cls-2"
         d="M 101.24585,57.824033 49.994745,6.5729329 c -0.98287,-0.9828784 -2.58093,-0.9828784 -3.56381,0 l -3.50725,3.5072501 c -0.98288,0.982878 -0.98288,2.58094 0,3.563818 l 51.2511,51.251099 z"
         id="path2-2" /><polygon
         class="cls-2"
         points="869,2.83 873.84,7.67 865.04,16.47 865.04,6.79 "
         id="polygon2"
         transform="matrix(-1,0,0,1,924.92476,-0.00133625)" /><path
         class="cls-2"
         d="m 393.71476,368.05867 v -29.97 c 0,0 46.1,46.1 46.1,46.1 l -7.49,7.49 156.37,156.37 c 2.07,2.07 2.07,5.42 0,7.49 v 0 c -2.07,2.07 -5.42,2.07 -7.49,0 l -187.49,-187.49 z"
         id="path3-3"
         style="display:inline" /><path
         class="cls-1"
         d="m 574.02476,570.21867 c 0,0 -9.82,-29.93 0,-39.76 -0.24,-0.24 -40.46,-40.46 -40.46,-40.46 h -10.76 l -39.56,-39.56 v -13.87 l -96.46,-96.46 v 44.06 c 0,0 187.25,186.05 187.25,186.05 z"
         id="path4-7"
         style="stroke-width:7.718;stroke-dasharray:none" /><path
         class="cls-2"
         d="m 523.32476,468.72867 c 1.95,-1.95 5.12,-1.95 7.07,0 1.95,1.95 1.95,5.12 0,7.07 -1.58,1.58 -3.95,1.86 -5.83,0.88 l -6.09,6.09 -2.12,-2.12 6.09,-6.09 c -0.98,-1.88 -0.7,-4.25 0.88,-5.83 z"
         id="path5-6" /><polygon
         class="cls-1"
         points="486.06,376.18 489.59,379.71 506.33,362.98 499.26,362.98 "
         id="polygon5"
         transform="matrix(-1,0,0,1,924.92476,-0.00133625)" /><path
         class="cls-2"
         d="m 478.48476,478.44867 87.84,87.84 5.81,5.81 -5.81,5.81 -7.94,7.94 c -0.39,0.39 -1.02,0.39 -1.41,0 l -63.98,-63.98 c -9.29,-9.29 -14.51,-21.89 -14.51,-35.02 -26.18,-30.91 -57.07,-65.47 -89.88,-98.28 z m 52.9,69.5 c -2.33,2.33 -2.33,6.14 0,8.46 l 24.84,24.84 6.38,-6.38 c 2.33,-2.33 2.33,-6.14 0,-8.46 l -24.84,-24.84 z"
         id="path7-8"
         style="display:inline" /><path
         class="cls-3"
         d="m 559.91476,563.73867 c 0,0 -4.93,5.79 -10.72,0"
         id="path8-5" /><path
         class="cls-1"
         d="m 721.09475,727.94867 -13.47,10.16 c -5.29,3.99 -10.03,8.67 -14.09,13.91 l -10.13,13.09 c -5.31,6.87 -15.89999,6.11 -20.18999,-1.44 l -109.29,-180.72 18.4,-18.4 c 0,0 32.54,41.77 52.92,47.96 24.87,23.68 97.11999,97.12 97.11999,97.12 5.22,5.22 4.62,13.86 -1.28,18.31 z"
         id="path9"
         style="stroke-width:7.718;stroke-dasharray:none" /></g><g
       id="g15"
       transform="rotate(45,103.019,71.613566)"><path
         style="fill:#231f20;fill-opacity:1;fill-rule:evenodd;stroke:#231f20;stroke-width:0.529167;stroke-linejoin:round;stroke-dasharray:none;stroke-opacity:1"
         d="m 140.58676,85.376886 c 0.50185,0.214939 1.95028,0.105195 1.97536,1.17932 l -0.0413,3.991998 -2.31147,2.110983 z"
         id="path3"
         sodipodi:nodetypes="ccccc" /><rect
         style="fill:#231f20;fill-opacity:1;fill-rule:evenodd;stroke:#231f20;stroke-width:1.05833;stroke-linejoin:round;stroke-dasharray:none;stroke-opacity:1"
         id="rect5"
         width="1.8987045"
         height="2.6180878"
         x="83.212837"
         y="85.323814" /><path
         style="fill:#ffffff;fill-opacity:1;fill-rule:evenodd;stroke:#231f20;stroke-width:1.05833;stroke-linejoin:round;stroke-dasharray:none;stroke-opacity:1"
         d="m 102.40357,89.844958 -17.278516,-0.02502 0.0083,-5.778964 c -0.03206,-0.319043 0.0674,-0.64337 0.341901,-0.617088 l 54.462355,3e-6 1.00903,1.617775 -5.98745,7.038163 z"
         id="path5"
         sodipodi:nodetypes="cccccccc" /><path
         style="fill:#ffffff;fill-opacity:1;fill-rule:evenodd;stroke:#231f20;stroke-width:1.058;stroke-linejoin:round;stroke-dasharray:none;stroke-opacity:1"
         d="M 108.96919,130.14978 V 97.400141 h 5.05309 v 32.767249 z"
         id="path1"
         sodipodi:nodetypes="ccccc" /><path
         style="fill:#ffffff;fill-opacity:1;fill-rule:evenodd;stroke:#231f20;stroke-width:1.058;stroke-linejoin:round;stroke-dasharray:none;stroke-opacity:1"
         d="m 142.14762,111.47695 -8.35981,1.16037 c -1.20067,0.229 -1.60912,-0.16031 -0.98704,-1.35395 l -6.91308,-17.339563 c -0.31774,-0.615928 -0.78101,-0.975036 -1.47632,-0.924653 l -6.2237,0.07135 c -0.90773,0.446064 -1.55876,1.059887 -1.78654,2.104218 l 0.60251,6.321158 -9.36112,-0.0825 -0.10212,-5.263718 -3.17454,-3.173105 -1.10284,0.01061 c -0.39589,0.03393 -0.44148,-0.17722 -0.46694,-0.312548 l -0.20966,-4.817207 32.44739,-0.201323 5.25118,-2.729707 0.73365,-0.02013 c 0.36013,0.376869 0.41655,0.694512 0.40072,1.137725 l -0.38939,5.469287 c 0.0141,0.388898 -0.14979,0.711056 -0.66803,0.90033 -3.20045,0.182454 -3.85258,1.430573 -4.68431,2.603582 -0.41406,1.850021 1.06243,3.422021 2.06429,5.063814 l 5.45123,10.80233 c -0.21171,0.22626 -0.34063,0.43337 -1.04553,0.57368 z"
         id="path2"
         sodipodi:nodetypes="ccccccccccccccccccccccccc" /><path
         style="fill:#231f20;fill-opacity:1;fill-rule:evenodd;stroke:#231f20;stroke-width:0.529167;stroke-linejoin:round;stroke-dasharray:none;stroke-opacity:1"
         d="m 122.28387,93.041923 c 1.53598,2.790147 -0.11185,4.064064 -2.11373,5.19296 1.92423,-0.829144 3.41524,-1.372256 3.21128,-5.221084 z"
         id="path4"
         sodipodi:nodetypes="cccc" /><rect
         style="fill:#ffffff;fill-opacity:1;fill-rule:evenodd;stroke:#231f20;stroke-width:1.05833;stroke-linejoin:round;stroke-dasharray:none;stroke-opacity:1"
         id="rect4"
         width="10.649261"
         height="0.45993358"
         x="106.87"
         y="101.30361" /><rect
         style="fill:#231f20;fill-opacity:1;fill-rule:evenodd;stroke:#231f20;stroke-width:1.05833;stroke-linejoin:round;stroke-dasharray:none;stroke-opacity:1"
         id="rect6"
         width="1.0613861"
         height="1.7453916"
         x="81.549995"
         y="85.760162" /><rect
         style="fill:#ffffff;fill-opacity:1;fill-rule:evenodd;stroke:#231f20;stroke-width:1.05833;stroke-linejoin:round;stroke-dasharray:none;stroke-opacity:1"
         id="rect7"
         width="15.277145"
         height="0.75051558"
         x="111.34303"
         y="85.308517" /><circle
         style="fill:#231f20;fill-opacity:1;fill-rule:evenodd;stroke:#231f20;stroke-width:1.05833;stroke-linejoin:round;stroke-dasharray:none;stroke-opacity:1"
         id="path7"
         cx="111.92677"
         cy="85.683777"
         r="1.0673987" /><path
         style="fill:#ffffff;fill-opacity:1;fill-rule:evenodd;stroke:#231f20;stroke-width:1.05833;stroke-linejoin:round;stroke-dasharray:none;stroke-opacity:1"
         d="m 116.90601,99.794075 h 11.41582"
         id="path8" /><path
         style="fill:#231f20;fill-opacity:1;fill-rule:evenodd;stroke:#231f20;stroke-width:0.529167;stroke-linejoin:round;stroke-dasharray:none;stroke-opacity:1"
         d="m 134.76751,110.4764 4.85594,-0.65721 c 0.32029,-0.33217 0.39988,-0.78228 0.37148,-1.17342 l -3.1252,-7.08772 c -0.42832,-0.84484 -1.03809,-1.40354 -1.87512,-1.603867 l -3.20775,-0.44225 c -2.13695,-0.28586 -0.76898,1.720687 -0.1592,3.231337 z"
         id="path11"
         sodipodi:nodetypes="cccccccc" /><rect
         style="fill:#231f20;fill-opacity:1;fill-rule:evenodd;stroke:#231f20;stroke-width:0.529167;stroke-linejoin:round;stroke-dasharray:none;stroke-opacity:1"
         id="rect11"
         width="5.670558"
         height="3.952713"
         x="108.69122"
         y="94.281334" /><path
         style="fill:#231f20;fill-opacity:1;fill-rule:evenodd;stroke:#231f20;stroke-width:1.05833;stroke-linecap:round;stroke-linejoin:round;stroke-dasharray:none;stroke-opacity:1"
         d="m 123.1682,82.698469 h 15.16606"
         id="path12" /><circle
         style="fill:#231f20;fill-opacity:1;fill-rule:evenodd;stroke:#231f20;stroke-width:1.05833;stroke-linecap:round;stroke-linejoin:round;stroke-dasharray:none;stroke-opacity:1"
         id="path13"
         cx="86.868721"
         cy="86.396996"
         r="0.70759207" /><circle
         style="fill:#231f20;fill-opacity:1;fill-rule:evenodd;stroke:#231f20;stroke-width:1.05833;stroke-linecap:round;stroke-linejoin:round;stroke-dasharray:none;stroke-opacity:1"
         id="circle13"
         cx="90.383095"
         cy="86.396996"
         r="0.70759207" /><circle
         style="fill:#231f20;fill-opacity:1;fill-rule:evenodd;stroke:#231f20;stroke-width:1.05833;stroke-linecap:round;stroke-linejoin:round;stroke-dasharray:none;stroke-opacity:1"
         id="circle14"
         cx="93.897469"
         cy="86.396996"
         r="0.70759207" /><circle
         style="fill:#231f20;fill-opacity:1;fill-rule:evenodd;stroke:#231f20;stroke-width:1.05833;stroke-linecap:round;stroke-linejoin:round;stroke-dasharray:none;stroke-opacity:1"
         id="circle15"
         cx="97.411842"
         cy="86.396996"
         r="0.70759207" /></g></g></svg>
