<?xml version="1.0" encoding="UTF-8" standalone="no"?>
<!-- Created with Inkscape (http://www.inkscape.org/) -->

<svg
   width="500mm"
   height="160mm"
   viewBox="0 0 500 160"
   version="1.1"
   id="svg5"
   inkscape:version="1.1.2 (0a00cf5339, 2022-02-04)"
   sodipodi:docname="opensurviv_logo_full.svg"
   inkscape:export-filename="/home/desktopgeek/Downloads/opensurviv_logo_full.png"
   inkscape:export-xdpi="96"
   inkscape:export-ydpi="96"
   xmlns:inkscape="http://www.inkscape.org/namespaces/inkscape"
   xmlns:sodipodi="http://sodipodi.sourceforge.net/DTD/sodipodi-0.dtd"
   xmlns="http://www.w3.org/2000/svg"
   xmlns:svg="http://www.w3.org/2000/svg">
  <sodipodi:namedview
     id="namedview7"
     pagecolor="#505050"
     bordercolor="#ffffff"
     borderopacity="1"
     inkscape:pageshadow="0"
     inkscape:pageopacity="0"
     inkscape:pagecheckerboard="1"
     inkscape:document-units="mm"
     showgrid="false"
     height="204mm"
     inkscape:zoom="0.54866744"
     inkscape:cx="645.19958"
     inkscape:cy="189.55016"
     inkscape:window-width="2560"
     inkscape:window-height="1412"
     inkscape:window-x="2560"
     inkscape:window-y="0"
     inkscape:window-maximized="1"
     inkscape:current-layer="layer1" />
  <defs
     id="defs2">
    <filter
       style="color-interpolation-filters:sRGB"
       inkscape:label="Drop Shadow"
       id="filter323236"
       x="-0.029932767"
       y="-0.20316365"
       width="1.0785735"
       height="1.5333046">
      <feFlood
         flood-opacity="0.498039"
         flood-color="rgb(0,0,0)"
         result="flood"
         id="feFlood323226" />
      <feComposite
         in="flood"
         in2="SourceGraphic"
         operator="in"
         result="composite1"
         id="feComposite323228" />
      <feGaussianBlur
         in="composite1"
         stdDeviation="2"
         result="blur"
         id="feGaussianBlur323230" />
      <feOffset
         dx="3"
         dy="3"
         result="offset"
         id="feOffset323232" />
      <feComposite
         in="SourceGraphic"
         in2="offset"
         operator="over"
         result="composite2"
         id="feComposite323234" />
    </filter>
    <filter
       style="color-interpolation-filters:sRGB"
       inkscape:label="Drop Shadow"
       id="filter323266"
       x="-0.015668479"
       y="-0.091496673"
       width="1.0375849"
       height="1.2194784">
      <feFlood
         flood-opacity="0.498039"
         flood-color="rgb(0,0,0)"
         result="flood"
         id="feFlood323256" />
      <feComposite
         in="flood"
         in2="SourceGraphic"
         operator="in"
         result="composite1"
         id="feComposite323258" />
      <feGaussianBlur
         in="composite1"
         stdDeviation="2"
         result="blur"
         id="feGaussianBlur323260" />
      <feOffset
         dx="3"
         dy="3"
         result="offset"
         id="feOffset323262" />
      <feComposite
         in="SourceGraphic"
         in2="offset"
         operator="over"
         result="composite2"
         id="feComposite323264" />
    </filter>
    <filter
       style="color-interpolation-filters:sRGB;"
       inkscape:label="Drop Shadow"
       id="filter323408"
       x="-0.017633979"
       y="-0.090876429"
       width="1.0462892"
       height="1.2385506">
      <feFlood
         flood-opacity="0.498039"
         flood-color="rgb(0,0,0)"
         result="flood"
         id="feFlood323398" />
      <feComposite
         in="flood"
         in2="SourceGraphic"
         operator="in"
         result="composite1"
         id="feComposite323400" />
      <feGaussianBlur
         in="composite1"
         stdDeviation="2"
         result="blur"
         id="feGaussianBlur323402" />
      <feOffset
         dx="3"
         dy="3"
         result="offset"
         id="feOffset323404" />
      <feComposite
         in="SourceGraphic"
         in2="offset"
         operator="over"
         result="composite2"
         id="feComposite323406" />
    </filter>
    <filter
       style="color-interpolation-filters:sRGB;"
       inkscape:label="Drop Shadow"
       id="filter323438"
       x="-0.012105812"
       y="-0.13182577"
       width="1.0317778"
       height="1.3460426">
      <feFlood
         flood-opacity="0.498039"
         flood-color="rgb(0,0,0)"
         result="flood"
         id="feFlood323428" />
      <feComposite
         in="flood"
         in2="SourceGraphic"
         operator="in"
         result="composite1"
         id="feComposite323430" />
      <feGaussianBlur
         in="composite1"
         stdDeviation="2"
         result="blur"
         id="feGaussianBlur323432" />
      <feOffset
         dx="3"
         dy="3"
         result="offset"
         id="feOffset323434" />
      <feComposite
         in="SourceGraphic"
         in2="offset"
         operator="over"
         result="composite2"
         id="feComposite323436" />
    </filter>
    <filter
       style="color-interpolation-filters:sRGB;"
       inkscape:label="Drop Shadow"
       id="filter23583"
       x="-0.036038433"
       y="-0.13378495"
       width="1.0946009"
       height="1.3511855">
      <feFlood
         flood-opacity="0.498039"
         flood-color="rgb(0,0,0)"
         result="flood"
         id="feFlood23573" />
      <feComposite
         in="flood"
         in2="SourceGraphic"
         operator="in"
         result="composite1"
         id="feComposite23575" />
      <feGaussianBlur
         in="composite1"
         stdDeviation="2"
         result="blur"
         id="feGaussianBlur23577" />
      <feOffset
         dx="3"
         dy="3"
         result="offset"
         id="feOffset23579" />
      <feComposite
         in="SourceGraphic"
         in2="offset"
         operator="over"
         result="composite2"
         id="feComposite23581" />
    </filter>
  </defs>
  <g
     inkscape:label="Layer 1"
     inkscape:groupmode="layer"
     id="layer1">
    <g
       aria-label="SURVIV"
       id="text3400"
       style="font-size:76.7292px;line-height:1.25;font-family:DINNextRoundedLTW01-Bold;-inkscape-font-specification:DINNextRoundedLTW01-Bold;letter-spacing:0px;word-spacing:0px;fill:#ffffff;stroke-width:0.264583;filter:url(#filter323408)"
       transform="translate(167.21715)">
      <path
         d="m 41.979907,76.672623 q -6.560346,0 -10.243348,-2.647158 -3.644637,-2.647157 -4.565388,-8.17166 -0.153458,-1.688042 0.690563,-2.532064 0.844021,-0.844021 2.455335,-0.844021 1.611313,0 2.34024,0.767292 0.767292,0.767292 1.035845,2.378606 0.575469,2.647157 2.455334,3.644637 1.91823,0.959115 5.831419,0.959115 h 11.049006 q 4.949033,0 6.713805,-1.764772 1.803136,-1.803136 1.803136,-6.675441 0,-4.949033 -1.841501,-6.752169 -1.841501,-1.841501 -6.67544,-1.841501 h -9.514422 q -7.250909,0 -10.780452,-3.529544 -3.491179,-3.567907 -3.491179,-10.818817 0,-7.212545 3.452814,-10.703724 3.491179,-3.491178 10.742088,-3.491178 h 9.130775 q 6.099972,0 9.552786,2.493699 3.491179,2.493699 4.411929,7.634555 0.230188,1.649678 -0.613833,2.532064 -0.844022,0.844021 -2.532064,0.844021 -1.534584,0 -2.301876,-0.805656 -0.767292,-0.805657 -0.99748,-2.340241 -0.613833,-2.263512 -2.340241,-3.069168 -1.726407,-0.844021 -5.179221,-0.844021 h -9.130775 q -4.603752,0 -6.176701,1.649677 -1.572948,1.611314 -1.572948,6.099972 0,4.527023 1.611313,6.215065 1.611313,1.688043 6.215065,1.688043 h 9.514422 q 7.557826,0 11.240828,3.683002 3.721366,3.683001 3.721366,11.355921 0,7.634556 -3.683002,11.279193 -3.683001,3.606273 -11.279192,3.606273 z"
         style="font-weight:bold;font-family:Jura;-inkscape-font-specification:'Jura Bold'"
         id="path852" />
      <path
         d="m 98.91291,76.672623 q -8.785494,0 -13.0056,-4.181742 -4.181742,-4.220106 -4.181742,-13.0056 V 27.87285 q 0,-1.611313 0.805657,-2.41697 0.805657,-0.805656 2.41697,-0.805656 1.611313,0 2.41697,0.805656 0.805656,0.805657 0.805656,2.41697 v 31.612431 q 0,4.105013 0.959115,6.445253 0.99748,2.340241 3.337721,3.337721 2.34024,0.959115 6.445253,0.959115 h 9.2075 q 4.10502,0 6.44526,-0.959115 2.34024,-0.99748 3.29935,-3.337721 0.99748,-2.34024 0.99748,-6.445253 V 27.87285 q 0,-1.611313 0.80566,-2.41697 0.80566,-0.805656 2.41697,-0.805656 1.61131,0 2.41697,0.805656 0.80566,0.805657 0.80566,2.41697 v 31.612431 q 0,8.785494 -4.18175,13.0056 -4.18174,4.181742 -13.0056,4.181742 z"
         style="font-weight:bold;font-family:Jura;-inkscape-font-specification:'Jura Bold'"
         id="path854" />
      <path
         d="m 174.33763,76.826081 q -1.26604,0.805657 -2.41697,0.49874 -1.15094,-0.306917 -1.9566,-1.572949 L 158.07103,55.955738 h -10.74208 v 17.494258 q 0,3.222627 -3.22263,3.222627 -3.22263,0 -3.22263,-3.222627 V 27.87285 q 0,-3.222626 3.22263,-3.222626 h 17.95463 q 7.02073,0 10.74209,3.75973 3.75973,3.721367 3.75973,10.742089 v 2.301876 q 0,6.099971 -2.83898,9.744609 -2.83898,3.606272 -8.21002,4.488658 l 10.05152,16.765331 q 1.45786,2.685522 -1.22766,4.373564 z M 147.32895,49.510485 h 14.732 q 4.37357,0 6.21507,-1.841501 1.8415,-1.841501 1.8415,-6.215065 v -2.301876 q 0,-4.3352 -1.8415,-6.176701 -1.8415,-1.879865 -6.21507,-1.879865 h -14.732 z"
         style="font-weight:bold;font-family:Jura;-inkscape-font-specification:'Jura Bold'"
         id="path856" />
      <path
         d="m 204.41531,76.672623 q -1.99495,0 -3.14589,-2.532064 L 182.3173,29.253976 q -0.57546,-1.342761 -0.30691,-2.378606 0.26855,-1.074208 1.76477,-1.764771 3.1459,-1.572949 4.45029,1.611313 l 17.91627,42.431249 h -2.22515 l 17.4559,-42.431249 q 1.26603,-3.145897 4.45029,-1.611313 1.34276,0.690563 1.64968,1.764771 0.34528,1.035845 -0.19182,2.378606 l -19.10557,44.886583 q -1.18931,2.532064 -3.45282,2.532064 z"
         style="font-weight:bold;font-family:Jura;-inkscape-font-specification:'Jura Bold'"
         id="path858" />
      <path
         d="m 240.63147,76.672623 q -1.64967,0 -2.45533,-0.767292 -0.76729,-0.805657 -0.76729,-2.455335 V 27.949579 q 0,-1.688042 0.76729,-2.455334 0.80566,-0.767292 2.45533,-0.767292 1.68805,0 2.45534,0.767292 0.76729,0.767292 0.76729,2.455334 v 45.500417 q 0,1.649678 -0.76729,2.455335 -0.76729,0.767292 -2.45534,0.767292 z"
         style="font-weight:bold;font-family:Jura;-inkscape-font-specification:'Jura Bold'"
         id="path860" />
      <path
         d="m 276.15707,76.672623 q -1.99495,0 -3.14589,-2.532064 L 254.05906,29.253976 q -0.57546,-1.342761 -0.30691,-2.378606 0.26855,-1.074208 1.76477,-1.764771 3.1459,-1.572949 4.45029,1.611313 l 17.91627,42.431249 h -2.22515 l 17.4559,-42.431249 q 1.26603,-3.145897 4.45029,-1.611313 1.34276,0.690563 1.64968,1.764771 0.34528,1.035845 -0.19182,2.378606 l -19.10557,44.886583 q -1.18931,2.532064 -3.45282,2.532064 z"
         style="font-weight:bold;font-family:Jura;-inkscape-font-specification:'Jura Bold'"
         id="path862" />
    </g>
    <path
       id="rect161992"
       style="fill:none;stroke:#ffffff;stroke-width:5.4467;stroke-linejoin:round;filter:url(#filter323266)"
       d="M 9.9208527,9.4443512 H 490.07915 V 91.669746 H 9.9208527 Z" />
    <g
       aria-label="BATTLE ROYALE"
       id="text302784"
       style="font-size:52.9167px;line-height:1.25;font-family:Jura;-inkscape-font-specification:Jura;letter-spacing:0px;word-spacing:0px;stroke-width:0.264583;filter:url(#filter323438)">
      <path
         d="m 53.970616,143.36578 q -2.222502,0 -2.222502,-2.2225 v -31.43252 q 0,-2.2225 2.222502,-2.2225 h 13.811258 q 4.206877,0 6.455837,2.2225 2.275418,2.2225 2.275418,6.35001 v 1.42875 q 0,3.57188 -2.248959,5.52979 4.206877,2.3548 4.206877,8.59897 v 1.79916 q 0,4.86834 -2.592918,7.40834 -2.56646,2.54 -7.408338,2.54 z m 2.222501,-4.445 h 12.276674 q 2.989793,0 4.259794,-1.27 1.296459,-1.29646 1.296459,-4.23334 v -1.79916 q 0,-2.93688 -1.243542,-4.18042 -1.243542,-1.27 -4.312711,-1.27 H 56.193117 Z m 0,-17.19793 h 12.541258 q 1.931459,0 2.619376,-1.19062 0.714376,-1.19063 0.714376,-3.04271 v -1.42875 q 0,-2.30188 -0.952501,-3.20146 -0.952501,-0.92605 -3.333752,-0.92605 H 56.193117 Z"
         style="fill:#00ff00"
         id="path918" />
      <path
         d="m 85.667634,143.15412 q -2.116668,-0.82021 -1.270001,-2.91042 l 12.594174,-31.00919 q 0.793751,-1.74625 2.487085,-1.74625 h 0.105834 q 1.719794,0.0794 2.328334,1.74625 l 12.80584,31.00919 q 0.84667,2.09021 -1.21708,2.91042 -2.09021,0.82021 -2.91042,-1.21709 l -2.8575,-6.93208 H 91.250346 l -2.72521,6.93208 q -0.820209,2.06375 -2.857502,1.21709 z m 7.328963,-12.59418 h 12.911673 l -6.588128,-16.03376 z"
         style="fill:#00ff00"
         id="path920" />
      <path
         d="m 129.11206,143.36578 q -1.11125,0 -1.66688,-0.55562 -0.55562,-0.55563 -0.55562,-1.66688 v -29.1571 h -10.26584 q -1.11125,0 -1.66688,-0.55562 -0.55562,-0.55563 -0.55562,-1.66688 0,-1.11125 0.55562,-1.66688 0.55563,-0.55562 1.66688,-0.55562 h 24.97668 q 1.11125,0 1.66688,0.55562 0.55562,0.55563 0.55562,1.66688 0,1.11125 -0.55562,1.66688 -0.55563,0.55562 -1.66688,0.55562 h -10.26584 v 29.1571 q 0,1.05834 -0.58208,1.64042 -0.55563,0.58208 -1.64042,0.58208 z"
         style="fill:#00ff00"
         id="path922" />
      <path
         d="m 161.60283,143.36578 q -1.11125,0 -1.66688,-0.55562 -0.55562,-0.55563 -0.55562,-1.66688 v -29.1571 h -10.26584 q -1.11125,0 -1.66688,-0.55562 -0.55562,-0.55563 -0.55562,-1.66688 0,-1.11125 0.55562,-1.66688 0.55563,-0.55562 1.66688,-0.55562 h 24.97668 q 1.11125,0 1.66688,0.55562 0.55562,0.55563 0.55562,1.66688 0,1.11125 -0.55562,1.66688 -0.55563,0.55562 -1.66688,0.55562 h -10.26584 v 29.1571 q 0,1.05834 -0.58208,1.64042 -0.55563,0.58208 -1.64042,0.58208 z"
         style="fill:#00ff00"
         id="path924" />
      <path
         d="m 185.57401,143.36578 q -2.2225,0 -2.2225,-2.2225 v -31.43252 q 0,-2.2225 2.2225,-2.2225 2.2225,0 2.2225,2.2225 v 29.21002 h 14.65793 q 2.2225,0 2.2225,2.2225 0,2.2225 -2.2225,2.2225 z"
         style="fill:#00ff00"
         id="path926" />
      <path
         d="m 214.20186,143.36578 q -2.2225,0 -2.2225,-2.2225 v -31.43252 q 0,-2.2225 2.2225,-2.2225 h 18.9971 q 2.2225,0 2.2225,2.2225 0,2.2225 -2.2225,2.2225 h -16.7746 v 11.11251 h 10.53043 q 2.2225,0 2.2225,2.2225 0,2.2225 -2.2225,2.2225 h -10.53043 v 11.43001 h 16.7746 q 2.2225,0 2.2225,2.2225 0,2.2225 -2.2225,2.2225 z"
         style="fill:#00ff00"
         id="path928" />
      <path
         d="m 283.57555,143.47162 q -0.87313,0.55562 -1.66688,0.34396 -0.79375,-0.21167 -1.34937,-1.0848 l -8.20209,-13.6525 h -7.40834 v 12.065 q 0,2.2225 -2.2225,2.2225 -2.2225,0 -2.2225,-2.2225 v -31.43252 q 0,-2.2225 2.2225,-2.2225 h 12.38251 q 4.84187,0 7.40833,2.59292 2.59292,2.56646 2.59292,7.40834 v 1.5875 q 0,4.20688 -1.95792,6.72042 -1.95791,2.48708 -5.66208,3.09563 l 6.93208,11.5623 q 1.00542,1.85208 -0.84666,3.01625 z m -18.62668,-18.83835 h 10.16001 q 3.01625,0 4.28625,-1.27 1.27,-1.27 1.27,-4.28625 v -1.5875 q 0,-2.9898 -1.27,-4.2598 -1.27,-1.29646 -4.28625,-1.29646 h -10.16001 z"
         style="fill:#00ff00"
         id="path930" />
      <path
         d="m 304.16004,143.36578 q -6.05897,0 -8.96938,-2.88396 -2.88396,-2.91041 -2.88396,-8.96938 v -12.22375 q 0,-6.11188 2.91041,-8.96938 2.91042,-2.88396 8.94293,-2.83105 h 6.35 q 6.08542,0 8.96938,2.88396 2.88396,2.88396 2.88396,8.96938 v 12.17084 q 0,6.05897 -2.88396,8.96938 -2.88396,2.88396 -8.96938,2.88396 z m 0,-4.445 h 6.35 q 2.83104,0 4.445,-0.66146 1.61396,-0.68791 2.27542,-2.30187 0.68792,-1.61396 0.68792,-4.44501 V 119.3416 q 0,-2.80458 -0.68792,-4.41854 -0.66146,-1.61396 -2.27542,-2.30188 -1.61396,-0.68792 -4.445,-0.68792 h -6.35 q -2.80459,-0.0265 -4.41855,0.63501 -1.61396,0.66145 -2.30187,2.27541 -0.68792,1.61396 -0.68792,4.44501 v 12.22375 q 0,2.83105 0.66146,4.44501 0.68791,1.61396 2.30187,2.30187 1.61396,0.66146 4.44501,0.66146 z"
         style="fill:#00ff00"
         id="path932" />
      <path
         d="m 341.5456,143.36578 q -2.2225,0 -2.2225,-2.2225 v -10.795 l -12.11793,-19.3146 q -1.11125,-1.905 0.68792,-3.12208 1.905,-1.16417 3.06917,0.68791 l 10.58334,16.98626 11.1125,-16.98626 q 0.55563,-0.87312 1.34938,-1.03187 0.79375,-0.18521 1.66688,0.44979 1.93146,1.19062 0.68791,3.01625 l -12.59417,19.3146 v 10.795 q 0,2.2225 -2.2225,2.2225 z"
         style="fill:#00ff00"
         id="path934" />
      <path
         d="m 359.24616,143.15412 q -2.11667,-0.82021 -1.27001,-2.91042 l 12.59418,-31.00919 q 0.79375,-1.74625 2.48708,-1.74625 h 0.10584 q 1.71979,0.0794 2.32833,1.74625 l 12.80584,31.00919 q 0.84667,2.09021 -1.21708,2.91042 -2.09021,0.82021 -2.91042,-1.21709 l -2.8575,-6.93208 h -16.48355 l -2.72521,6.93208 q -0.82021,2.06375 -2.8575,1.21709 z m 7.32896,-12.59418 h 12.91167 l -6.58813,-16.03376 z"
         style="fill:#00ff00"
         id="path936" />
      <path
         d="m 398.40442,143.36578 q -2.2225,0 -2.2225,-2.2225 v -31.43252 q 0,-2.2225 2.2225,-2.2225 2.2225,0 2.2225,2.2225 v 29.21002 h 14.65793 q 2.2225,0 2.2225,2.2225 0,2.2225 -2.2225,2.2225 z"
         style="fill:#00ff00"
         id="path938" />
      <path
         d="m 427.03229,143.36578 q -2.2225,0 -2.2225,-2.2225 v -31.43252 q 0,-2.2225 2.2225,-2.2225 h 18.9971 q 2.2225,0 2.2225,2.2225 0,2.2225 -2.2225,2.2225 h -16.7746 v 11.11251 h 10.53043 q 2.2225,0 2.2225,2.2225 0,2.2225 -2.2225,2.2225 h -10.53043 v 11.43001 h 16.7746 q 2.2225,0 2.2225,2.2225 0,2.2225 -2.2225,2.2225 z"
         style="fill:#00ff00"
         id="path940" />
    </g>
    <g
       aria-label="OPEN"
       id="text7206"
       style="font-size:52.9167px;line-height:1.25;font-family:Jura;-inkscape-font-specification:Jura;letter-spacing:0px;word-spacing:0px;fill:#00ffff;stroke-width:0.264583;filter:url(#filter23583)">
      <path
         d="m 44.554829,68.496284 q -6.058962,0 -8.96938,-2.88396 -2.88396,-2.910418 -2.88396,-8.96938 V 44.419187 q 0,-6.111879 2.910418,-8.969381 2.910419,-2.88396 8.942922,-2.831043 h 6.350004 q 6.08542,0 8.969381,2.88396 2.88396,2.88396 2.88396,8.96938 v 12.170841 q 0,6.058962 -2.88396,8.96938 -2.883961,2.88396 -8.969381,2.88396 z m 0,-4.445002 h 6.350004 q 2.831044,0 4.445003,-0.661459 1.613959,-0.687917 2.275418,-2.301876 0.687917,-1.61396 0.687917,-4.445003 V 44.472103 q 0,-2.804585 -0.687917,-4.418544 -0.661459,-1.613959 -2.275418,-2.301876 -1.613959,-0.687917 -4.445003,-0.687917 h -6.350004 q -2.804585,-0.02646 -4.418544,0.635 -1.613959,0.661459 -2.301876,2.275418 -0.687917,1.613959 -0.687917,4.445003 v 12.223757 q 0,2.831043 0.661458,4.445003 0.687917,1.613959 2.301877,2.301876 1.613959,0.661459 4.445002,0.661459 z"
         id="path874" />
      <path
         d="m 74.71728,68.496284 q -2.222502,0 -2.222502,-2.222501 V 34.841264 q 0,-2.222501 2.222502,-2.222501 h 12.382507 q 4.841878,0 7.408338,2.592918 2.592918,2.56646 2.592918,7.408338 v 1.587501 q 0,4.841878 -2.592918,7.434796 -2.56646,2.56646 -7.408338,2.56646 H 76.939781 v 12.065007 q 0,2.222501 -2.222501,2.222501 z m 2.222501,-18.732511 h 10.160006 q 3.016252,0 4.286253,-1.270001 1.27,-1.27 1.27,-4.286252 v -1.587501 q 0,-2.989794 -1.27,-4.259794 -1.270001,-1.296459 -4.286253,-1.296459 H 76.939781 Z"
         id="path876" />
      <path
         d="m 107.15516,68.496284 q -2.2225,0 -2.2225,-2.222501 V 34.841264 q 0,-2.222501 2.2225,-2.222501 h 18.99709 q 2.2225,0 2.2225,2.222501 0,2.222502 -2.2225,2.222502 h -16.77459 v 11.112506 h 10.53042 q 2.2225,0 2.2225,2.222502 0,2.222501 -2.2225,2.222501 h -10.53042 v 11.430007 h 16.77459 q 2.2225,0 2.2225,2.222501 0,2.222501 -2.2225,2.222501 z"
         id="path878" />
      <path
         d="m 139.06386,68.496284 q -2.2225,0 -2.2225,-2.222501 V 34.841264 q 0,-2.222501 2.2225,-2.222501 1.13771,0 2.22251,1.322917 l 21.27251,27.41085 h -1.11125 V 34.841264 q 0,-2.222501 2.2225,-2.222501 2.2225,0 2.2225,2.222501 v 31.432519 q 0,2.222501 -2.2225,2.222501 -1.19063,0 -2.2225,-1.322917 l -21.27252,-27.41085 h 1.11126 v 26.511266 q 0,2.222501 -2.22251,2.222501 z"
         id="path880" />
    </g>
  </g>
</svg>
