<?xml version="1.0" encoding="UTF-8" standalone="no"?>
<svg
   version="1.1"
   width="82.32731"
   height="84.08994"
   viewBox="0,0,82.32731,84.08994"
   id="svg44"
   sodipodi:docname="bush.svg"
   inkscape:version="1.1.2 (0a00cf5339, 2022-02-04)"
   xmlns:inkscape="http://www.inkscape.org/namespaces/inkscape"
   xmlns:sodipodi="http://sodipodi.sourceforge.net/DTD/sodipodi-0.dtd"
   xmlns="http://www.w3.org/2000/svg"
   xmlns:svg="http://www.w3.org/2000/svg">
  <defs
     id="defs48" />
  <sodipodi:namedview
     id="namedview46"
     pagecolor="#505050"
     bordercolor="#666666"
     borderopacity="1.0"
     inkscape:showpageshadow="2"
     inkscape:pageopacity="0"
     inkscape:pagecheckerboard="true"
     inkscape:deskcolor="#d1d1d1"
     showgrid="false"
     inkscape:zoom="9.7871395"
     inkscape:cx="37.396013"
     inkscape:cy="52.109199"
     inkscape:window-width="2560"
     inkscape:window-height="1372"
     inkscape:window-x="0"
     inkscape:window-y="0"
     inkscape:window-maximized="1"
     inkscape:current-layer="g40"
     inkscape:pageshadow="0" />
  <g
     transform="translate(-198.88481,-137.58615)"
     id="g42">
    <g
       data-paper-data="{&quot;isPaintingLayer&quot;:true}"
       fill-rule="nonzero"
       stroke-width="2"
       stroke-linecap="butt"
       stroke-linejoin="miter"
       stroke-miterlimit="10"
       stroke-dasharray=""
       stroke-dashoffset="0"
       style="mix-blend-getMode: normal"
       id="g40">
      <path
         d="m 251.24673,155.84035 c 6.45831,-0.063 20.40857,3.35567 20.40857,3.35567 0,0 -10.11648,16.80508 -18.27982,15.98932 -8.6279,-0.8622 -2.81221,-9.7438 -2.81221,-9.7438 0,0 -8.23673,-9.51414 0.68346,-9.60119 z"
         fill="#0de644"
         stroke="#59b56e"
         id="path28" />
      <path
         d="m 221.58387,199.77387 c -3.9712,-5.09346 -9.72454,-18.25386 -9.72454,-18.25386 0,0 19.49535,-2.16462 23.80346,4.81719 4.55328,7.37913 -6.03493,8.15044 -6.03493,8.15044 0,0 -2.55899,12.32128 -8.04399,5.28623 z"
         fill="#2cff61"
         stroke="#70ca85"
         id="path34" />
      <path
         d="m 245.41402,194.96501 c 4.63014,-4.50284 10.41107,-13.69159 10.41107,-13.69159 0,0 4.27718,19.14315 -2.19333,24.18676 -6.83873,5.33064 -21.60023,0.28253 -21.60023,0.28253 0,0 6.98736,-4.55841 13.38249,-10.77771 z"
         fill="#0de644"
         stroke="#59b56e"
         id="path36" />
      <path
         d="m 222.40134,160.11314 c 3.64425,-7.22059 18.01761,-12.73797 18.01761,-12.73797 0,0 1.56271,15.36262 -3.44199,21.86328 -5.28951,6.87059 -11.73821,3.44445 -11.73821,3.44445 0,0 -6.89962,-4.52101 -2.8374,-12.56976 z"
         fill="#1bcf48"
         stroke="#279f45"
         id="path38" />
    </g>
  </g>
</svg>
