<?xml version="1.0" encoding="UTF-8" standalone="no"?>
<svg
   version="1.1"
   viewBox="0 0 24 24"
   width="24"
   height="24"
   fill="none"
   stroke="none"
   stroke-linecap="square"
   stroke-miterlimit="10"
   id="svg39"
   sodipodi:docname="tree.svg"
   inkscape:version="1.1.2 (0a00cf5339, 2022-02-04)"
   xmlns:inkscape="http://www.inkscape.org/namespaces/inkscape"
   xmlns:sodipodi="http://sodipodi.sourceforge.net/DTD/sodipodi-0.dtd"
   xmlns="http://www.w3.org/2000/svg"
   xmlns:svg="http://www.w3.org/2000/svg">
  <defs
     id="defs43" />
  <sodipodi:namedview
     id="namedview41"
     pagecolor="#505050"
     bordercolor="#ffffff"
     borderopacity="1"
     inkscape:pageshadow="0"
     inkscape:pageopacity="0"
     inkscape:pagecheckerboard="1"
     showgrid="false"
     inkscape:zoom="5.8066667"
     inkscape:cx="75.602755"
     inkscape:cy="21.871412"
     inkscape:window-width="2560"
     inkscape:window-height="1372"
     inkscape:window-x="0"
     inkscape:window-y="0"
     inkscape:window-maximized="1"
     inkscape:current-layer="svg39" />
  <clipPath
     id="p.0">
    <path
       d="M 0,0 H 300 V 300 H 0 Z"
       clip-rule="nonzero"
       id="path2" />
  </clipPath>
  <path
     fill="#000000"
     fill-opacity="0"
     d="M 0,0 H 300 V 300 H 0 Z"
     fill-rule="evenodd"
     id="path5" />
  <path
     sodipodi:type="star"
     style="fill:#562e2d;fill-opacity:1;stroke:#361d1c;stroke-width:2;stroke-linejoin:round;stroke-miterlimit:10;stroke-dasharray:none;stroke-opacity:1"
     id="path2170"
     inkscape:flatsided="false"
     sodipodi:sides="12"
     sodipodi:cx="11.654697"
     sodipodi:cy="11.654697"
     sodipodi:r1="11.351644"
     sodipodi:r2="10.102965"
     sodipodi:arg1="0.26179939"
     sodipodi:arg2="0.52359878"
     inkscape:rounded="0.16"
     inkscape:randomized="0"
     d="m 22.619543,14.592719 c -0.126794,0.4732 -1.970474,1.689201 -2.215421,2.113461 -0.244946,0.42426 -0.376194,2.628935 -0.7226,2.975342 -0.346407,0.346406 -2.551082,0.477654 -2.975342,0.7226 -0.42426,0.244947 -1.640261,2.088627 -2.113461,2.215421 -0.4732,0.126794 -2.448129,-0.86188 -2.938022,-0.86188 -0.489893,0 -2.4648209,0.988674 -2.9380212,0.86188 C 8.2434756,22.492749 7.0274744,20.649069 6.6032147,20.404122 6.178955,20.159176 3.9742799,20.027928 3.6278733,19.681522 3.2814666,19.335115 3.1502192,17.13044 2.9052727,16.70618 2.6603263,16.28192 0.81664534,15.065919 0.68985172,14.592719 0.5630581,14.119519 1.5517321,12.14459 1.5517321,11.654697 1.5517321,11.164804 0.56305811,9.1898761 0.68985174,8.7166758 0.81664536,8.2434756 2.6603263,7.0274744 2.9052728,6.6032147 3.1502193,6.178955 3.2814667,3.9742799 3.6278733,3.6278733 3.9742799,3.2814666 6.178955,3.1502192 6.6032148,2.9052727 7.0274745,2.6603263 8.2434757,0.81664534 8.7166759,0.68985172 9.1898761,0.5630581 11.164805,1.5517321 11.654697,1.5517321 c 0.489893,0 2.464822,-0.98867399 2.938022,-0.86188036 0.4732,0.12679362 1.689201,1.97047456 2.113461,2.21542106 0.42426,0.2449465 2.628935,0.3761939 2.975342,0.7226005 0.346406,0.3464066 0.477654,2.5510817 0.7226,2.9753415 0.244947,0.4242597 2.088627,1.6402609 2.215421,2.1134611 0.126794,0.4732002 -0.86188,2.4481291 -0.86188,2.9380211 0,0.489893 0.988674,2.464822 0.86188,2.938022 z" />
</svg>
