<?xml version="1.0" encoding="UTF-8" standalone="no"?>
<!-- Created with Inkscape (http://www.inkscape.org/) -->

<svg
   width="16"
   height="16"
   viewBox="0 0 4.2333333 4.2333333"
   version="1.1"
   id="svg5"
   inkscape:version="1.2.2 (b0a8486541, 2022-12-01)"
   sodipodi:docname="egg_roll.svg"
   xmlns:inkscape="http://www.inkscape.org/namespaces/inkscape"
   xmlns:sodipodi="http://sodipodi.sourceforge.net/DTD/sodipodi-0.dtd"
   xmlns="http://www.w3.org/2000/svg"
   xmlns:svg="http://www.w3.org/2000/svg"
   xmlns:rdf="http://www.w3.org/1999/02/22-rdf-syntax-ns#"
   xmlns:cc="http://creativecommons.org/ns#">
  <sodipodi:namedview
     id="namedview7"
     pagecolor="#878787"
     bordercolor="#666666"
     borderopacity="1.0"
     inkscape:showpageshadow="2"
     inkscape:pageopacity="0"
     inkscape:pagecheckerboard="0"
     inkscape:deskcolor="#d1d1d1"
     inkscape:document-units="px"
     showgrid="false"
     inkscape:zoom="32"
     inkscape:cx="11.28125"
     inkscape:cy="7.953125"
     inkscape:window-width="1920"
     inkscape:window-height="1002"
     inkscape:window-x="0"
     inkscape:window-y="0"
     inkscape:window-maximized="1"
     inkscape:current-layer="layer1" />
  <defs
     id="defs2" />
  <g
     inkscape:label="圖層 1"
     inkscape:groupmode="layer"
     id="layer1">
    <path
       id="path236"
       style="fill:#ffffff;fill-opacity:1;stroke-width:0.193548;stroke-linecap:round;stroke-linejoin:round;stroke-miterlimit:1.5;paint-order:markers stroke fill"
       d="M 1.7859376,0.26458332 A 0.92604167,1.8520833 0 0 0 0.85989585,2.1166667 0.92604167,1.8520833 0 0 0 1.7859376,3.96875 H 2.4473959 A 0.92604166,1.8520833 0 0 0 3.3734375,2.1166667 0.92604166,1.8520833 0 0 0 2.4473959,0.26458332 Z m 0.066663,0.004651 a 0.92604166,1.8520833 0 0 1 0.01757,0.003101 0.92604167,1.8520833 0 0 0 -0.01757,-0.003101 z m 0.4516521,0.31264241 a 0.92604166,1.8520833 0 0 1 0.015503,0.0217041 0.92604167,1.8520833 0 0 0 -0.015503,-0.0217041 z m 0.032556,0.0465088 a 0.92604166,1.8520833 0 0 1 0.017053,0.0253214 0.92604167,1.8520833 0 0 0 -0.017053,-0.0253214 z M 1.8779216,0.80821938 2.6964763,2.4458455 A 0.92604167,1.8520833 0 0 0 2.7099122,2.2267374 0.92604166,1.8520833 0 0 1 2.6840739,2.5636678 0.92604166,1.8520833 0 0 1 2.6670207,2.6840739 0.92604166,1.8520833 0 0 1 2.6458334,2.8018961 0.92604166,1.8520833 0 0 1 2.6205119,2.9166178 0.92604166,1.8520833 0 0 1 2.559017,3.1346924 0.92604166,1.8520833 0 0 1 2.2417237,3.7279378 0.92604166,1.8520833 0 0 1 2.0096965,3.9129394 0.92604166,1.8520833 0 0 1 1.7947224,3.9682332 L 2.532662,2.4923543 1.8779216,1.1823568 1.4102498,2.1182169 1.7843872,2.8664917 1.9714559,2.4923543 1.7843872,2.1182169 1.8779216,1.9306315 2.0649903,2.3052856 2.1585246,2.4923543 2.0649903,2.679423 1.8779216,3.0535604 1.7843872,3.240629 1.3167155,2.3052856 1.2231812,2.1182169 1.7843872,0.99528807 Z M 2.0096965,3.9129394 A 0.92604167,1.8520833 0 0 0 2.2417237,3.7279378 0.92604167,1.8520833 0 0 0 2.559017,3.1346924 0.92604167,1.8520833 0 0 0 2.6205119,2.9166178 0.92604167,1.8520833 0 0 0 2.6458334,2.8018961 0.92604167,1.8520833 0 0 0 2.6670207,2.6840739 0.92604167,1.8520833 0 0 0 2.6840739,2.5636678 Z M 2.6112102,1.2758911 a 0.92604166,1.8520833 0 0 1 0.015503,0.064596 0.92604167,1.8520833 0 0 0 -0.015503,-0.064596 z m 0.091984,0.5885946 a 0.92604166,1.8520833 0 0 1 0.00465,0.072864 0.92604167,1.8520833 0 0 0 -0.00465,-0.072864 z" />
    <path
       id="path1351"
       style="display:none;fill:#000000;fill-opacity:1;stroke-width:0.132292;stroke-linecap:round;stroke-linejoin:round;stroke-miterlimit:1.5;paint-order:markers stroke fill"
       d="M -0.43615352,0.80834037 -0.62324224,0.99542909 -1.7457742,2.117961 -1.5586855,2.3050497 -0.62324216,3.2404931 -0.43615351,3.0534044 -0.06197622,2.6792271 0.1251125,2.4921384 -0.06197617,2.3050497 -0.4361535,1.9308724 -0.62324222,2.1179611 -0.24906489,2.4921385 -0.62324218,2.8663157 -1.3715968,2.1179611 -0.43615352,1.1825178 0.87346712,2.4921384 -0.99741955,4.3630251 -0.81033088,4.5501138 1.2476445,2.4921384 Z"
       inkscape:transform-center-x="-0.37417735"
       inkscape:transform-center-y="0.56568544" />
    <path
       id="path1358"
       style="display:none;fill:#ffffff;fill-opacity:1;stroke-width:0.193548;stroke-linecap:round;stroke-linejoin:round;stroke-miterlimit:1.5;paint-order:markers stroke fill"
       d="M 2.1166667,0.26458333 A 0.92604167,1.8520833 0 0 0 1.190625,2.1166667 0.92604167,1.8520833 0 0 0 2.1166667,3.96875 0.92604167,1.8520833 0 0 0 2.1254567,3.9682332 L 2.8633961,2.4923543 2.2086558,1.1823568 1.740984,2.1182169 2.1151214,2.8664917 2.3021901,2.4923543 2.1151214,2.1182169 2.2086554,1.9306315 2.395724,2.3052856 2.489258,2.4923543 2.395724,2.679423 2.2086554,3.0535604 2.1151214,3.240629 1.6474497,2.3052856 1.5539157,2.1182169 2.1151218,0.99528808 2.2086558,0.80821939 3.0272104,2.4458455 A 0.92604167,1.8520833 0 0 0 3.0427083,2.1166667 0.92604167,1.8520833 0 0 0 2.1166667,0.26458333 Z M 3.0148031,2.5636678 2.3401673,3.9129394 A 0.92604167,1.8520833 0 0 0 3.0148031,2.5636678 Z" />
  </g>
  <metadata
     id="metadata132">
    <rdf:RDF>
      <cc:License
         rdf:about="http://creativecommons.org/licenses/by-nc/4.0/">
        <cc:permits
           rdf:resource="http://creativecommons.org/ns#Reproduction" />
        <cc:permits
           rdf:resource="http://creativecommons.org/ns#Distribution" />
        <cc:requires
           rdf:resource="http://creativecommons.org/ns#Notice" />
        <cc:requires
           rdf:resource="http://creativecommons.org/ns#Attribution" />
        <cc:prohibits
           rdf:resource="http://creativecommons.org/ns#CommercialUse" />
        <cc:permits
           rdf:resource="http://creativecommons.org/ns#DerivativeWorks" />
      </cc:License>
      <cc:Work
         rdf:about="">
        <cc:license
           rdf:resource="http://creativecommons.org/licenses/by-nc/4.0/" />
      </cc:Work>
    </rdf:RDF>
  </metadata>
</svg>
