<?xml version="1.0" encoding="UTF-8" standalone="no"?>
<!-- Created with Inkscape (http://www.inkscape.org/) -->

<svg
   width="16"
   height="16"
   viewBox="0 0 4.2333333 4.2333333"
   version="1.1"
   id="svg5"
   inkscape:version="1.2.2 (b0a8486541, 2022-12-01)"
   sodipodi:docname="toilet_paper.svg"
   xmlns:inkscape="http://www.inkscape.org/namespaces/inkscape"
   xmlns:sodipodi="http://sodipodi.sourceforge.net/DTD/sodipodi-0.dtd"
   xmlns="http://www.w3.org/2000/svg"
   xmlns:svg="http://www.w3.org/2000/svg"
   xmlns:rdf="http://www.w3.org/1999/02/22-rdf-syntax-ns#"
   xmlns:cc="http://creativecommons.org/ns#">
  <sodipodi:namedview
     id="namedview7"
     pagecolor="#4d4d4d"
     bordercolor="#666666"
     borderopacity="1.0"
     inkscape:showpageshadow="2"
     inkscape:pageopacity="0"
     inkscape:pagecheckerboard="0"
     inkscape:deskcolor="#d1d1d1"
     inkscape:document-units="px"
     showgrid="false"
     inkscape:zoom="24.202694"
     inkscape:cx="2.4790629"
     inkscape:cy="9.689004"
     inkscape:window-width="1920"
     inkscape:window-height="1002"
     inkscape:window-x="0"
     inkscape:window-y="0"
     inkscape:window-maximized="1"
     inkscape:current-layer="layer1" />
  <defs
     id="defs2" />
  <g
     inkscape:label="圖層 1"
     inkscape:groupmode="layer"
     id="layer1">
    <path
       id="rect1125"
       style="fill:#ffffff;fill-opacity:1;stroke:none;stroke-width:0.132292;stroke-linecap:round;stroke-linejoin:round;stroke-miterlimit:1.5;stroke-dasharray:none;stroke-opacity:1;paint-order:markers stroke fill"
       d="M 0.78238119,2.54894 V 3.8398173 H 1.6903361 V 3.5514628 c -0.020274,0.00232 -0.04076,0.00362 -0.061495,0.00362 C 1.3623129,3.55508 1.1326074,3.3592617 0.97255046,3.0667378 0.89121583,2.9180888 0.82639148,2.7426747 0.78238119,2.54894 Z"
       sodipodi:nodetypes="ccccssc" />
    <g
       id="ellipse348"
       transform="translate(0,-0.17544151)">
      <path
         style="color:#000000;display:none;fill:#000000;stroke-linecap:round;stroke-linejoin:round;stroke-miterlimit:1.5;-inkscape-stroke:none;paint-order:markers stroke fill"
         d="m 1.6289062,0.50195312 c -0.2665285,0 -0.4961928,0.19575703 -0.65624995,0.48828126 C 0.8125991,1.2827586 0.71679687,1.6799964 0.71679687,2.1171875 c 0,0.4371911 0.0958022,0.8324758 0.25585938,1.125 0.16005715,0.2925242 0.38972145,0.4882812 0.65624995,0.4882813 0.2665286,0 0.4961929,-0.1957571 0.6562501,-0.4882813 0.1600571,-0.2925242 0.2578125,-0.6878089 0.2578125,-1.125 0,-0.4371911 -0.097755,-0.8344289 -0.2578125,-1.12695312 C 2.1250991,0.69771015 1.8954348,0.50195312 1.6289062,0.50195312 Z m 0,0.1328125 c 0.201195,10e-9 0.3945596,0.15225521 0.5410157,0.41992188 0.1464561,0.2676667 0.2402344,0.6448686 0.2402344,1.0625 0,0.4176314 -0.093778,0.7948333 -0.2402344,1.0625 -0.1464561,0.2676667 -0.3398207,0.4179687 -0.5410157,0.4179688 -0.2011949,0 -0.3945595,-0.1503021 -0.5410156,-0.4179688 -0.1464561,-0.2676667 -0.24023435,-0.6448686 -0.24023435,-1.0625 0,-0.4176314 0.0937782,-0.7948333 0.24023435,-1.0625 C 1.2343467,0.78702083 1.4277113,0.63476563 1.6289062,0.63476562 Z"
         id="path1011" />
      <path
         id="path1013"
         style="color:#000000;fill:#ffffff;fill-opacity:0.992844;stroke-width:0.132292;stroke-linecap:round;stroke-linejoin:round;stroke-miterlimit:1.5;-inkscape-stroke:none;paint-order:markers stroke fill"
         d="M 1.6288411,0.56895752 A 0.84688914,1.5477946 0 0 0 0.78238118,2.1166667 0.84688914,1.5477946 0 0 0 1.6288411,3.6643758 0.84688914,1.5477946 0 0 0 2.4758179,2.1166667 0.84688914,1.5477946 0 0 0 1.6288411,0.56895752 Z m 0,0.98185218 A 0.30958587,0.56580645 0 0 1 1.9388997,2.1166667 0.30958587,0.56580645 0 0 1 1.6288411,2.6825236 0.30958587,0.56580645 0 0 1 1.3192993,2.1166667 0.30958587,0.56580645 0 0 1 1.6288411,1.5508097 Z" />
    </g>
    <path
       id="ellipse350"
       style="fill:#ffffff;fill-opacity:1;stroke-width:7.23781;stroke-linecap:round;stroke-linejoin:round;stroke-miterlimit:1.5;paint-order:fill markers stroke"
       d="m 1.8923909,0.39351601 c 0.1544483,0.0810207 0.2883913,0.23045112 0.3927409,0.42116291 0.1600574,0.29252398 0.2578654,0.68987238 0.2578654,1.12706298 0,0.4371907 -0.097808,0.832472 -0.2578654,1.1249959 C 2.1803237,3.2582876 2.0456317,3.4081632 1.8903239,3.4889343 H 2.6044922 C 3.0720303,3.4885012 3.4509263,2.7957089 3.4509521,1.9412252 3.4509264,1.0867415 3.0720303,0.3939491 2.6044922,0.39351601 Z"
       sodipodi:nodetypes="csssccccc" />
  </g>
  <metadata
     id="metadata132">
    <rdf:RDF>
      <cc:Work
         rdf:about="">
        <cc:license
           rdf:resource="http://creativecommons.org/licenses/by-nc/4.0/" />
      </cc:Work>
      <cc:License
         rdf:about="http://creativecommons.org/licenses/by-nc/4.0/">
        <cc:permits
           rdf:resource="http://creativecommons.org/ns#Reproduction" />
        <cc:permits
           rdf:resource="http://creativecommons.org/ns#Distribution" />
        <cc:requires
           rdf:resource="http://creativecommons.org/ns#Notice" />
        <cc:requires
           rdf:resource="http://creativecommons.org/ns#Attribution" />
        <cc:prohibits
           rdf:resource="http://creativecommons.org/ns#CommercialUse" />
        <cc:permits
           rdf:resource="http://creativecommons.org/ns#DerivativeWorks" />
      </cc:License>
    </rdf:RDF>
  </metadata>
</svg>
