<?xml version="1.0" encoding="UTF-8" standalone="no"?>
<!-- Created with Inkscape (http://www.inkscape.org/) -->

<svg
   width="16"
   height="16"
   viewBox="0 0 4.2333333 4.2333333"
   version="1.1"
   id="svg29181"
   inkscape:version="1.2.2 (b0a8486541, 2022-12-01)"
   sodipodi:docname="crate.svg"
   xmlns:inkscape="http://www.inkscape.org/namespaces/inkscape"
   xmlns:sodipodi="http://sodipodi.sourceforge.net/DTD/sodipodi-0.dtd"
   xmlns="http://www.w3.org/2000/svg"
   xmlns:svg="http://www.w3.org/2000/svg">
  <sodipodi:namedview
     id="namedview29183"
     pagecolor="#ffffff"
     bordercolor="#666666"
     borderopacity="1.0"
     inkscape:showpageshadow="2"
     inkscape:pageopacity="0.0"
     inkscape:pagecheckerboard="0"
     inkscape:deskcolor="#d1d1d1"
     inkscape:document-units="px"
     showgrid="false"
     inkscape:zoom="32"
     inkscape:cx="3"
     inkscape:cy="9.859375"
     inkscape:window-width="1920"
     inkscape:window-height="1004"
     inkscape:window-x="0"
     inkscape:window-y="0"
     inkscape:window-maximized="1"
     inkscape:current-layer="layer1" />
  <defs
     id="defs29178" />
  <g
     inkscape:label="圖層 1"
     inkscape:groupmode="layer"
     id="layer1">
    <g
       id="g34957"
       transform="rotate(9.1061523,0.90219466,5.3888868)">
      <path
         id="path34950"
         style="fill:#000000;fill-opacity:1;stroke:none;stroke-width:0.0921571;stroke-linecap:butt;stroke-linejoin:miter;stroke-miterlimit:1.4;stroke-dasharray:none;stroke-opacity:1"
         d="M 0.98030191,2.7677897 1.2221476,3.0406413 1.0417969,3.1388265 1.3606405,3.3434651 0.98030191,3.6803955 H 3.5403523 L 3.2633667,3.293339 3.519165,2.7729573 Z M 1.1456665,2.8370361 H 3.4147786 L 3.1739664,3.3078084 3.4147786,3.6183838 H 1.1456665 L 1.4825968,3.3320963 1.1668538,3.1470947 1.3218831,3.0427083 Z" />
      <path
         id="rect29963"
         style="fill:#4d2600;stroke:none;stroke-width:0.079375;stroke-linecap:butt;stroke-linejoin:miter;stroke-miterlimit:1.4;stroke-dasharray:none;stroke-opacity:1"
         d="M 1.1454369,2.8368294 H 3.4149004 L 3.1740375,3.3078502 3.4149004,3.6182957 H 1.1454369 L 1.4826449,3.3319365 1.1668469,3.147275 1.3220697,3.042901 Z"
         sodipodi:nodetypes="ccccccccc" />
    </g>
    <g
       id="g34963"
       transform="rotate(-70.515081,0.29974954,3.3008877)">
      <path
         id="path34959"
         style="fill:#000000;fill-opacity:1;stroke:none;stroke-width:0.0921571;stroke-linecap:butt;stroke-linejoin:miter;stroke-miterlimit:1.4;stroke-dasharray:none;stroke-opacity:1"
         d="M 0.98030191,2.7677897 1.2221476,3.0406413 1.0417969,3.1388265 1.3606405,3.3434651 0.98030191,3.6803955 H 3.5403523 L 3.2633667,3.293339 3.519165,2.7729573 Z M 1.1456665,2.8370361 H 3.4147786 L 3.1739664,3.3078084 3.4147786,3.6183838 H 1.1456665 L 1.4825968,3.3320963 1.1668538,3.1470947 1.3218831,3.0427083 Z" />
      <path
         id="path34961"
         style="fill:#4d2600;stroke:none;stroke-width:0.079375;stroke-linecap:butt;stroke-linejoin:miter;stroke-miterlimit:1.4;stroke-dasharray:none;stroke-opacity:1"
         d="M 1.1454369,2.8368294 H 3.4149004 L 3.1740375,3.3078502 3.4149004,3.6182957 H 1.1454369 L 1.4826449,3.3319365 1.1668469,3.147275 1.3220697,3.042901 Z"
         sodipodi:nodetypes="ccccccccc" />
    </g>
    <g
       id="g34969"
       transform="rotate(-127.54885,2.1899599,2.1969549)">
      <path
         id="path34965"
         style="fill:#000000;fill-opacity:1;stroke:none;stroke-width:0.0921571;stroke-linecap:butt;stroke-linejoin:miter;stroke-miterlimit:1.4;stroke-dasharray:none;stroke-opacity:1"
         d="M 0.98030191,2.7677897 1.2221476,3.0406413 1.0417969,3.1388265 1.3606405,3.3434651 0.98030191,3.6803955 H 3.5403523 L 3.2633667,3.293339 3.519165,2.7729573 Z M 1.1456665,2.8370361 H 3.4147786 L 3.1739664,3.3078084 3.4147786,3.6183838 H 1.1456665 L 1.4825968,3.3320963 1.1668538,3.1470947 1.3218831,3.0427083 Z" />
      <path
         id="path34967"
         style="fill:#4d2600;stroke:none;stroke-width:0.079375;stroke-linecap:butt;stroke-linejoin:miter;stroke-miterlimit:1.4;stroke-dasharray:none;stroke-opacity:1"
         d="M 1.1454369,2.8368294 H 3.4149004 L 3.1740375,3.3078502 3.4149004,3.6182957 H 1.1454369 L 1.4826449,3.3319365 1.1668469,3.147275 1.3220697,3.042901 Z"
         sodipodi:nodetypes="ccccccccc" />
    </g>
    <g
       id="g34975"
       transform="rotate(-34.398676,-0.22396972,1.385811)">
      <path
         id="path34971"
         style="fill:#000000;fill-opacity:1;stroke:none;stroke-width:0.0921571;stroke-linecap:butt;stroke-linejoin:miter;stroke-miterlimit:1.4;stroke-dasharray:none;stroke-opacity:1"
         d="M 0.98030191,2.7677897 1.2221476,3.0406413 1.0417969,3.1388265 1.3606405,3.3434651 0.98030191,3.6803955 H 3.5403523 L 3.2633667,3.293339 3.519165,2.7729573 Z M 1.1456665,2.8370361 H 3.4147786 L 3.1739664,3.3078084 3.4147786,3.6183838 H 1.1456665 L 1.4825968,3.3320963 1.1668538,3.1470947 1.3218831,3.0427083 Z" />
      <path
         id="path34973"
         style="fill:#4d2600;stroke:none;stroke-width:0.079375;stroke-linecap:butt;stroke-linejoin:miter;stroke-miterlimit:1.4;stroke-dasharray:none;stroke-opacity:1"
         d="M 1.1454369,2.8368294 H 3.4149004 L 3.1740375,3.3078502 3.4149004,3.6182957 H 1.1454369 L 1.4826449,3.3319365 1.1668469,3.147275 1.3220697,3.042901 Z"
         sodipodi:nodetypes="ccccccccc" />
    </g>
  </g>
</svg>
